<svg xmlns="http://www.w3.org/2000/svg" width="340" height="200" viewBox="0 0 340 200" role="img" aria-label="Token Stack">
<title>Token Stack</title>
<style>
.f{opacity:0;animation:fu 0.70s cubic-bezier(.4,0,.2,1) forwards}
@keyframes fu{from{opacity:0;transform:translateY(7px)}to{opacity:1;transform:translateY(0)}}
.bx{transform:scaleX(0);transform-box:fill-box;transform-origin:left center;animation:gx 0.90s cubic-bezier(.2,.6,.2,1) forwards}
@keyframes gx{to{transform:scaleX(1)}}
.by{transform:scaleY(0);transform-box:fill-box;transform-origin:center bottom;animation:gy 0.80s cubic-bezier(.2,.6,.2,1) forwards}
@keyframes gy{to{transform:scaleY(1)}}
.sky-star{opacity:0;animation:twinkle 1.80s ease-in-out infinite}.skyline-fabric{opacity:0;animation:fu 0.70s cubic-bezier(.4,0,.2,1) forwards}@keyframes twinkle{50%{opacity:.3;transform:scale(.55)}}
@media (prefers-reduced-motion:reduce){*{animation-duration:.01s!important;animation-delay:0s!important}}
</style>
<rect x="0.5" y="0.5" width="339" height="199" rx="8" fill="#1a1b27" stroke="#3b4261"/>

<defs><linearGradient id="big" x1="0" y1="0" x2="1" y2="0">
<stop offset="0%" stop-color="#70a5fd"/><stop offset="100%" stop-color="#bb9af7"/>
</linearGradient></defs>
<g font-family="'Segoe UI',Ubuntu,Sans-Serif">
<text class="f" x="20" y="27" font-size="14" font-weight="600" fill="#70a5fd">⚡ Token Stack</text>
<text class="f" style="animation-delay:0.12s" x="20" y="66" font-size="30" font-weight="800" fill="url(#big)">3.93B</text>
<text class="f" style="animation-delay:0.24s" x="20" y="85" font-size="10.5" fill="#9aa5ce">tokens all time · est. $2,913.77 · 🔥 8d streak</text>
<text class="f" style="animation-delay:0.36s" x="320" y="97" font-size="9.5" text-anchor="end" fill="#9aa5ce">last 30d · 2.55B</text>
<defs><linearGradient id="skylineSky" x1="0" y1="0" x2="0" y2="1"><stop stop-color="#69bce0"/><stop offset=".58" stop-color="#b8e4eb"/><stop offset="1" stop-color="#f4d7a8"/></linearGradient><radialGradient id="skylineLuminary"><stop stop-color="#fffde1"/><stop offset="1" stop-color="#fff1a4"/></radialGradient><clipPath id="skylineScene"><rect x="20" y="100" width="300" height="72" rx="7"/></clipPath><clipPath id="skylineCliplot0"><path d="M19.6 167V146.46546711012724H23.4V140.46546711012724H31.3V137.46546711012724H35.5V167Z"/></clipPath><clipPath id="skylineCliplot1"><path d="M34.6 167V137.57766793505348H50.5V167Z"/></clipPath><clipPath id="skylineCliplot2"><path d="M49.6 167V137.11329403826943H65.5V167Z"/></clipPath><clipPath id="skylineCliplot3"><path d="M64.7 167V144.5599019798263Q72.6 134.5599019798263 80.5 144.5599019798263V167Z"/></clipPath><clipPath id="skylineCliplot4"><path d="M79.7 167V144.3154195418783Q87.6 134.3154195418783 95.5 144.3154195418783V167Z"/></clipPath><clipPath id="skylineCliplot5"><path d="M94.7 167V142.06548115015855H97.0V137.06548115015855H110.5V167Z"/></clipPath><clipPath id="skylineCliplot6"><path d="M109.7 167V145.69892770921317L113.6 137.69892770921317H121.5L125.5 145.69892770921317V167Z"/></clipPath><clipPath id="skylineCliplot7"><path d="M124.7 167V146.45950368282894L128.6 138.45950368282894H136.5L140.5 146.45950368282894V167Z"/></clipPath><clipPath id="skylineCliplot8"><path d="M139.7 167V158.89508261890862H143.4V152.89508261890862H151.3V149.89508261890862H155.5V167Z"/></clipPath><clipPath id="skylineCliplot9"><path d="M154.7 167V147.90849692666282H158.4V141.90849692666282H166.3V138.90849692666282H170.5V167Z"/></clipPath><clipPath id="skylineCliplot10"><path d="M169.7 167V138.58706623622848H185.5V167Z"/></clipPath><clipPath id="skylineCliplot11"><path d="M184.7 167V137.93005973210603H200.5V167Z"/></clipPath><clipPath id="skylineCliplot12"><path d="M199.7 167V148.29087744803468Q207.6 138.29087744803468 215.5 148.29087744803468V167Z"/></clipPath><clipPath id="skylineCliplot13"><path d="M214.7 167V163.11019828970325H217.2V159.11019828970325H226.0V163.11019828970325H230.5V167Z"/></clipPath><clipPath id="skylineCliplot14"><path d="M229.7 167V164.73624107810892L237.6 158.73624107810892L245.5 164.73624107810892V167Z"/></clipPath><clipPath id="skylineCliplot15"><path d="M244.7 167V147.88699260750482L248.6 139.88699260750482H256.5L260.4 147.88699260750482V167Z"/></clipPath><clipPath id="skylineCliplot16"><path d="M259.6 167V146.18503362320823L263.6 138.18503362320823H271.5L275.4 146.18503362320823V167Z"/></clipPath><clipPath id="skylineCliplot17"><path d="M274.6 167V148.2234401930416H278.4V142.2234401930416H286.3V139.2234401930416H290.4V167Z"/></clipPath><clipPath id="skylineCliplot18"><path d="M289.6 167V148.5156803864199H293.4V142.5156803864199H301.3V139.5156803864199H305.4V167Z"/></clipPath><clipPath id="skylineCliplot19"><path d="M304.6 167V138.44715595261673H320.4V167Z"/></clipPath><clipPath id="skylineClippeak4"><path d="M61.0 167V139.16L63.4 120.16L65.0 115.16L66.6 120.16V167Z"/></clipPath><clipPath id="skylineClippeak14"><path d="M161.0 167V143.16L162.8 127.16L165.0 115.16L167.2 133.16V167Z"/></clipPath></defs><g clip-path="url(#skylineScene)"><rect data-sky="day" x="20" y="100" width="300" height="72" rx="7" fill="url(#skylineSky)"/><g class="f" style="animation-delay:0.10s" fill="#ffffff" fill-opacity=".48"><circle cx="80" cy="115.84" r="7"/><circle cx="92" cy="114.4" r="10"/><circle cx="107" cy="117.28" r="7"/><circle cx="221" cy="121.6" r="6"/><circle cx="233" cy="119.44" r="9"/></g><circle class="f skyline-luminary" style="animation-delay:0.24s" cx="300" cy="117" r="7" fill="url(#skylineLuminary)"/><rect x="19.6" y="141.6" width="15.9" height="25.4" fill="#718d99" fill-opacity=".26"/><rect x="34.6" y="145.3" width="15.9" height="21.7" fill="#849aa0" fill-opacity=".26"/><rect x="49.6" y="143.8" width="15.9" height="23.2" fill="#6f9090" fill-opacity=".26"/><rect x="64.6" y="142.7" width="15.9" height="24.3" fill="#8a99a1" fill-opacity=".26"/><rect x="79.6" y="141.3" width="15.9" height="25.7" fill="#6d8792" fill-opacity=".26"/><rect x="94.6" y="144.9" width="15.9" height="22.1" fill="#718d99" fill-opacity=".26"/><rect x="109.6" y="144.2" width="15.9" height="22.8" fill="#849aa0" fill-opacity=".26"/><rect x="124.6" y="144.7" width="15.9" height="22.3" fill="#6f9090" fill-opacity=".26"/><rect x="139.6" y="153.2" width="15.9" height="13.8" fill="#8a99a1" fill-opacity=".26"/><rect x="154.6" y="147.0" width="15.9" height="20.0" fill="#6d8792" fill-opacity=".26"/><rect x="169.6" y="144.4" width="15.9" height="22.6" fill="#718d99" fill-opacity=".26"/><rect x="184.6" y="143.3" width="15.9" height="23.7" fill="#849aa0" fill-opacity=".26"/><rect x="199.6" y="150.4" width="15.9" height="16.6" fill="#6f9090" fill-opacity=".26"/><rect x="214.6" y="156.9" width="15.9" height="10.1" fill="#8a99a1" fill-opacity=".26"/><rect x="229.6" y="155.0" width="15.9" height="12.0" fill="#6d8792" fill-opacity=".26"/><rect x="244.6" y="145.3" width="15.9" height="21.7" fill="#718d99" fill-opacity=".26"/><rect x="259.6" y="146.7" width="15.9" height="20.3" fill="#849aa0" fill-opacity=".26"/><rect x="274.6" y="146.0" width="15.9" height="21.0" fill="#6f9090" fill-opacity=".26"/><rect x="289.6" y="144.9" width="15.9" height="22.1" fill="#8a99a1" fill-opacity=".26"/><rect x="304.6" y="143.0" width="15.9" height="24.0" fill="#6d8792" fill-opacity=".26"/><polygon class="skyline-fabric" points="20,167 20.0,147.6 30.0,147.4 40.0,147.4 50.0,147.2 60.0,147.2 70.0,147.4 80.0,147.4 90.0,147.1 100.0,147.1 110.0,147.3 120.0,148.5 130.0,149.8 140.0,156.4 150.0,151.5 160.0,149.0 170.0,148.3 180.0,147.5 190.0,148.7 200.0,150.9 210.0,159.5 220.0,160.8 230.0,159.8 240.0,152.1 250.0,148.8 260.0,148.1 270.0,148.0 280.0,150.0 290.0,148.8 300.0,148.4 310.0,148.3 320.0,148.3 320,167" fill="#718d99" fill-opacity=".42"/><g class="skyline-midrise"><title>2026-06-16: 120.3M activity district</title><path class="by skyline-building skyline-midrise-1" style="animation-delay:0.00s" d="M19.6 167V146.46546711012724H23.4V140.46546711012724H31.3V137.46546711012724H35.5V167Z" fill="#849aa0" fill-opacity="0.96"/><g clip-path="url(#skylineCliplot0)"><rect x="32.6" y="137.5" width="2.8" height="29.5" fill="#101827" fill-opacity=".12"/><path d="M27.5 141.46546711012724V164" stroke="#eaf5f2" stroke-opacity=".35" stroke-width=".7"/></g></g><g class="skyline-midrise"><title>2026-06-17: 73.1M activity district</title><path class="by skyline-building skyline-midrise-4" style="animation-delay:0.03s" d="M34.6 167V137.57766793505348H50.5V167Z" fill="#6d8792" fill-opacity="0.96"/><g clip-path="url(#skylineCliplot1)"><rect x="47.6" y="137.6" width="2.8" height="29.4" fill="#101827" fill-opacity=".12"/><path d="M42.5 141.57766793505348V164" stroke="#eaf5f2" stroke-opacity=".35" stroke-width=".7"/></g></g><g class="skyline-midrise"><title>2026-06-19: 277M activity district</title><path class="by skyline-building skyline-midrise-4" style="animation-delay:0.05s" d="M49.6 167V137.11329403826943H65.5V167Z" fill="#6d8792" fill-opacity="0.96"/><g clip-path="url(#skylineCliplot2)"><rect x="62.6" y="137.1" width="2.8" height="29.9" fill="#101827" fill-opacity=".12"/><path d="M57.5 141.11329403826943V164" stroke="#eaf5f2" stroke-opacity=".35" stroke-width=".7"/></g></g><g class="skyline-midrise"><title>2026-06-20: 82.4M activity district</title><path class="by skyline-building skyline-midrise-2" style="animation-delay:0.08s" d="M64.7 167V144.5599019798263Q72.6 134.5599019798263 80.5 144.5599019798263V167Z" fill="#6f9090" fill-opacity="0.96"/><g clip-path="url(#skylineCliplot3)"><rect x="77.6" y="137.6" width="2.8" height="29.4" fill="#101827" fill-opacity=".12"/><path d="M72.6 141.5599019798263V164" stroke="#eaf5f2" stroke-opacity=".35" stroke-width=".7"/></g></g><g class="skyline-midrise"><title>2026-06-22: 148.8M activity district</title><path class="by skyline-building skyline-midrise-2" style="animation-delay:0.10s" d="M79.7 167V144.3154195418783Q87.6 134.3154195418783 95.5 144.3154195418783V167Z" fill="#6f9090" fill-opacity="0.96"/><g clip-path="url(#skylineCliplot4)"><rect x="92.6" y="137.3" width="2.8" height="29.7" fill="#101827" fill-opacity=".12"/><path d="M87.6 141.3154195418783V164" stroke="#eaf5f2" stroke-opacity=".35" stroke-width=".7"/></g></g><g class="skyline-midrise"><title>2026-06-23: 313M activity district</title><path class="by skyline-building skyline-midrise-0" style="animation-delay:0.13s" d="M94.7 167V142.06548115015855H97.0V137.06548115015855H110.5V167Z" fill="#718d99" fill-opacity="0.96"/><g clip-path="url(#skylineCliplot5)"><rect x="107.6" y="137.1" width="2.8" height="29.9" fill="#101827" fill-opacity=".12"/><path d="M102.6 141.06548115015855V164" stroke="#eaf5f2" stroke-opacity=".35" stroke-width=".7"/></g></g><g class="skyline-midrise"><title>2026-06-24: 90.4M activity district</title><path class="by skyline-building skyline-midrise-3" style="animation-delay:0.15s" d="M109.7 167V145.69892770921317L113.6 137.69892770921317H121.5L125.5 145.69892770921317V167Z" fill="#8a99a1" fill-opacity="0.96"/><g clip-path="url(#skylineCliplot6)"><rect x="122.6" y="137.7" width="2.8" height="29.3" fill="#101827" fill-opacity=".12"/><path d="M117.6 141.69892770921317V164" stroke="#eaf5f2" stroke-opacity=".35" stroke-width=".7"/></g></g><g class="skyline-midrise"><title>2026-06-26: 126.2M activity district</title><path class="by skyline-building skyline-midrise-3" style="animation-delay:0.18s" d="M124.7 167V146.45950368282894L128.6 138.45950368282894H136.5L140.5 146.45950368282894V167Z" fill="#8a99a1" fill-opacity="0.96"/><g clip-path="url(#skylineCliplot7)"><rect x="137.6" y="138.5" width="2.8" height="28.5" fill="#101827" fill-opacity=".12"/><path d="M132.6 142.45950368282894V164" stroke="#eaf5f2" stroke-opacity=".35" stroke-width=".7"/></g></g><g class="skyline-midrise"><title>2026-06-27: 0 activity district</title><path class="by skyline-building skyline-midrise-1" style="animation-delay:0.20s" d="M139.7 167V158.89508261890862H143.4V152.89508261890862H151.3V149.89508261890862H155.5V167Z" fill="#849aa0" fill-opacity="0.96"/><g clip-path="url(#skylineCliplot8)"><rect x="152.6" y="149.9" width="2.8" height="17.1" fill="#101827" fill-opacity=".12"/><path d="M147.6 153.89508261890862V164" stroke="#eaf5f2" stroke-opacity=".35" stroke-width=".7"/></g></g><g class="skyline-midrise"><title>2026-06-29: 209.9M activity district</title><path class="by skyline-building skyline-midrise-1" style="animation-delay:0.23s" d="M154.7 167V147.90849692666282H158.4V141.90849692666282H166.3V138.90849692666282H170.5V167Z" fill="#849aa0" fill-opacity="0.96"/><g clip-path="url(#skylineCliplot9)"><rect x="167.6" y="138.9" width="2.8" height="28.1" fill="#101827" fill-opacity=".12"/><path d="M162.6 142.90849692666282V164" stroke="#eaf5f2" stroke-opacity=".35" stroke-width=".7"/></g></g><g class="skyline-midrise"><title>2026-06-30: 20.6M activity district</title><path class="by skyline-building skyline-midrise-4" style="animation-delay:0.25s" d="M169.7 167V138.58706623622848H185.5V167Z" fill="#6d8792" fill-opacity="0.96"/><g clip-path="url(#skylineCliplot10)"><rect x="182.6" y="138.6" width="2.8" height="28.4" fill="#101827" fill-opacity=".12"/><path d="M177.6 142.58706623622848V164" stroke="#eaf5f2" stroke-opacity=".35" stroke-width=".7"/></g></g><g class="skyline-midrise"><title>2026-07-02: 92.6M activity district</title><path class="by skyline-building skyline-midrise-4" style="animation-delay:0.28s" d="M184.7 167V137.93005973210603H200.5V167Z" fill="#6d8792" fill-opacity="0.96"/><g clip-path="url(#skylineCliplot11)"><rect x="197.6" y="137.9" width="2.8" height="29.1" fill="#101827" fill-opacity=".12"/><path d="M192.6 141.93005973210603V164" stroke="#eaf5f2" stroke-opacity=".35" stroke-width=".7"/></g></g><g class="skyline-midrise"><title>2026-07-03: 88.4M activity district</title><path class="by skyline-building skyline-midrise-2" style="animation-delay:0.30s" d="M199.7 167V148.29087744803468Q207.6 138.29087744803468 215.5 148.29087744803468V167Z" fill="#6f9090" fill-opacity="0.96"/><g clip-path="url(#skylineCliplot12)"><rect x="212.6" y="141.3" width="2.8" height="25.7" fill="#101827" fill-opacity=".12"/><path d="M207.6 145.29087744803468V164" stroke="#eaf5f2" stroke-opacity=".35" stroke-width=".7"/></g></g><g class="skyline-house"><title>2026-07-05: 0 activity district</title><path class="by skyline-building skyline-house-2" style="animation-delay:0.33s" d="M214.7 167V163.11019828970325H217.2V159.11019828970325H226.0V163.11019828970325H230.5V167Z" fill="#a66f58" fill-opacity="0.96"/><g clip-path="url(#skylineCliplot13)"><rect x="227.6" y="159.1" width="2.8" height="7.9" fill="#101827" fill-opacity=".12"/><path d="M222.6 163.11019828970325V164" stroke="#eaf5f2" stroke-opacity=".35" stroke-width=".7"/></g></g><g class="skyline-house"><title>2026-07-06: 0 activity district</title><path class="by skyline-building skyline-house-0" style="animation-delay:0.35s" d="M229.7 167V164.73624107810892L237.6 158.73624107810892L245.5 164.73624107810892V167Z" fill="#b27d60" fill-opacity="0.96"/><g clip-path="url(#skylineCliplot14)"><rect x="242.6" y="158.7" width="2.8" height="8.3" fill="#101827" fill-opacity=".12"/><path d="M237.6 162.73624107810892V164" stroke="#eaf5f2" stroke-opacity=".35" stroke-width=".7"/></g></g><g class="skyline-midrise"><title>2026-07-07: 7M activity district</title><path class="by skyline-building skyline-midrise-3" style="animation-delay:0.38s" d="M244.7 167V147.88699260750482L248.6 139.88699260750482H256.5L260.4 147.88699260750482V167Z" fill="#8a99a1" fill-opacity="0.96"/><g clip-path="url(#skylineCliplot15)"><rect x="257.6" y="139.9" width="2.8" height="27.1" fill="#101827" fill-opacity=".12"/><path d="M252.6 143.88699260750482V164" stroke="#eaf5f2" stroke-opacity=".35" stroke-width=".7"/></g></g><g class="skyline-midrise"><title>2026-07-09: 53.2M activity district</title><path class="by skyline-building skyline-midrise-3" style="animation-delay:0.40s" d="M259.6 167V146.18503362320823L263.6 138.18503362320823H271.5L275.4 146.18503362320823V167Z" fill="#8a99a1" fill-opacity="0.96"/><g clip-path="url(#skylineCliplot16)"><rect x="272.6" y="138.2" width="2.8" height="28.8" fill="#101827" fill-opacity=".12"/><path d="M267.5 142.18503362320823V164" stroke="#eaf5f2" stroke-opacity=".35" stroke-width=".7"/></g></g><g class="skyline-midrise"><title>2026-07-10: 144.9M activity district</title><path class="by skyline-building skyline-midrise-1" style="animation-delay:0.43s" d="M274.6 167V148.2234401930416H278.4V142.2234401930416H286.3V139.2234401930416H290.4V167Z" fill="#849aa0" fill-opacity="0.96"/><g clip-path="url(#skylineCliplot17)"><rect x="287.6" y="139.2" width="2.8" height="27.8" fill="#101827" fill-opacity=".12"/><path d="M282.5 143.2234401930416V164" stroke="#eaf5f2" stroke-opacity=".35" stroke-width=".7"/></g></g><g class="skyline-midrise"><title>2026-07-12: 26.8M activity district</title><path class="by skyline-building skyline-midrise-1" style="animation-delay:0.45s" d="M289.6 167V148.5156803864199H293.4V142.5156803864199H301.3V139.5156803864199H305.4V167Z" fill="#849aa0" fill-opacity="0.96"/><g clip-path="url(#skylineCliplot18)"><rect x="302.6" y="139.5" width="2.8" height="27.5" fill="#101827" fill-opacity=".12"/><path d="M297.5 143.5156803864199V164" stroke="#eaf5f2" stroke-opacity=".35" stroke-width=".7"/></g></g><g class="skyline-midrise"><title>2026-07-13: 50.1M activity district</title><path class="by skyline-building skyline-midrise-4" style="animation-delay:0.48s" d="M304.6 167V138.44715595261673H320.4V167Z" fill="#6d8792" fill-opacity="0.96"/><g clip-path="url(#skylineCliplot19)"><rect x="317.6" y="138.4" width="2.8" height="28.6" fill="#101827" fill-opacity=".12"/><path d="M312.5 142.44715595261673V164" stroke="#eaf5f2" stroke-opacity=".35" stroke-width=".7"/></g></g><rect class="skyline-podium" x="58.4" y="157.0" width="13.2" height="10" fill="#849aa0" fill-opacity=".94"/><g class="skyline-landmark"><title>2026-06-19: 277M activity landmark</title><path class="by skyline-building skyline-landmark-4" style="animation-delay:0.50s" d="M61.0 167V139.16L63.4 120.16L65.0 115.16L66.6 120.16V167Z" fill="#738896" fill-opacity="1"/><path d="M65.0 106.8656v8.2944" stroke="#eaf5f2" stroke-opacity=".82" stroke-width="1.1"/><g clip-path="url(#skylineClippeak4)"><rect x="67.1" y="115.2" width="1.9" height="51.8" fill="#101827" fill-opacity=".12"/><path d="M65.0 119.16V164" stroke="#eaf5f2" stroke-opacity=".35" stroke-width=".7"/></g></g><rect class="skyline-podium" x="158.4" y="157.0" width="13.2" height="10" fill="#8a99a1" fill-opacity=".94"/><g class="skyline-landmark"><title>2026-06-29: 209.9M activity landmark</title><path class="by skyline-building skyline-landmark-1" style="animation-delay:0.53s" d="M161.0 167V143.16L162.8 127.16L165.0 115.16L167.2 133.16V167Z" fill="#496f87" fill-opacity="1"/><path d="M165.0 106.8656v8.2944" stroke="#eaf5f2" stroke-opacity=".82" stroke-width="1.1"/><g clip-path="url(#skylineClippeak14)"><rect x="167.1" y="115.2" width="1.9" height="51.8" fill="#101827" fill-opacity=".12"/><path d="M165.0 119.16V164" stroke="#eaf5f2" stroke-opacity=".35" stroke-width=".7"/></g></g><path class="skyline-street" d="M20 165H320V172H20Z" fill="#18232d" fill-opacity=".78"/><path d="M20 168H320" stroke="#eaf5f2" stroke-opacity=".52" stroke-dasharray="9 7" stroke-width=".7"/><path d="M44 165v-8m-2 0h4" stroke="#eaf5f2" stroke-opacity=".56" stroke-width=".8"/><circle cx="44" cy="156" r="1.1" fill="#eaf5f2" fill-opacity=".9"/><path d="M106 165v-8m-2 0h4" stroke="#eaf5f2" stroke-opacity=".56" stroke-width=".8"/><circle cx="106" cy="156" r="1.1" fill="#eaf5f2" fill-opacity=".9"/><path d="M168 165v-8m-2 0h4" stroke="#eaf5f2" stroke-opacity=".56" stroke-width=".8"/><circle cx="168" cy="156" r="1.1" fill="#eaf5f2" fill-opacity=".9"/><path d="M230 165v-8m-2 0h4" stroke="#eaf5f2" stroke-opacity=".56" stroke-width=".8"/><circle cx="230" cy="156" r="1.1" fill="#eaf5f2" fill-opacity=".9"/></g>
<text class="f" style="animation-delay:0.96s" x="20" y="190" font-size="9.5" fill="#9aa5ce">in 1.8M · out 11.8M · cache 3.91B</text>
</g>
</svg>