<svg xmlns="http://www.w3.org/2000/svg" width="495" height="250" viewBox="0 0 495 250" role="img" aria-label="Token Stack · Claude Code">
<title>Token Stack · Claude Code</title>
<style>
.f{opacity:0;animation:fu 0.70s cubic-bezier(.4,0,.2,1) forwards}
@keyframes fu{from{opacity:0;transform:translateY(7px)}to{opacity:1;transform:translateY(0)}}
.bx{transform:scaleX(0);transform-box:fill-box;transform-origin:left center;animation:gx 0.90s cubic-bezier(.2,.6,.2,1) forwards}
@keyframes gx{to{transform:scaleX(1)}}
.by{transform:scaleY(0);transform-box:fill-box;transform-origin:center bottom;animation:gy 0.80s cubic-bezier(.2,.6,.2,1) forwards}
@keyframes gy{to{transform:scaleY(1)}}

@media (prefers-reduced-motion:reduce){*{animation-duration:.01s!important;animation-delay:0s!important}}
</style>
<rect x="0.5" y="0.5" width="494" height="249" rx="8" fill="#0d1117" stroke="#30363d"/>

<defs><linearGradient id="big" x1="0" y1="0" x2="1" y2="0">
<stop offset="0%" stop-color="#58a6ff"/><stop offset="100%" stop-color="#bc8cff"/>
</linearGradient></defs>
<g font-family="'Segoe UI',Ubuntu,Sans-Serif">
<text class="f" x="25" y="33" font-size="16" font-weight="600" fill="#58a6ff">⚡ Token Stack · Claude Code</text>
<text class="f" style="animation-delay:0.12s" x="25" y="76" font-size="34" font-weight="800" fill="url(#big)">3.34B</text>
<text class="f" style="animation-delay:0.24s" x="25" y="97" font-size="12" fill="#8b949e">tokens all time · est. $2,366.62</text>
<g class="f" style="animation-delay:0.36s">
<text x="25" y="133" font-size="11" fill="#8b949e">Input</text>
<rect x="92" y="125" width="108" height="6" rx="3" fill="#21262d"/>
<rect class="bx" style="animation-delay:0.36s" x="92" y="125" width="2" height="6" rx="3" fill="#58a6ff"/>
<text x="255" y="133" font-size="11" font-weight="600" fill="#c9d1d9" text-anchor="end">1.4M</text>
</g>
<g class="f" style="animation-delay:0.48s">
<text x="25" y="158" font-size="11" fill="#8b949e">Output</text>
<rect x="92" y="150" width="108" height="6" rx="3" fill="#21262d"/>
<rect class="bx" style="animation-delay:0.48s" x="92" y="150" width="2" height="6" rx="3" fill="#3fb950"/>
<text x="255" y="158" font-size="11" font-weight="600" fill="#c9d1d9" text-anchor="end">9.2M</text>
</g>
<g class="f" style="animation-delay:0.60s">
<text x="25" y="183" font-size="11" fill="#8b949e">Cache read</text>
<rect x="92" y="175" width="108" height="6" rx="3" fill="#21262d"/>
<rect class="bx" style="animation-delay:0.60s" x="92" y="175" width="108" height="6" rx="3" fill="#d29922"/>
<text x="255" y="183" font-size="11" font-weight="600" fill="#c9d1d9" text-anchor="end">3.25B</text>
</g>
<g class="f" style="animation-delay:0.72s">
<text x="25" y="208" font-size="11" fill="#8b949e">Cache write</text>
<rect x="92" y="200" width="108" height="6" rx="3" fill="#21262d"/>
<rect class="bx" style="animation-delay:0.72s" x="92" y="200" width="3" height="6" rx="3" fill="#f85149"/>
<text x="255" y="208" font-size="11" font-weight="600" fill="#c9d1d9" text-anchor="end">80.7M</text>
</g>
<text class="f" style="animation-delay:0.36s" x="285" y="112" font-size="11" fill="#8b949e">last 14 days · 1.57B</text>
<rect class="by" style="animation-delay:0.20s" x="285.0" y="132" width="10.2" height="73" rx="2" fill="#58a6ff"/>
<rect class="by" style="animation-delay:0.25s" x="298.2" y="183" width="10.2" height="22" rx="2" fill="#58a6ff"/>
<rect class="by" style="animation-delay:0.30s" x="311.4" y="184" width="10.2" height="21" rx="2" fill="#58a6ff"/>
<rect class="by" style="animation-delay:0.35s" x="324.6" y="166" width="10.2" height="39" rx="2" fill="#58a6ff"/>
<rect class="by" style="animation-delay:0.40s" x="337.9" y="123" width="10.2" height="82" rx="2" fill="#58a6ff"/>
<rect class="by" style="animation-delay:0.45s" x="351.1" y="181" width="10.2" height="24" rx="2" fill="#58a6ff"/>
<rect class="by" style="animation-delay:0.50s" x="364.3" y="180" width="10.2" height="25" rx="2" fill="#58a6ff"/>
<rect class="by" style="animation-delay:0.55s" x="377.5" y="172" width="10.2" height="33" rx="2" fill="#58a6ff"/>
<rect class="by" style="animation-delay:0.60s" x="390.7" y="203" width="10.2" height="2" rx="2" fill="#58a6ff"/>
<rect class="by" style="animation-delay:0.65s" x="403.9" y="203" width="10.2" height="2" rx="2" fill="#58a6ff"/>
<rect class="by" style="animation-delay:0.70s" x="417.1" y="150" width="10.2" height="55" rx="2" fill="#58a6ff"/>
<rect class="by" style="animation-delay:0.75s" x="430.4" y="200" width="10.2" height="5" rx="2" fill="#58a6ff"/>
<rect class="by" style="animation-delay:0.80s" x="443.6" y="178" width="10.2" height="27" rx="2" fill="#58a6ff"/>
<rect class="by" style="animation-delay:0.85s" x="456.8" y="200" width="10.2" height="5" rx="2" fill="#bc8cff"/>
<line x1="285" y1="206" x2="470" y2="206" stroke="#30363d"/>
<text class="f" style="animation-delay:0.96s" x="25" y="232" font-size="11" fill="#8b949e">🔥 5 day streak · 36 active days · opus-4.8</text>
</g>
</svg>