<svg xmlns="http://www.w3.org/2000/svg" width="340" height="200" viewBox="0 0 340 200" role="img" aria-label="Token Stack">
<title>Token Stack</title>

<rect x="0.5" y="0.5" width="339" height="199" rx="8" fill="#1a1b27" stroke="#3b4261"/>

<defs><linearGradient id="big" x1="0" y1="0" x2="1" y2="0">
<stop offset="0%" stop-color="#70a5fd"/><stop offset="100%" stop-color="#bb9af7"/>
</linearGradient></defs>
<g font-family="'Segoe UI',Ubuntu,Sans-Serif">
<text class="f" x="20" y="27" font-size="14" font-weight="600" fill="#70a5fd">⚡ Token Stack</text>
<text class="f" style="animation-delay:0.12s" x="20" y="66" font-size="30" font-weight="800" fill="url(#big)">3.93B</text>
<text class="f" style="animation-delay:0.24s" x="20" y="85" font-size="10.5" fill="#9aa5ce">tokens all time · est. $2,913.77 · 🔥 8d streak</text>
<text class="f" style="animation-delay:0.36s" x="320" y="97" font-size="9.5" text-anchor="end" fill="#9aa5ce">last 14d · 711M</text>
<defs><linearGradient id="skylineSky" x1="0" y1="0" x2="0" y2="1"><stop stop-color="#69bce0"/><stop offset=".58" stop-color="#b8e4eb"/><stop offset="1" stop-color="#f4d7a8"/></linearGradient><radialGradient id="skylineLuminary"><stop stop-color="#fffde1"/><stop offset="1" stop-color="#fff1a4"/></radialGradient><clipPath id="skylineScene"><rect x="20" y="100" width="300" height="72" rx="7"/></clipPath><clipPath id="skylineCliplot0"><path d="M19.8 167V142.57529562375612H24.3V137.57529562375612H35.1V133.57529562375612H40.5V140.57529562375612H44.5V167Z"/></clipPath><clipPath id="skylineCliplot1"><path d="M43.4 167V134.21233615137643H47.7V126.21233615137643H53.1V121.21233615137643H63.3V126.21233615137643H67.8V134.21233615137643H71.8V167Z"/></clipPath><clipPath id="skylineCliplot2"><path d="M70.3 167V153.52912071637576H73.8V148.52912071637576H93.7V167Z"/></clipPath><clipPath id="skylineCliplot3"><path d="M95.6 167V165.19244995806483L106.9 159.19244995806483L118.2 165.19244995806483V167Z"/></clipPath><clipPath id="skylineCliplot4"><path d="M117.9 167V162.98915817359634H122.7V158.98915817359634H139.3V162.98915817359634H147.6V167Z"/></clipPath><clipPath id="skylineCliplot5"><path d="M142.8 167V139.8223280462046H146.4V131.8223280462046H151.2V125.8223280462046H165.0V132.8223280462046H169.8V139.8223280462046H172.8V167Z"/></clipPath><clipPath id="skylineCliplot6"><path d="M168.5 167V132.16739938431877H171.3V125.16739938431877H176.9V120.16739938431877H186.0V128.16739938431877H192.2V132.16739938431877H196.7V167Z"/></clipPath><clipPath id="skylineCliplot7"><path d="M195.4 167V139.00633267235528H198.9V134.00633267235528H218.5V167Z"/></clipPath><clipPath id="skylineCliplot8"><path d="M218.7 167V130.913321939127L222.6 124.91332193912702H227.0V120.91332193912702H239.7L243.6 125.91332193912702H246.4V167Z"/></clipPath><clipPath id="skylineCliplot9"><path d="M243.9 167V134.54028004561363L247.7 128.54028004561363H252.0V124.54028004561363H264.5L268.3 129.54028004561363H271.0V167Z"/></clipPath><clipPath id="skylineCliplot10"><path d="M269.5 167V142.71799317330928H273.3V137.71799317330928H291.2V142.71799317330928H295.0V167Z"/></clipPath><clipPath id="skylineCliplot11"><path d="M294.6 167V139.40478700235258H298.4V134.40478700235258H319.9V167Z"/></clipPath><clipPath id="skylineClippeak7"><path d="M163.7 167V142.690065911939H167.1V137.37226783017567H171.2V129.01572798740472H190.2V137.37226783017567H194.3V142.690065911939H197.7V167Z"/></clipPath></defs><g clip-path="url(#skylineScene)"><rect data-sky="day" x="20" y="100" width="300" height="72" rx="7" fill="url(#skylineSky)"/><g class="f" style="animation-delay:0.10s" fill="#ffffff" fill-opacity=".2"><path d="M44.0 118.0c6.6 -6.5 19.5 -6.5 25.2 0c6.6 -4.0 21.6 -3.2 25.2 2.5H98.0c-5.4 4.0 -42.0 4.0 -54.0 0Z"/><path d="M209.0 124.5c5.4 -5.0 16.5 -4.7 21.0 0c6.6 -3.6 18.0 -2.5 22.5 1.8H260.0c-4.2 3.2 -36.0 3.2 -51.0 0Z"/></g><circle class="f skyline-luminary" style="animation-delay:0.24s" cx="300" cy="117" r="7" fill="url(#skylineLuminary)"/><rect x="19.6" y="145.2" width="15.9" height="21.8" fill="#6b8692" fill-opacity=".26"/><rect x="34.6" y="146.8" width="15.9" height="20.2" fill="#7d9297" fill-opacity=".26"/><rect x="49.6" y="148.4" width="15.9" height="18.6" fill="#718c89" fill-opacity=".26"/><rect x="64.6" y="148.8" width="15.9" height="18.2" fill="#958b83" fill-opacity=".26"/><rect x="79.6" y="154.5" width="15.9" height="12.5" fill="#678390" fill-opacity=".26"/><rect x="94.6" y="156.5" width="15.9" height="10.5" fill="#6b8692" fill-opacity=".26"/><rect x="109.6" y="157.7" width="15.9" height="9.3" fill="#7d9297" fill-opacity=".26"/><rect x="124.6" y="154.5" width="15.9" height="12.5" fill="#718c89" fill-opacity=".26"/><rect x="139.6" y="152.0" width="15.9" height="15.0" fill="#958b83" fill-opacity=".26"/><rect x="154.6" y="145.2" width="15.9" height="21.8" fill="#678390" fill-opacity=".26"/><rect x="169.6" y="146.5" width="15.9" height="20.5" fill="#6b8692" fill-opacity=".26"/><rect x="184.6" y="146.8" width="15.9" height="20.2" fill="#7d9297" fill-opacity=".26"/><rect x="199.6" y="144.7" width="15.9" height="22.3" fill="#718c89" fill-opacity=".26"/><rect x="214.6" y="142.8" width="15.9" height="24.2" fill="#958b83" fill-opacity=".26"/><rect x="229.6" y="145.0" width="15.9" height="22.0" fill="#678390" fill-opacity=".26"/><rect x="244.6" y="144.3" width="15.9" height="22.7" fill="#6b8692" fill-opacity=".26"/><rect x="259.6" y="143.7" width="15.9" height="23.3" fill="#7d9297" fill-opacity=".26"/><rect x="274.6" y="146.8" width="15.9" height="20.2" fill="#718c89" fill-opacity=".26"/><rect x="289.6" y="146.6" width="15.9" height="20.4" fill="#958b83" fill-opacity=".26"/><rect x="304.6" y="146.9" width="15.9" height="20.1" fill="#678390" fill-opacity=".26"/><polygon class="skyline-fabric" points="20,167 20.0,147.1 41.4,148.4 62.9,150.8 84.3,159.4 105.7,160.8 127.1,159.8 148.6,152.0 170.0,148.7 191.4,147.9 212.9,147.9 234.3,149.8 255.7,148.6 277.1,148.2 298.6,148.0 320.0,148.0 320,167" fill="#6b8692" fill-opacity=".42"/><g class="skyline-midrise"><title>2026-07-02: 92.6M activity district</title><path class="by skyline-building skyline-midrise-1" style="animation-delay:0.00s" d="M19.8 167V142.57529562375612H24.3V137.57529562375612H35.1V133.57529562375612H40.5V140.57529562375612H44.5V167Z" fill="#7d9297" fill-opacity="0.96"/><g clip-path="url(#skylineCliplot0)"><rect x="40.0" y="133.6" width="4.4" height="33.4" fill="#101827" fill-opacity=".12"/><path d="M32.2 137.57529562375612V164" stroke="#eaf5f2" stroke-opacity=".35" stroke-width=".7"/></g></g><g class="skyline-highrise"><title>2026-07-03: 88.4M activity district</title><path class="by skyline-building skyline-highrise-1" style="animation-delay:0.03s" d="M43.4 167V134.21233615137643H47.7V126.21233615137643H53.1V121.21233615137643H63.3V126.21233615137643H67.8V134.21233615137643H71.8V167Z" fill="#5c7582" fill-opacity="0.96"/><g clip-path="url(#skylineCliplot1)"><rect x="66.7" y="121.2" width="5.1" height="45.8" fill="#101827" fill-opacity=".12"/><path d="M57.6 125.21233615137643V164" stroke="#eaf5f2" stroke-opacity=".35" stroke-width=".7"/></g></g><g class="skyline-midrise"><title>2026-07-04: 0 activity district</title><path class="by skyline-building skyline-midrise-0" style="animation-delay:0.05s" d="M70.3 167V153.52912071637576H73.8V148.52912071637576H93.7V167Z" fill="#6b8692" fill-opacity="0.96"/><g clip-path="url(#skylineCliplot2)"><rect x="89.5" y="148.5" width="4.2" height="18.5" fill="#101827" fill-opacity=".12"/><path d="M82.0 152.52912071637576V164" stroke="#eaf5f2" stroke-opacity=".35" stroke-width=".7"/></g></g><g class="skyline-house"><title>2026-07-05: 0 activity district</title><path class="by skyline-building skyline-house-3" style="animation-delay:0.08s" d="M95.6 167V165.19244995806483L106.9 159.19244995806483L118.2 165.19244995806483V167Z" fill="#ad816a" fill-opacity="0.96"/><g clip-path="url(#skylineCliplot3)"><rect x="114.2" y="159.2" width="4.1" height="7.8" fill="#101827" fill-opacity=".12"/><path d="M106.9 163.19244995806483V164" stroke="#eaf5f2" stroke-opacity=".35" stroke-width=".7"/></g></g><g class="skyline-house"><title>2026-07-06: 0 activity district</title><path class="by skyline-building skyline-house-2" style="animation-delay:0.10s" d="M117.9 167V162.98915817359634H122.7V158.98915817359634H139.3V162.98915817359634H147.6V167Z" fill="#9f705b" fill-opacity="0.96"/><g clip-path="url(#skylineCliplot4)"><rect x="142.2" y="159.0" width="5.3" height="8.0" fill="#101827" fill-opacity=".12"/><path d="M132.8 162.98915817359634V164" stroke="#eaf5f2" stroke-opacity=".35" stroke-width=".7"/></g></g><g class="skyline-highrise"><title>2026-07-07: 7M activity district</title><path class="by skyline-building skyline-highrise-0" style="animation-delay:0.13s" d="M142.8 167V139.8223280462046H146.4V131.8223280462046H151.2V125.8223280462046H165.0V132.8223280462046H169.8V139.8223280462046H172.8V167Z" fill="#4f6f7e" fill-opacity="0.96"/><g clip-path="url(#skylineCliplot5)"><rect x="167.4" y="125.8" width="5.4" height="41.2" fill="#101827" fill-opacity=".12"/><path d="M157.8 129.8223280462046V164" stroke="#eaf5f2" stroke-opacity=".35" stroke-width=".7"/></g></g><g class="skyline-highrise"><title>2026-07-08: 113.9M activity district</title><path class="by skyline-building skyline-highrise-3" style="animation-delay:0.15s" d="M168.5 167V132.16739938431877H171.3V125.16739938431877H176.9V120.16739938431877H186.0V128.16739938431877H192.2V132.16739938431877H196.7V167Z" fill="#6e7b84" fill-opacity="0.96"/><g clip-path="url(#skylineCliplot6)"><rect x="191.6" y="120.2" width="5.1" height="46.8" fill="#101827" fill-opacity=".12"/><path d="M182.6 124.16739938431877V164" stroke="#eaf5f2" stroke-opacity=".35" stroke-width=".7"/></g></g><g class="skyline-midrise"><title>2026-07-09: 53.2M activity district</title><path class="by skyline-building skyline-midrise-0" style="animation-delay:0.18s" d="M195.4 167V139.00633267235528H198.9V134.00633267235528H218.5V167Z" fill="#6b8692" fill-opacity="0.96"/><g clip-path="url(#skylineCliplot7)"><rect x="214.3" y="134.0" width="4.1" height="33.0" fill="#101827" fill-opacity=".12"/><path d="M207.0 138.00633267235528V164" stroke="#eaf5f2" stroke-opacity=".35" stroke-width=".7"/></g></g><g class="skyline-highrise"><title>2026-07-10: 144.9M activity district</title><path class="by skyline-building skyline-highrise-4" style="animation-delay:0.20s" d="M218.7 167V130.913321939127L222.6 124.91332193912702H227.0V120.91332193912702H239.7L243.6 125.91332193912702H246.4V167Z" fill="#4a6b7a" fill-opacity="0.96"/><g clip-path="url(#skylineCliplot8)"><rect x="241.4" y="120.9" width="5.0" height="46.1" fill="#101827" fill-opacity=".12"/><path d="M232.5 124.91332193912702V164" stroke="#eaf5f2" stroke-opacity=".35" stroke-width=".7"/></g></g><g class="skyline-highrise"><title>2026-07-11: 538.4k activity district</title><path class="by skyline-building skyline-highrise-4" style="animation-delay:0.23s" d="M243.9 167V134.54028004561363L247.7 128.54028004561363H252.0V124.54028004561363H264.5L268.3 129.54028004561363H271.0V167Z" fill="#4a6b7a" fill-opacity="0.96"/><g clip-path="url(#skylineCliplot9)"><rect x="266.1" y="124.5" width="4.9" height="42.5" fill="#101827" fill-opacity=".12"/><path d="M257.4 128.54028004561363V164" stroke="#eaf5f2" stroke-opacity=".35" stroke-width=".7"/></g></g><g class="skyline-midrise"><title>2026-07-12: 26.8M activity district</title><path class="by skyline-building skyline-midrise-3" style="animation-delay:0.25s" d="M269.5 167V142.71799317330928H273.3V137.71799317330928H291.2V142.71799317330928H295.0V167Z" fill="#958b83" fill-opacity="0.96"/><g clip-path="url(#skylineCliplot10)"><rect x="290.4" y="134.7" width="4.6" height="32.3" fill="#101827" fill-opacity=".12"/><path d="M282.3 138.71799317330928V164" stroke="#eaf5f2" stroke-opacity=".35" stroke-width=".7"/></g></g><g class="skyline-midrise"><title>2026-07-13: 50.1M activity district</title><path class="by skyline-building skyline-midrise-0" style="animation-delay:0.28s" d="M294.6 167V139.40478700235258H298.4V134.40478700235258H319.9V167Z" fill="#6b8692" fill-opacity="0.96"/><g clip-path="url(#skylineCliplot11)"><rect x="315.3" y="134.4" width="4.5" height="32.6" fill="#101827" fill-opacity=".12"/><path d="M307.2 138.40478700235258V164" stroke="#eaf5f2" stroke-opacity=".35" stroke-width=".7"/></g></g><rect class="skyline-podium" x="156.1" y="157.0" width="49.3" height="10" fill="#718c89" fill-opacity=".94"/><g class="skyline-landmark"><title>2026-07-08: 113.9M activity landmark</title><path class="by skyline-building skyline-landmark-0" style="animation-delay:0.30s" d="M163.7 167V142.690065911939H167.1V137.37226783017567H171.2V129.01572798740472H190.2V137.37226783017567H194.3V142.690065911939H197.7V167Z" fill="#55788f" fill-opacity="1"/><g clip-path="url(#skylineClippeak7)"><rect x="189.6" y="129.0" width="8.2" height="38.0" fill="#101827" fill-opacity=".12"/><path d="M180.7 133.01572798740472V164" stroke="#eaf5f2" stroke-opacity=".35" stroke-width=".7"/></g></g><path class="skyline-street" d="M20 165H320V172H20Z" fill="#18232d" fill-opacity=".78"/><path d="M20 168H320" stroke="#eaf5f2" stroke-opacity=".52" stroke-dasharray="9 7" stroke-width=".7"/><path d="M44 165v-8m-2 0h4" stroke="#eaf5f2" stroke-opacity=".56" stroke-width=".8"/><circle cx="44" cy="156" r="1.1" fill="#eaf5f2" fill-opacity=".9"/><path d="M106 165v-8m-2 0h4" stroke="#eaf5f2" stroke-opacity=".56" stroke-width=".8"/><circle cx="106" cy="156" r="1.1" fill="#eaf5f2" fill-opacity=".9"/><path d="M168 165v-8m-2 0h4" stroke="#eaf5f2" stroke-opacity=".56" stroke-width=".8"/><circle cx="168" cy="156" r="1.1" fill="#eaf5f2" fill-opacity=".9"/><path d="M230 165v-8m-2 0h4" stroke="#eaf5f2" stroke-opacity=".56" stroke-width=".8"/><circle cx="230" cy="156" r="1.1" fill="#eaf5f2" fill-opacity=".9"/></g>
<text class="f" style="animation-delay:0.96s" x="20" y="190" font-size="9.5" fill="#9aa5ce">in 1.8M · out 11.8M · cache 3.91B</text>
</g>
</svg>