<svg xmlns="http://www.w3.org/2000/svg" width="495" height="220" viewBox="0 0 495 220" role="img" aria-label="Token Activity">
<title>Token Activity</title>
<style>
.f{opacity:0;animation:fu 0.70s cubic-bezier(.4,0,.2,1) forwards}
@keyframes fu{from{opacity:0;transform:translateY(7px)}to{opacity:1;transform:translateY(0)}}
.bx{transform:scaleX(0);transform-box:fill-box;transform-origin:left center;animation:gx 0.90s cubic-bezier(.2,.6,.2,1) forwards}
@keyframes gx{to{transform:scaleX(1)}}
.by{transform:scaleY(0);transform-box:fill-box;transform-origin:center bottom;animation:gy 0.80s cubic-bezier(.2,.6,.2,1) forwards}
@keyframes gy{to{transform:scaleY(1)}}
.sky-star{opacity:0;animation:twinkle 1.80s ease-in-out infinite}@keyframes twinkle{50%{opacity:.3;transform:scale(.55)}}
@media (prefers-reduced-motion:reduce){*{animation-duration:.01s!important;animation-delay:0s!important}}
</style>
<rect x="0.5" y="0.5" width="494" height="219" rx="8" fill="#1a1b27" stroke="#3b4261"/>

<g font-family="'Segoe UI',Ubuntu,Sans-Serif">
<text class="f" x="25" y="33" font-size="16" font-weight="600" fill="#70a5fd">📊 Token Activity</text>
<text class="f" style="animation-delay:0.12s" x="470" y="33" font-size="12" text-anchor="end" fill="#9aa5ce">2.55B · $1,923.13 · 30d</text>
<defs><linearGradient id="skylineSky" x1="0" y1="0" x2="0" y2="1"><stop stop-color="#1b1b4b"/><stop offset=".58" stop-color="#4d3677"/><stop offset="1" stop-color="#ec7f65"/></linearGradient><radialGradient id="skylineMoon"><stop stop-color="#fff9d4"/><stop offset="1" stop-color="#ffd88a"/></radialGradient></defs><rect x="25" y="70" width="445" height="108" rx="7" fill="url(#skylineSky)"/><circle class="sky-star" style="animation-delay:0.00s" cx="37" cy="80" r="1.3" fill="#fff3c4"/><circle class="sky-star" style="animation-delay:0.08s" cx="84" cy="99" r="0.8" fill="#fff3c4"/><circle class="sky-star" style="animation-delay:0.16s" cx="131" cy="118" r="0.8" fill="#fff3c4"/><circle class="sky-star" style="animation-delay:0.24s" cx="178" cy="88" r="1.3" fill="#fff3c4"/><circle class="sky-star" style="animation-delay:0.32s" cx="225" cy="107" r="0.8" fill="#fff3c4"/><circle class="sky-star" style="animation-delay:0.40s" cx="272" cy="126" r="0.8" fill="#fff3c4"/><circle class="sky-star" style="animation-delay:0.48s" cx="319" cy="96" r="1.3" fill="#fff3c4"/><circle class="sky-star" style="animation-delay:0.56s" cx="366" cy="115" r="0.8" fill="#fff3c4"/><circle class="sky-star" style="animation-delay:0.64s" cx="413" cy="85" r="0.8" fill="#fff3c4"/><circle class="sky-star" style="animation-delay:0.72s" cx="39" cy="104" r="1.3" fill="#fff3c4"/><circle class="sky-star" style="animation-delay:0.80s" cx="86" cy="123" r="0.8" fill="#fff3c4"/><circle class="sky-star" style="animation-delay:0.88s" cx="133" cy="93" r="0.8" fill="#fff3c4"/><circle class="sky-star" style="animation-delay:0.96s" cx="180" cy="112" r="1.3" fill="#fff3c4"/><circle class="sky-star" style="animation-delay:1.04s" cx="227" cy="82" r="0.8" fill="#fff3c4"/><circle class="sky-star" style="animation-delay:1.12s" cx="274" cy="101" r="0.8" fill="#fff3c4"/><circle class="f" style="animation-delay:0.24s" cx="443" cy="93" r="10" fill="url(#skylineMoon)"/><g><rect class="by" style="animation-delay:0.00s" x="25.6" y="144" width="13.6" height="34" rx="2.0" fill="#7aa2f7"><title>2026-06-15: 63.5M</title></rect><path d="M32.4 139v5" stroke="#fff3c4" stroke-opacity=".65"/><rect x="30.0" y="150.0" width="2.7" height="2" rx=".5" fill="#fff3c4" fill-opacity=".8"/><rect x="30.0" y="159.0" width="2.7" height="2" rx=".5" fill="#fff3c4" fill-opacity=".48"/></g><g><rect class="by" style="animation-delay:0.03s" x="40.4" y="128" width="13.6" height="50" rx="2.0" fill="#7aa2f7"><title>2026-06-16: 120.3M</title></rect><rect x="44.8" y="134.0" width="2.7" height="2" rx=".5" fill="#fff3c4" fill-opacity=".8"/><rect x="44.8" y="143.0" width="2.7" height="2" rx=".5" fill="#fff3c4" fill-opacity=".48"/><rect x="44.8" y="152.0" width="2.7" height="2" rx=".5" fill="#fff3c4" fill-opacity=".8"/><rect x="44.8" y="161.0" width="2.7" height="2" rx=".5" fill="#fff3c4" fill-opacity=".48"/></g><g><rect class="by" style="animation-delay:0.05s" x="55.3" y="141" width="13.6" height="37" rx="2.0" fill="#7aa2f7"><title>2026-06-17: 73.1M</title></rect><rect x="59.6" y="147.0" width="2.7" height="2" rx=".5" fill="#fff3c4" fill-opacity=".8"/><rect x="59.6" y="156.0" width="2.7" height="2" rx=".5" fill="#fff3c4" fill-opacity=".48"/><rect x="59.6" y="165.0" width="2.7" height="2" rx=".5" fill="#fff3c4" fill-opacity=".8"/></g><g><rect class="by" style="animation-delay:0.08s" x="70.1" y="124" width="13.6" height="54" rx="2.0" fill="#7aa2f7"><title>2026-06-18: 134.7M</title></rect><rect x="74.5" y="130.0" width="2.7" height="2" rx=".5" fill="#fff3c4" fill-opacity=".8"/><rect x="74.5" y="139.0" width="2.7" height="2" rx=".5" fill="#fff3c4" fill-opacity=".48"/><rect x="74.5" y="148.0" width="2.7" height="2" rx=".5" fill="#fff3c4" fill-opacity=".8"/><rect x="74.5" y="157.0" width="2.7" height="2" rx=".5" fill="#fff3c4" fill-opacity=".48"/></g><g><rect class="by" style="animation-delay:0.10s" x="84.9" y="83" width="13.6" height="95" rx="2.0" fill="#7aa2f7"><title>2026-06-19: 277M</title></rect><rect x="89.3" y="89.0" width="2.7" height="2" rx=".5" fill="#fff3c4" fill-opacity=".8"/><rect x="89.3" y="98.0" width="2.7" height="2" rx=".5" fill="#fff3c4" fill-opacity=".48"/><rect x="89.3" y="107.0" width="2.7" height="2" rx=".5" fill="#fff3c4" fill-opacity=".8"/><rect x="89.3" y="116.0" width="2.7" height="2" rx=".5" fill="#fff3c4" fill-opacity=".48"/><rect x="89.3" y="125.0" width="2.7" height="2" rx=".5" fill="#fff3c4" fill-opacity=".8"/><rect x="89.3" y="134.0" width="2.7" height="2" rx=".5" fill="#fff3c4" fill-opacity=".48"/><rect x="89.3" y="143.0" width="2.7" height="2" rx=".5" fill="#fff3c4" fill-opacity=".8"/><rect x="89.3" y="152.0" width="2.7" height="2" rx=".5" fill="#fff3c4" fill-opacity=".48"/><rect x="89.3" y="161.0" width="2.7" height="2" rx=".5" fill="#fff3c4" fill-opacity=".8"/></g><g><rect class="by" style="animation-delay:0.13s" x="99.8" y="138" width="13.6" height="40" rx="2.0" fill="#7aa2f7"><title>2026-06-20: 82.4M</title></rect><rect x="104.1" y="144.0" width="2.7" height="2" rx=".5" fill="#fff3c4" fill-opacity=".8"/><rect x="104.1" y="153.0" width="2.7" height="2" rx=".5" fill="#fff3c4" fill-opacity=".48"/><rect x="104.1" y="162.0" width="2.7" height="2" rx=".5" fill="#fff3c4" fill-opacity=".8"/></g><g><rect class="by" style="animation-delay:0.15s" x="114.6" y="139" width="13.6" height="39" rx="2.0" fill="#7aa2f7"><title>2026-06-21: 79.7M</title></rect><rect x="119.0" y="145.0" width="2.7" height="2" rx=".5" fill="#fff3c4" fill-opacity=".8"/><rect x="119.0" y="154.0" width="2.7" height="2" rx=".5" fill="#fff3c4" fill-opacity=".48"/><rect x="119.0" y="163.0" width="2.7" height="2" rx=".5" fill="#fff3c4" fill-opacity=".8"/></g><g><rect class="by" style="animation-delay:0.18s" x="129.4" y="120" width="13.6" height="58" rx="2.0" fill="#7aa2f7"><title>2026-06-22: 148.8M</title></rect><path d="M136.3 115v5" stroke="#fff3c4" stroke-opacity=".65"/><rect x="133.8" y="126.0" width="2.7" height="2" rx=".5" fill="#fff3c4" fill-opacity=".8"/><rect x="133.8" y="135.0" width="2.7" height="2" rx=".5" fill="#fff3c4" fill-opacity=".48"/><rect x="133.8" y="144.0" width="2.7" height="2" rx=".5" fill="#fff3c4" fill-opacity=".8"/><rect x="133.8" y="153.0" width="2.7" height="2" rx=".5" fill="#fff3c4" fill-opacity=".48"/><rect x="133.8" y="162.0" width="2.7" height="2" rx=".5" fill="#fff3c4" fill-opacity=".8"/></g><g><rect class="by" style="animation-delay:0.20s" x="144.3" y="73" width="13.6" height="105" rx="2.0" fill="#7aa2f7"><title>2026-06-23: 313M</title></rect><rect x="148.6" y="79.0" width="2.7" height="2" rx=".5" fill="#fff3c4" fill-opacity=".8"/><rect x="148.6" y="88.0" width="2.7" height="2" rx=".5" fill="#fff3c4" fill-opacity=".48"/><rect x="148.6" y="97.0" width="2.7" height="2" rx=".5" fill="#fff3c4" fill-opacity=".8"/><rect x="148.6" y="106.0" width="2.7" height="2" rx=".5" fill="#fff3c4" fill-opacity=".48"/><rect x="148.6" y="115.0" width="2.7" height="2" rx=".5" fill="#fff3c4" fill-opacity=".8"/><rect x="148.6" y="124.0" width="2.7" height="2" rx=".5" fill="#fff3c4" fill-opacity=".48"/><rect x="148.6" y="133.0" width="2.7" height="2" rx=".5" fill="#fff3c4" fill-opacity=".8"/><rect x="148.6" y="142.0" width="2.7" height="2" rx=".5" fill="#fff3c4" fill-opacity=".48"/><rect x="148.6" y="151.0" width="2.7" height="2" rx=".5" fill="#fff3c4" fill-opacity=".8"/><rect x="148.6" y="160.0" width="2.7" height="2" rx=".5" fill="#fff3c4" fill-opacity=".48"/></g><g><rect class="by" style="animation-delay:0.23s" x="159.1" y="136" width="13.6" height="42" rx="2.0" fill="#7aa2f7"><title>2026-06-24: 90.4M</title></rect><rect x="163.5" y="142.0" width="2.7" height="2" rx=".5" fill="#fff3c4" fill-opacity=".8"/><rect x="163.5" y="151.0" width="2.7" height="2" rx=".5" fill="#fff3c4" fill-opacity=".48"/><rect x="163.5" y="160.0" width="2.7" height="2" rx=".5" fill="#fff3c4" fill-opacity=".8"/></g><g><rect class="by" style="animation-delay:0.25s" x="173.9" y="134" width="13.6" height="44" rx="2.0" fill="#7aa2f7"><title>2026-06-25: 97.3M</title></rect><rect x="178.3" y="140.0" width="2.7" height="2" rx=".5" fill="#fff3c4" fill-opacity=".8"/><rect x="178.3" y="149.0" width="2.7" height="2" rx=".5" fill="#fff3c4" fill-opacity=".48"/><rect x="178.3" y="158.0" width="2.7" height="2" rx=".5" fill="#fff3c4" fill-opacity=".8"/></g><g><rect class="by" style="animation-delay:0.28s" x="188.8" y="126" width="13.6" height="52" rx="2.0" fill="#7aa2f7"><title>2026-06-26: 126.2M</title></rect><rect x="193.1" y="132.0" width="2.7" height="2" rx=".5" fill="#fff3c4" fill-opacity=".8"/><rect x="193.1" y="141.0" width="2.7" height="2" rx=".5" fill="#fff3c4" fill-opacity=".48"/><rect x="193.1" y="150.0" width="2.7" height="2" rx=".5" fill="#fff3c4" fill-opacity=".8"/><rect x="193.1" y="159.0" width="2.7" height="2" rx=".5" fill="#fff3c4" fill-opacity=".48"/></g><g><rect class="by" style="animation-delay:0.30s" x="203.6" y="169" width="13.6" height="9" rx="2.0" fill="#7aa2f7"><title>2026-06-27: 0</title></rect></g><g><rect class="by" style="animation-delay:0.33s" x="218.4" y="161" width="13.6" height="17" rx="2.0" fill="#7aa2f7"><title>2026-06-28: 2.1M</title></rect></g><g><rect class="by" style="animation-delay:0.35s" x="233.3" y="102" width="13.6" height="76" rx="2.0" fill="#7aa2f7"><title>2026-06-29: 209.9M</title></rect><path d="M240.1 97v5" stroke="#fff3c4" stroke-opacity=".65"/><rect x="237.6" y="108.0" width="2.7" height="2" rx=".5" fill="#fff3c4" fill-opacity=".8"/><rect x="237.6" y="117.0" width="2.7" height="2" rx=".5" fill="#fff3c4" fill-opacity=".48"/><rect x="237.6" y="126.0" width="2.7" height="2" rx=".5" fill="#fff3c4" fill-opacity=".8"/><rect x="237.6" y="135.0" width="2.7" height="2" rx=".5" fill="#fff3c4" fill-opacity=".48"/><rect x="237.6" y="144.0" width="2.7" height="2" rx=".5" fill="#fff3c4" fill-opacity=".8"/><rect x="237.6" y="153.0" width="2.7" height="2" rx=".5" fill="#fff3c4" fill-opacity=".48"/><rect x="237.6" y="162.0" width="2.7" height="2" rx=".5" fill="#fff3c4" fill-opacity=".8"/></g><g><rect class="by" style="animation-delay:0.38s" x="248.1" y="156" width="13.6" height="22" rx="2.0" fill="#7aa2f7"><title>2026-06-30: 20.6M</title></rect><rect x="252.5" y="162.0" width="2.7" height="2" rx=".5" fill="#fff3c4" fill-opacity=".8"/></g><g><rect class="by" style="animation-delay:0.40s" x="262.9" y="133" width="13.6" height="45" rx="2.0" fill="#7aa2f7"><title>2026-07-01: 101.7M</title></rect><rect x="267.3" y="139.0" width="2.7" height="2" rx=".5" fill="#fff3c4" fill-opacity=".8"/><rect x="267.3" y="148.0" width="2.7" height="2" rx=".5" fill="#fff3c4" fill-opacity=".48"/><rect x="267.3" y="157.0" width="2.7" height="2" rx=".5" fill="#fff3c4" fill-opacity=".8"/></g><g><rect class="by" style="animation-delay:0.43s" x="277.8" y="136" width="13.6" height="42" rx="2.0" fill="#7aa2f7"><title>2026-07-02: 92.6M</title></rect><rect x="282.1" y="142.0" width="2.7" height="2" rx=".5" fill="#fff3c4" fill-opacity=".8"/><rect x="282.1" y="151.0" width="2.7" height="2" rx=".5" fill="#fff3c4" fill-opacity=".48"/><rect x="282.1" y="160.0" width="2.7" height="2" rx=".5" fill="#fff3c4" fill-opacity=".8"/></g><g><rect class="by" style="animation-delay:0.45s" x="292.6" y="137" width="13.6" height="41" rx="2.0" fill="#7aa2f7"><title>2026-07-03: 88.4M</title></rect><rect x="297.0" y="143.0" width="2.7" height="2" rx=".5" fill="#fff3c4" fill-opacity=".8"/><rect x="297.0" y="152.0" width="2.7" height="2" rx=".5" fill="#fff3c4" fill-opacity=".48"/><rect x="297.0" y="161.0" width="2.7" height="2" rx=".5" fill="#fff3c4" fill-opacity=".8"/></g><g><rect class="by" style="animation-delay:0.48s" x="307.4" y="169" width="13.6" height="9" rx="2.0" fill="#7aa2f7"><title>2026-07-04: 0</title></rect></g><g><rect class="by" style="animation-delay:0.50s" x="322.3" y="169" width="13.6" height="9" rx="2.0" fill="#7aa2f7"><title>2026-07-05: 0</title></rect></g><g><rect class="by" style="animation-delay:0.53s" x="337.1" y="169" width="13.6" height="9" rx="2.0" fill="#7aa2f7"><title>2026-07-06: 0</title></rect></g><g><rect class="by" style="animation-delay:0.55s" x="351.9" y="160" width="13.6" height="18" rx="2.0" fill="#7aa2f7"><title>2026-07-07: 7M</title></rect></g><g><rect class="by" style="animation-delay:0.58s" x="366.8" y="130" width="13.6" height="48" rx="2.0" fill="#7aa2f7"><title>2026-07-08: 113.9M</title></rect><rect x="371.1" y="136.0" width="2.7" height="2" rx=".5" fill="#fff3c4" fill-opacity=".8"/><rect x="371.1" y="145.0" width="2.7" height="2" rx=".5" fill="#fff3c4" fill-opacity=".48"/><rect x="371.1" y="154.0" width="2.7" height="2" rx=".5" fill="#fff3c4" fill-opacity=".8"/><rect x="371.1" y="163.0" width="2.7" height="2" rx=".5" fill="#fff3c4" fill-opacity=".48"/></g><g><rect class="by" style="animation-delay:0.60s" x="381.6" y="147" width="13.6" height="31" rx="2.0" fill="#7aa2f7"><title>2026-07-09: 53.2M</title></rect><rect x="386.0" y="153.0" width="2.7" height="2" rx=".5" fill="#fff3c4" fill-opacity=".8"/><rect x="386.0" y="162.0" width="2.7" height="2" rx=".5" fill="#fff3c4" fill-opacity=".48"/></g><g><rect class="by" style="animation-delay:0.63s" x="396.4" y="121" width="13.6" height="57" rx="2.0" fill="#7aa2f7"><title>2026-07-10: 144.9M</title></rect><rect x="400.8" y="127.0" width="2.7" height="2" rx=".5" fill="#fff3c4" fill-opacity=".8"/><rect x="400.8" y="136.0" width="2.7" height="2" rx=".5" fill="#fff3c4" fill-opacity=".48"/><rect x="400.8" y="145.0" width="2.7" height="2" rx=".5" fill="#fff3c4" fill-opacity=".8"/><rect x="400.8" y="154.0" width="2.7" height="2" rx=".5" fill="#fff3c4" fill-opacity=".48"/><rect x="400.8" y="163.0" width="2.7" height="2" rx=".5" fill="#fff3c4" fill-opacity=".8"/></g><g><rect class="by" style="animation-delay:0.65s" x="411.3" y="162" width="13.6" height="16" rx="2.0" fill="#7aa2f7"><title>2026-07-11: 538.4k</title></rect></g><g><rect class="by" style="animation-delay:0.68s" x="426.1" y="154" width="13.6" height="24" rx="2.0" fill="#7aa2f7"><title>2026-07-12: 26.8M</title></rect><rect x="430.5" y="160.0" width="2.7" height="2" rx=".5" fill="#fff3c4" fill-opacity=".8"/></g><g><rect class="by" style="animation-delay:0.70s" x="440.9" y="148" width="13.6" height="30" rx="2.0" fill="#7aa2f7"><title>2026-07-13: 50.1M</title></rect><path d="M447.8 143v5" stroke="#fff3c4" stroke-opacity=".65"/><rect x="445.3" y="154.0" width="2.7" height="2" rx=".5" fill="#fff3c4" fill-opacity=".8"/><rect x="445.3" y="163.0" width="2.7" height="2" rx=".5" fill="#fff3c4" fill-opacity=".48"/></g><g><rect class="by" style="animation-delay:0.73s" x="455.8" y="153" width="13.6" height="25" rx="2.0" fill="#bb9af7"><title>2026-07-14: 31.3M</title></rect><rect x="460.1" y="159.0" width="2.7" height="2" rx=".5" fill="#fff3c4" fill-opacity=".8"/></g><path d="M25 178.5H470" stroke="#ffd6a1" stroke-opacity=".72"/>
<text x="25" y="196" font-size="10" fill="#9aa5ce">2026-06-15</text>
<text x="470" y="196" font-size="10" text-anchor="end" fill="#9aa5ce">2026-07-14</text>
</g>
</svg>