<svg xmlns="http://www.w3.org/2000/svg" width="495" height="220" viewBox="0 0 495 220" role="img" aria-label="Token Activity">
<title>Token Activity</title>
<style>
.f{opacity:0;animation:fu 0.70s cubic-bezier(.4,0,.2,1) forwards}
@keyframes fu{from{opacity:0;transform:translateY(7px)}to{opacity:1;transform:translateY(0)}}
.bx{transform:scaleX(0);transform-box:fill-box;transform-origin:left center;animation:gx 0.90s cubic-bezier(.2,.6,.2,1) forwards}
@keyframes gx{to{transform:scaleX(1)}}
.by{transform:scaleY(0);transform-box:fill-box;transform-origin:center bottom;animation:gy 0.80s cubic-bezier(.2,.6,.2,1) forwards}
@keyframes gy{to{transform:scaleY(1)}}
.sky-star{opacity:0;animation:twinkle 1.80s ease-in-out infinite}@keyframes twinkle{50%{opacity:.3;transform:scale(.55)}}
@media (prefers-reduced-motion:reduce){*{animation-duration:.01s!important;animation-delay:0s!important}}
</style>
<rect x="0.5" y="0.5" width="494" height="219" rx="8" fill="#1a1b27" stroke="#3b4261"/>

<g font-family="'Segoe UI',Ubuntu,Sans-Serif">
<text class="f" x="25" y="33" font-size="16" font-weight="600" fill="#70a5fd">📊 Token Activity</text>
<text class="f" style="animation-delay:0.12s" x="470" y="33" font-size="12" text-anchor="end" fill="#9aa5ce">2.55B · $1,923.13 · 30d</text>
<defs><linearGradient id="skylineSky" x1="0" y1="0" x2="0" y2="1"><stop stop-color="#69bce0"/><stop offset=".58" stop-color="#b8e4eb"/><stop offset="1" stop-color="#f4d7a8"/></linearGradient><radialGradient id="skylineLuminary"><stop stop-color="#fffde1"/><stop offset="1" stop-color="#fff1a4"/></radialGradient></defs><rect data-sky="day" x="25" y="70" width="445" height="108" rx="7" fill="url(#skylineSky)"/><circle class="f skyline-luminary" style="animation-delay:0.24s" cx="443" cy="93" r="10" fill="url(#skylineLuminary)"/><g class="skyline-midrise"><title>2026-06-15: 63.5M (midrise)</title><path class="by skyline-building skyline-midrise-3" style="animation-delay:0.00s" d="M25.6 178V150L29.0 142H35.8L39.2 150V178Z" fill="#8792aa"/><rect class="skyline-window" x="27.8" y="155.0" width="1.9" height="2.4" rx=".5" fill="#eaf5f2" fill-opacity=".26"/><rect class="skyline-window" x="32.4" y="155.0" width="1.9" height="2.4" rx=".5" fill="#eaf5f2" fill-opacity=".86"/><rect class="skyline-window" x="37.1" y="155.0" width="1.9" height="2.4" rx=".5" fill="#eaf5f2" fill-opacity=".86"/><rect class="skyline-window" x="27.8" y="163.5" width="1.9" height="2.4" rx=".5" fill="#eaf5f2" fill-opacity=".86"/><rect class="skyline-window" x="32.4" y="163.5" width="1.9" height="2.4" rx=".5" fill="#eaf5f2" fill-opacity=".86"/><rect class="skyline-window" x="37.1" y="163.5" width="1.9" height="2.4" rx=".5" fill="#eaf5f2" fill-opacity=".86"/></g><g class="skyline-highrise"><title>2026-06-16: 120.3M (highrise)</title><path class="by skyline-building skyline-highrise-2" style="animation-delay:0.03s" d="M40.4 178V124H44.3V114H50.0V124H54.1V178Z" fill="#548f9c"/><path d="M47.3 107v7" stroke="#eaf5f2" stroke-opacity=".72"/><rect class="skyline-window" x="42.6" y="127.0" width="1.9" height="2.4" rx=".5" fill="#eaf5f2" fill-opacity=".86"/><rect class="skyline-window" x="47.3" y="127.0" width="1.9" height="2.4" rx=".5" fill="#eaf5f2" fill-opacity=".26"/><rect class="skyline-window" x="51.9" y="127.0" width="1.9" height="2.4" rx=".5" fill="#eaf5f2" fill-opacity=".86"/><rect class="skyline-window" x="42.6" y="135.5" width="1.9" height="2.4" rx=".5" fill="#eaf5f2" fill-opacity=".86"/><rect class="skyline-window" x="47.3" y="135.5" width="1.9" height="2.4" rx=".5" fill="#eaf5f2" fill-opacity=".86"/><rect class="skyline-window" x="51.9" y="135.5" width="1.9" height="2.4" rx=".5" fill="#eaf5f2" fill-opacity=".86"/><rect class="skyline-window" x="42.6" y="144.0" width="1.9" height="2.4" rx=".5" fill="#eaf5f2" fill-opacity=".86"/><rect class="skyline-window" x="47.3" y="144.0" width="1.9" height="2.4" rx=".5" fill="#eaf5f2" fill-opacity=".26"/><rect class="skyline-window" x="51.9" y="144.0" width="1.9" height="2.4" rx=".5" fill="#eaf5f2" fill-opacity=".86"/><rect class="skyline-window" x="42.6" y="152.5" width="1.9" height="2.4" rx=".5" fill="#eaf5f2" fill-opacity=".86"/><rect class="skyline-window" x="47.3" y="152.5" width="1.9" height="2.4" rx=".5" fill="#eaf5f2" fill-opacity=".86"/><rect class="skyline-window" x="51.9" y="152.5" width="1.9" height="2.4" rx=".5" fill="#eaf5f2" fill-opacity=".86"/><rect class="skyline-window" x="42.6" y="161.0" width="1.9" height="2.4" rx=".5" fill="#eaf5f2" fill-opacity=".86"/><rect class="skyline-window" x="47.3" y="161.0" width="1.9" height="2.4" rx=".5" fill="#eaf5f2" fill-opacity=".26"/><rect class="skyline-window" x="51.9" y="161.0" width="1.9" height="2.4" rx=".5" fill="#eaf5f2" fill-opacity=".86"/></g><g class="skyline-midrise"><title>2026-06-17: 73.1M (midrise)</title><path class="by skyline-building skyline-midrise-0" style="animation-delay:0.05s" d="M55.3 178V146H57.7V140H68.9V178Z" fill="#6f9294"/><rect class="skyline-window" x="57.4" y="153.0" width="1.9" height="2.4" rx=".5" fill="#eaf5f2" fill-opacity=".86"/><rect class="skyline-window" x="62.1" y="153.0" width="1.9" height="2.4" rx=".5" fill="#eaf5f2" fill-opacity=".86"/><rect class="skyline-window" x="66.7" y="153.0" width="1.9" height="2.4" rx=".5" fill="#eaf5f2" fill-opacity=".26"/><rect class="skyline-window" x="57.4" y="161.5" width="1.9" height="2.4" rx=".5" fill="#eaf5f2" fill-opacity=".86"/><rect class="skyline-window" x="62.1" y="161.5" width="1.9" height="2.4" rx=".5" fill="#eaf5f2" fill-opacity=".86"/><rect class="skyline-window" x="66.7" y="161.5" width="1.9" height="2.4" rx=".5" fill="#eaf5f2" fill-opacity=".86"/></g><g class="skyline-highrise"><title>2026-06-18: 134.7M (highrise)</title><path class="by skyline-building skyline-highrise-0" style="animation-delay:0.08s" d="M70.1 178V126H72.4V116H74.5V111H79.9V118H83.7V178Z" fill="#597e98"/><path d="M76.9 104v7" stroke="#eaf5f2" stroke-opacity=".72"/><rect class="skyline-window" x="72.3" y="124.0" width="1.9" height="2.4" rx=".5" fill="#eaf5f2" fill-opacity=".86"/><rect class="skyline-window" x="76.9" y="124.0" width="1.9" height="2.4" rx=".5" fill="#eaf5f2" fill-opacity=".86"/><rect class="skyline-window" x="81.6" y="124.0" width="1.9" height="2.4" rx=".5" fill="#eaf5f2" fill-opacity=".86"/><rect class="skyline-window" x="72.3" y="132.5" width="1.9" height="2.4" rx=".5" fill="#eaf5f2" fill-opacity=".26"/><rect class="skyline-window" x="76.9" y="132.5" width="1.9" height="2.4" rx=".5" fill="#eaf5f2" fill-opacity=".86"/><rect class="skyline-window" x="81.6" y="132.5" width="1.9" height="2.4" rx=".5" fill="#eaf5f2" fill-opacity=".86"/><rect class="skyline-window" x="72.3" y="141.0" width="1.9" height="2.4" rx=".5" fill="#eaf5f2" fill-opacity=".86"/><rect class="skyline-window" x="76.9" y="141.0" width="1.9" height="2.4" rx=".5" fill="#eaf5f2" fill-opacity=".86"/><rect class="skyline-window" x="81.6" y="141.0" width="1.9" height="2.4" rx=".5" fill="#eaf5f2" fill-opacity=".86"/><rect class="skyline-window" x="72.3" y="149.5" width="1.9" height="2.4" rx=".5" fill="#eaf5f2" fill-opacity=".26"/><rect class="skyline-window" x="76.9" y="149.5" width="1.9" height="2.4" rx=".5" fill="#eaf5f2" fill-opacity=".86"/><rect class="skyline-window" x="81.6" y="149.5" width="1.9" height="2.4" rx=".5" fill="#eaf5f2" fill-opacity=".86"/><rect class="skyline-window" x="72.3" y="158.0" width="1.9" height="2.4" rx=".5" fill="#eaf5f2" fill-opacity=".86"/><rect class="skyline-window" x="76.9" y="158.0" width="1.9" height="2.4" rx=".5" fill="#eaf5f2" fill-opacity=".86"/><rect class="skyline-window" x="81.6" y="158.0" width="1.9" height="2.4" rx=".5" fill="#eaf5f2" fill-opacity=".86"/></g><g class="skyline-landmark"><title>2026-06-19: 277M (landmark)</title><path class="by skyline-building skyline-landmark-0" style="animation-delay:0.10s" d="M84.9 178V101L87.4 87L90.4 77H93.4L96.4 90V178Z" fill="#707bb0"/><path d="M91.8 64v13" stroke="#eaf5f2" stroke-opacity=".8" stroke-width="1.2"/><rect class="skyline-window" x="87.1" y="90.0" width="1.9" height="2.4" rx=".5" fill="#eaf5f2" fill-opacity=".86"/><rect class="skyline-window" x="91.8" y="90.0" width="1.9" height="2.4" rx=".5" fill="#eaf5f2" fill-opacity=".86"/><rect class="skyline-window" x="96.4" y="90.0" width="1.9" height="2.4" rx=".5" fill="#eaf5f2" fill-opacity=".86"/><rect class="skyline-window" x="87.1" y="98.5" width="1.9" height="2.4" rx=".5" fill="#eaf5f2" fill-opacity=".86"/><rect class="skyline-window" x="91.8" y="98.5" width="1.9" height="2.4" rx=".5" fill="#eaf5f2" fill-opacity=".26"/><rect class="skyline-window" x="96.4" y="98.5" width="1.9" height="2.4" rx=".5" fill="#eaf5f2" fill-opacity=".86"/><rect class="skyline-window" x="87.1" y="107.0" width="1.9" height="2.4" rx=".5" fill="#eaf5f2" fill-opacity=".86"/><rect class="skyline-window" x="91.8" y="107.0" width="1.9" height="2.4" rx=".5" fill="#eaf5f2" fill-opacity=".86"/><rect class="skyline-window" x="96.4" y="107.0" width="1.9" height="2.4" rx=".5" fill="#eaf5f2" fill-opacity=".86"/><rect class="skyline-window" x="87.1" y="115.5" width="1.9" height="2.4" rx=".5" fill="#eaf5f2" fill-opacity=".86"/><rect class="skyline-window" x="91.8" y="115.5" width="1.9" height="2.4" rx=".5" fill="#eaf5f2" fill-opacity=".26"/><rect class="skyline-window" x="96.4" y="115.5" width="1.9" height="2.4" rx=".5" fill="#eaf5f2" fill-opacity=".86"/><rect class="skyline-window" x="87.1" y="124.0" width="1.9" height="2.4" rx=".5" fill="#eaf5f2" fill-opacity=".86"/><rect class="skyline-window" x="91.8" y="124.0" width="1.9" height="2.4" rx=".5" fill="#eaf5f2" fill-opacity=".86"/><rect class="skyline-window" x="96.4" y="124.0" width="1.9" height="2.4" rx=".5" fill="#eaf5f2" fill-opacity=".86"/><rect class="skyline-window" x="87.1" y="132.5" width="1.9" height="2.4" rx=".5" fill="#eaf5f2" fill-opacity=".86"/><rect class="skyline-window" x="91.8" y="132.5" width="1.9" height="2.4" rx=".5" fill="#eaf5f2" fill-opacity=".26"/><rect class="skyline-window" x="96.4" y="132.5" width="1.9" height="2.4" rx=".5" fill="#eaf5f2" fill-opacity=".86"/><rect class="skyline-window" x="87.1" y="141.0" width="1.9" height="2.4" rx=".5" fill="#eaf5f2" fill-opacity=".86"/><rect class="skyline-window" x="91.8" y="141.0" width="1.9" height="2.4" rx=".5" fill="#eaf5f2" fill-opacity=".86"/><rect class="skyline-window" x="96.4" y="141.0" width="1.9" height="2.4" rx=".5" fill="#eaf5f2" fill-opacity=".86"/><rect class="skyline-window" x="87.1" y="149.5" width="1.9" height="2.4" rx=".5" fill="#eaf5f2" fill-opacity=".86"/><rect class="skyline-window" x="91.8" y="149.5" width="1.9" height="2.4" rx=".5" fill="#eaf5f2" fill-opacity=".26"/><rect class="skyline-window" x="96.4" y="149.5" width="1.9" height="2.4" rx=".5" fill="#eaf5f2" fill-opacity=".86"/><rect class="skyline-window" x="87.1" y="158.0" width="1.9" height="2.4" rx=".5" fill="#eaf5f2" fill-opacity=".86"/><rect class="skyline-window" x="91.8" y="158.0" width="1.9" height="2.4" rx=".5" fill="#eaf5f2" fill-opacity=".86"/><rect class="skyline-window" x="96.4" y="158.0" width="1.9" height="2.4" rx=".5" fill="#eaf5f2" fill-opacity=".86"/></g><g class="skyline-midrise"><title>2026-06-20: 82.4M (midrise)</title><path class="by skyline-building skyline-midrise-0" style="animation-delay:0.13s" d="M99.8 178V145H102.2V139H113.4V178Z" fill="#6f9294"/><rect class="skyline-window" x="101.9" y="152.0" width="1.9" height="2.4" rx=".5" fill="#eaf5f2" fill-opacity=".86"/><rect class="skyline-window" x="106.6" y="152.0" width="1.9" height="2.4" rx=".5" fill="#eaf5f2" fill-opacity=".86"/><rect class="skyline-window" x="111.2" y="152.0" width="1.9" height="2.4" rx=".5" fill="#eaf5f2" fill-opacity=".86"/><rect class="skyline-window" x="101.9" y="160.5" width="1.9" height="2.4" rx=".5" fill="#eaf5f2" fill-opacity=".86"/><rect class="skyline-window" x="106.6" y="160.5" width="1.9" height="2.4" rx=".5" fill="#eaf5f2" fill-opacity=".86"/><rect class="skyline-window" x="111.2" y="160.5" width="1.9" height="2.4" rx=".5" fill="#eaf5f2" fill-opacity=".26"/></g><g class="skyline-midrise"><title>2026-06-21: 79.7M (midrise)</title><path class="by skyline-building skyline-midrise-2" style="animation-delay:0.15s" d="M114.6 178V145Q121.4 135 128.2 145V178Z" fill="#6a9b8b"/><rect class="skyline-window" x="116.8" y="152.0" width="1.9" height="2.4" rx=".5" fill="#eaf5f2" fill-opacity=".26"/><rect class="skyline-window" x="121.4" y="152.0" width="1.9" height="2.4" rx=".5" fill="#eaf5f2" fill-opacity=".86"/><rect class="skyline-window" x="126.1" y="152.0" width="1.9" height="2.4" rx=".5" fill="#eaf5f2" fill-opacity=".86"/><rect class="skyline-window" x="116.8" y="160.5" width="1.9" height="2.4" rx=".5" fill="#eaf5f2" fill-opacity=".86"/><rect class="skyline-window" x="121.4" y="160.5" width="1.9" height="2.4" rx=".5" fill="#eaf5f2" fill-opacity=".86"/><rect class="skyline-window" x="126.1" y="160.5" width="1.9" height="2.4" rx=".5" fill="#eaf5f2" fill-opacity=".86"/></g><g class="skyline-highrise"><title>2026-06-22: 148.8M (highrise)</title><path class="by skyline-building skyline-highrise-4" style="animation-delay:0.18s" d="M129.4 178V120H132.2V111H140.3V120H143.1V178Z" fill="#517f91"/><path d="M136.3 101v7" stroke="#eaf5f2" stroke-opacity=".72"/><rect class="skyline-window" x="131.6" y="121.0" width="1.9" height="2.4" rx=".5" fill="#eaf5f2" fill-opacity=".86"/><rect class="skyline-window" x="136.3" y="121.0" width="1.9" height="2.4" rx=".5" fill="#eaf5f2" fill-opacity=".26"/><rect class="skyline-window" x="140.9" y="121.0" width="1.9" height="2.4" rx=".5" fill="#eaf5f2" fill-opacity=".86"/><rect class="skyline-window" x="131.6" y="129.5" width="1.9" height="2.4" rx=".5" fill="#eaf5f2" fill-opacity=".86"/><rect class="skyline-window" x="136.3" y="129.5" width="1.9" height="2.4" rx=".5" fill="#eaf5f2" fill-opacity=".86"/><rect class="skyline-window" x="140.9" y="129.5" width="1.9" height="2.4" rx=".5" fill="#eaf5f2" fill-opacity=".86"/><rect class="skyline-window" x="131.6" y="138.0" width="1.9" height="2.4" rx=".5" fill="#eaf5f2" fill-opacity=".86"/><rect class="skyline-window" x="136.3" y="138.0" width="1.9" height="2.4" rx=".5" fill="#eaf5f2" fill-opacity=".26"/><rect class="skyline-window" x="140.9" y="138.0" width="1.9" height="2.4" rx=".5" fill="#eaf5f2" fill-opacity=".86"/><rect class="skyline-window" x="131.6" y="146.5" width="1.9" height="2.4" rx=".5" fill="#eaf5f2" fill-opacity=".86"/><rect class="skyline-window" x="136.3" y="146.5" width="1.9" height="2.4" rx=".5" fill="#eaf5f2" fill-opacity=".86"/><rect class="skyline-window" x="140.9" y="146.5" width="1.9" height="2.4" rx=".5" fill="#eaf5f2" fill-opacity=".86"/><rect class="skyline-window" x="131.6" y="155.0" width="1.9" height="2.4" rx=".5" fill="#eaf5f2" fill-opacity=".86"/><rect class="skyline-window" x="136.3" y="155.0" width="1.9" height="2.4" rx=".5" fill="#eaf5f2" fill-opacity=".26"/><rect class="skyline-window" x="140.9" y="155.0" width="1.9" height="2.4" rx=".5" fill="#eaf5f2" fill-opacity=".86"/><rect class="skyline-window" x="131.6" y="163.5" width="1.9" height="2.4" rx=".5" fill="#eaf5f2" fill-opacity=".86"/><rect class="skyline-window" x="136.3" y="163.5" width="1.9" height="2.4" rx=".5" fill="#eaf5f2" fill-opacity=".86"/><rect class="skyline-window" x="140.9" y="163.5" width="1.9" height="2.4" rx=".5" fill="#eaf5f2" fill-opacity=".86"/></g><g class="skyline-landmark"><title>2026-06-23: 313M (landmark)</title><path class="by skyline-building skyline-landmark-1" style="animation-delay:0.20s" d="M144.3 178V102.32000000000001L147.3 86.32000000000001L151.1 74.32000000000001L154.9 92.32000000000001V178Z" fill="#587fae"/><path d="M151.1 61.32000000000001v13" stroke="#eaf5f2" stroke-opacity=".8" stroke-width="1.2"/><rect class="skyline-window" x="146.4" y="87.3" width="1.9" height="2.4" rx=".5" fill="#eaf5f2" fill-opacity=".86"/><rect class="skyline-window" x="151.1" y="87.3" width="1.9" height="2.4" rx=".5" fill="#eaf5f2" fill-opacity=".86"/><rect class="skyline-window" x="155.7" y="87.3" width="1.9" height="2.4" rx=".5" fill="#eaf5f2" fill-opacity=".26"/><rect class="skyline-window" x="146.4" y="95.8" width="1.9" height="2.4" rx=".5" fill="#eaf5f2" fill-opacity=".86"/><rect class="skyline-window" x="151.1" y="95.8" width="1.9" height="2.4" rx=".5" fill="#eaf5f2" fill-opacity=".86"/><rect class="skyline-window" x="155.7" y="95.8" width="1.9" height="2.4" rx=".5" fill="#eaf5f2" fill-opacity=".86"/><rect class="skyline-window" x="146.4" y="104.3" width="1.9" height="2.4" rx=".5" fill="#eaf5f2" fill-opacity=".86"/><rect class="skyline-window" x="151.1" y="104.3" width="1.9" height="2.4" rx=".5" fill="#eaf5f2" fill-opacity=".86"/><rect class="skyline-window" x="155.7" y="104.3" width="1.9" height="2.4" rx=".5" fill="#eaf5f2" fill-opacity=".26"/><rect class="skyline-window" x="146.4" y="112.8" width="1.9" height="2.4" rx=".5" fill="#eaf5f2" fill-opacity=".86"/><rect class="skyline-window" x="151.1" y="112.8" width="1.9" height="2.4" rx=".5" fill="#eaf5f2" fill-opacity=".86"/><rect class="skyline-window" x="155.7" y="112.8" width="1.9" height="2.4" rx=".5" fill="#eaf5f2" fill-opacity=".86"/><rect class="skyline-window" x="146.4" y="121.3" width="1.9" height="2.4" rx=".5" fill="#eaf5f2" fill-opacity=".86"/><rect class="skyline-window" x="151.1" y="121.3" width="1.9" height="2.4" rx=".5" fill="#eaf5f2" fill-opacity=".86"/><rect class="skyline-window" x="155.7" y="121.3" width="1.9" height="2.4" rx=".5" fill="#eaf5f2" fill-opacity=".26"/><rect class="skyline-window" x="146.4" y="129.8" width="1.9" height="2.4" rx=".5" fill="#eaf5f2" fill-opacity=".86"/><rect class="skyline-window" x="151.1" y="129.8" width="1.9" height="2.4" rx=".5" fill="#eaf5f2" fill-opacity=".86"/><rect class="skyline-window" x="155.7" y="129.8" width="1.9" height="2.4" rx=".5" fill="#eaf5f2" fill-opacity=".86"/><rect class="skyline-window" x="146.4" y="138.3" width="1.9" height="2.4" rx=".5" fill="#eaf5f2" fill-opacity=".86"/><rect class="skyline-window" x="151.1" y="138.3" width="1.9" height="2.4" rx=".5" fill="#eaf5f2" fill-opacity=".86"/><rect class="skyline-window" x="155.7" y="138.3" width="1.9" height="2.4" rx=".5" fill="#eaf5f2" fill-opacity=".26"/><rect class="skyline-window" x="146.4" y="146.8" width="1.9" height="2.4" rx=".5" fill="#eaf5f2" fill-opacity=".86"/><rect class="skyline-window" x="151.1" y="146.8" width="1.9" height="2.4" rx=".5" fill="#eaf5f2" fill-opacity=".86"/><rect class="skyline-window" x="155.7" y="146.8" width="1.9" height="2.4" rx=".5" fill="#eaf5f2" fill-opacity=".86"/><rect class="skyline-window" x="146.4" y="155.3" width="1.9" height="2.4" rx=".5" fill="#eaf5f2" fill-opacity=".86"/><rect class="skyline-window" x="151.1" y="155.3" width="1.9" height="2.4" rx=".5" fill="#eaf5f2" fill-opacity=".86"/><rect class="skyline-window" x="155.7" y="155.3" width="1.9" height="2.4" rx=".5" fill="#eaf5f2" fill-opacity=".26"/><rect class="skyline-window" x="146.4" y="163.8" width="1.9" height="2.4" rx=".5" fill="#eaf5f2" fill-opacity=".86"/><rect class="skyline-window" x="151.1" y="163.8" width="1.9" height="2.4" rx=".5" fill="#eaf5f2" fill-opacity=".86"/><rect class="skyline-window" x="155.7" y="163.8" width="1.9" height="2.4" rx=".5" fill="#eaf5f2" fill-opacity=".86"/></g><g class="skyline-midrise"><title>2026-06-24: 90.4M (midrise)</title><path class="by skyline-building skyline-midrise-3" style="animation-delay:0.23s" d="M159.1 178V145L162.5 137H169.3L172.7 145V178Z" fill="#8792aa"/><rect class="skyline-window" x="161.3" y="150.0" width="1.9" height="2.4" rx=".5" fill="#eaf5f2" fill-opacity=".86"/><rect class="skyline-window" x="165.9" y="150.0" width="1.9" height="2.4" rx=".5" fill="#eaf5f2" fill-opacity=".86"/><rect class="skyline-window" x="170.6" y="150.0" width="1.9" height="2.4" rx=".5" fill="#eaf5f2" fill-opacity=".86"/><rect class="skyline-window" x="161.3" y="158.5" width="1.9" height="2.4" rx=".5" fill="#eaf5f2" fill-opacity=".26"/><rect class="skyline-window" x="165.9" y="158.5" width="1.9" height="2.4" rx=".5" fill="#eaf5f2" fill-opacity=".86"/><rect class="skyline-window" x="170.6" y="158.5" width="1.9" height="2.4" rx=".5" fill="#eaf5f2" fill-opacity=".86"/></g><g class="skyline-midrise"><title>2026-06-25: 97.3M (midrise)</title><path class="by skyline-building skyline-midrise-1" style="animation-delay:0.25s" d="M173.9 178V146H177.2V139H183.7V136H187.6V178Z" fill="#7e91a6"/><rect class="skyline-window" x="176.1" y="149.0" width="1.9" height="2.4" rx=".5" fill="#eaf5f2" fill-opacity=".86"/><rect class="skyline-window" x="180.8" y="149.0" width="1.9" height="2.4" rx=".5" fill="#eaf5f2" fill-opacity=".86"/><rect class="skyline-window" x="185.4" y="149.0" width="1.9" height="2.4" rx=".5" fill="#eaf5f2" fill-opacity=".86"/><rect class="skyline-window" x="176.1" y="157.5" width="1.9" height="2.4" rx=".5" fill="#eaf5f2" fill-opacity=".86"/><rect class="skyline-window" x="180.8" y="157.5" width="1.9" height="2.4" rx=".5" fill="#eaf5f2" fill-opacity=".26"/><rect class="skyline-window" x="185.4" y="157.5" width="1.9" height="2.4" rx=".5" fill="#eaf5f2" fill-opacity=".86"/></g><g class="skyline-highrise"><title>2026-06-26: 126.2M (highrise)</title><path class="by skyline-building skyline-highrise-3" style="animation-delay:0.28s" d="M188.8 178V121Q195.6 106 202.4 121V178Z" fill="#7c769b"/><path d="M195.6 106v7" stroke="#eaf5f2" stroke-opacity=".72"/><rect class="skyline-window" x="190.9" y="126.0" width="1.9" height="2.4" rx=".5" fill="#eaf5f2" fill-opacity=".86"/><rect class="skyline-window" x="195.6" y="126.0" width="1.9" height="2.4" rx=".5" fill="#eaf5f2" fill-opacity=".86"/><rect class="skyline-window" x="200.2" y="126.0" width="1.9" height="2.4" rx=".5" fill="#eaf5f2" fill-opacity=".86"/><rect class="skyline-window" x="190.9" y="134.5" width="1.9" height="2.4" rx=".5" fill="#eaf5f2" fill-opacity=".86"/><rect class="skyline-window" x="195.6" y="134.5" width="1.9" height="2.4" rx=".5" fill="#eaf5f2" fill-opacity=".86"/><rect class="skyline-window" x="200.2" y="134.5" width="1.9" height="2.4" rx=".5" fill="#eaf5f2" fill-opacity=".26"/><rect class="skyline-window" x="190.9" y="143.0" width="1.9" height="2.4" rx=".5" fill="#eaf5f2" fill-opacity=".86"/><rect class="skyline-window" x="195.6" y="143.0" width="1.9" height="2.4" rx=".5" fill="#eaf5f2" fill-opacity=".86"/><rect class="skyline-window" x="200.2" y="143.0" width="1.9" height="2.4" rx=".5" fill="#eaf5f2" fill-opacity=".86"/><rect class="skyline-window" x="190.9" y="151.5" width="1.9" height="2.4" rx=".5" fill="#eaf5f2" fill-opacity=".86"/><rect class="skyline-window" x="195.6" y="151.5" width="1.9" height="2.4" rx=".5" fill="#eaf5f2" fill-opacity=".86"/><rect class="skyline-window" x="200.2" y="151.5" width="1.9" height="2.4" rx=".5" fill="#eaf5f2" fill-opacity=".26"/><rect class="skyline-window" x="190.9" y="160.0" width="1.9" height="2.4" rx=".5" fill="#eaf5f2" fill-opacity=".86"/><rect class="skyline-window" x="195.6" y="160.0" width="1.9" height="2.4" rx=".5" fill="#eaf5f2" fill-opacity=".86"/><rect class="skyline-window" x="200.2" y="160.0" width="1.9" height="2.4" rx=".5" fill="#eaf5f2" fill-opacity=".86"/></g><g class="skyline-field"><title>2026-06-27: no token activity</title><path d="M203.6 178V173.14q6.8 -3 13.6 0V178Z" fill="#5d9154"/><path d="M206.9 174.14l1.3 -4m4.1 4l-1.1 -3" stroke="#d6e891" stroke-width=".8" stroke-linecap="round"/></g><g class="skyline-house"><title>2026-06-28: 2.1M (house)</title><path class="by skyline-building skyline-house-4" style="animation-delay:0.33s" d="M218.4 178V174L225.3 167L232.1 174V178Z" fill="#c8775c"/><rect x="226.1" y="173.0" width="1.6" height="3.0" fill="#26384a"/><rect class="skyline-window" x="220.6" y="171.6" width="1.9" height="2.4" rx=".5" fill="#eaf5f2" fill-opacity=".86"/></g><g class="skyline-highrise"><title>2026-06-29: 209.9M (highrise)</title><path class="by skyline-building skyline-highrise-2" style="animation-delay:0.35s" d="M233.3 178V104H237.1V94H242.8V104H246.9V178Z" fill="#548f9c"/><path d="M240.1 87v7" stroke="#eaf5f2" stroke-opacity=".72"/><rect class="skyline-window" x="235.4" y="107.0" width="1.9" height="2.4" rx=".5" fill="#eaf5f2" fill-opacity=".86"/><rect class="skyline-window" x="240.1" y="107.0" width="1.9" height="2.4" rx=".5" fill="#eaf5f2" fill-opacity=".86"/><rect class="skyline-window" x="244.7" y="107.0" width="1.9" height="2.4" rx=".5" fill="#eaf5f2" fill-opacity=".26"/><rect class="skyline-window" x="235.4" y="115.5" width="1.9" height="2.4" rx=".5" fill="#eaf5f2" fill-opacity=".86"/><rect class="skyline-window" x="240.1" y="115.5" width="1.9" height="2.4" rx=".5" fill="#eaf5f2" fill-opacity=".86"/><rect class="skyline-window" x="244.7" y="115.5" width="1.9" height="2.4" rx=".5" fill="#eaf5f2" fill-opacity=".86"/><rect class="skyline-window" x="235.4" y="124.0" width="1.9" height="2.4" rx=".5" fill="#eaf5f2" fill-opacity=".86"/><rect class="skyline-window" x="240.1" y="124.0" width="1.9" height="2.4" rx=".5" fill="#eaf5f2" fill-opacity=".86"/><rect class="skyline-window" x="244.7" y="124.0" width="1.9" height="2.4" rx=".5" fill="#eaf5f2" fill-opacity=".26"/><rect class="skyline-window" x="235.4" y="132.5" width="1.9" height="2.4" rx=".5" fill="#eaf5f2" fill-opacity=".86"/><rect class="skyline-window" x="240.1" y="132.5" width="1.9" height="2.4" rx=".5" fill="#eaf5f2" fill-opacity=".86"/><rect class="skyline-window" x="244.7" y="132.5" width="1.9" height="2.4" rx=".5" fill="#eaf5f2" fill-opacity=".86"/><rect class="skyline-window" x="235.4" y="141.0" width="1.9" height="2.4" rx=".5" fill="#eaf5f2" fill-opacity=".86"/><rect class="skyline-window" x="240.1" y="141.0" width="1.9" height="2.4" rx=".5" fill="#eaf5f2" fill-opacity=".86"/><rect class="skyline-window" x="244.7" y="141.0" width="1.9" height="2.4" rx=".5" fill="#eaf5f2" fill-opacity=".26"/><rect class="skyline-window" x="235.4" y="149.5" width="1.9" height="2.4" rx=".5" fill="#eaf5f2" fill-opacity=".86"/><rect class="skyline-window" x="240.1" y="149.5" width="1.9" height="2.4" rx=".5" fill="#eaf5f2" fill-opacity=".86"/><rect class="skyline-window" x="244.7" y="149.5" width="1.9" height="2.4" rx=".5" fill="#eaf5f2" fill-opacity=".86"/><rect class="skyline-window" x="235.4" y="158.0" width="1.9" height="2.4" rx=".5" fill="#eaf5f2" fill-opacity=".86"/><rect class="skyline-window" x="240.1" y="158.0" width="1.9" height="2.4" rx=".5" fill="#eaf5f2" fill-opacity=".86"/><rect class="skyline-window" x="244.7" y="158.0" width="1.9" height="2.4" rx=".5" fill="#eaf5f2" fill-opacity=".26"/></g><g class="skyline-house"><title>2026-06-30: 20.6M (house)</title><path class="by skyline-building skyline-house-2" style="animation-delay:0.38s" d="M248.1 178V170L254.9 163L261.7 170V178Z" fill="#bd6847"/><rect x="255.7" y="169.0" width="1.6" height="3.8" fill="#26384a"/><rect class="skyline-window" x="250.3" y="169.3" width="1.9" height="2.4" rx=".5" fill="#eaf5f2" fill-opacity=".86"/></g><g class="skyline-midrise"><title>2026-07-01: 101.7M (midrise)</title><path class="by skyline-building skyline-midrise-0" style="animation-delay:0.40s" d="M262.9 178V141H265.4V135H276.6V178Z" fill="#6f9294"/><rect class="skyline-window" x="265.1" y="148.0" width="1.9" height="2.4" rx=".5" fill="#eaf5f2" fill-opacity=".86"/><rect class="skyline-window" x="269.8" y="148.0" width="1.9" height="2.4" rx=".5" fill="#eaf5f2" fill-opacity=".86"/><rect class="skyline-window" x="274.4" y="148.0" width="1.9" height="2.4" rx=".5" fill="#eaf5f2" fill-opacity=".86"/><rect class="skyline-window" x="265.1" y="156.5" width="1.9" height="2.4" rx=".5" fill="#eaf5f2" fill-opacity=".86"/><rect class="skyline-window" x="269.8" y="156.5" width="1.9" height="2.4" rx=".5" fill="#eaf5f2" fill-opacity=".26"/><rect class="skyline-window" x="274.4" y="156.5" width="1.9" height="2.4" rx=".5" fill="#eaf5f2" fill-opacity=".86"/><rect class="skyline-window" x="265.1" y="165.0" width="1.9" height="2.4" rx=".5" fill="#eaf5f2" fill-opacity=".86"/><rect class="skyline-window" x="269.8" y="165.0" width="1.9" height="2.4" rx=".5" fill="#eaf5f2" fill-opacity=".86"/><rect class="skyline-window" x="274.4" y="165.0" width="1.9" height="2.4" rx=".5" fill="#eaf5f2" fill-opacity=".86"/></g><g class="skyline-midrise"><title>2026-07-02: 92.6M (midrise)</title><path class="by skyline-building skyline-midrise-2" style="animation-delay:0.43s" d="M277.8 178V143Q284.6 133 291.4 143V178Z" fill="#6a9b8b"/><rect class="skyline-window" x="279.9" y="150.0" width="1.9" height="2.4" rx=".5" fill="#eaf5f2" fill-opacity=".86"/><rect class="skyline-window" x="284.6" y="150.0" width="1.9" height="2.4" rx=".5" fill="#eaf5f2" fill-opacity=".86"/><rect class="skyline-window" x="289.2" y="150.0" width="1.9" height="2.4" rx=".5" fill="#eaf5f2" fill-opacity=".86"/><rect class="skyline-window" x="279.9" y="158.5" width="1.9" height="2.4" rx=".5" fill="#eaf5f2" fill-opacity=".86"/><rect class="skyline-window" x="284.6" y="158.5" width="1.9" height="2.4" rx=".5" fill="#eaf5f2" fill-opacity=".86"/><rect class="skyline-window" x="289.2" y="158.5" width="1.9" height="2.4" rx=".5" fill="#eaf5f2" fill-opacity=".26"/></g><g class="skyline-midrise"><title>2026-07-03: 88.4M (midrise)</title><path class="by skyline-building skyline-midrise-4" style="animation-delay:0.45s" d="M292.6 178V138H306.2V178Z" fill="#668b96"/><rect class="skyline-window" x="294.8" y="151.0" width="1.9" height="2.4" rx=".5" fill="#eaf5f2" fill-opacity=".26"/><rect class="skyline-window" x="299.4" y="151.0" width="1.9" height="2.4" rx=".5" fill="#eaf5f2" fill-opacity=".86"/><rect class="skyline-window" x="304.1" y="151.0" width="1.9" height="2.4" rx=".5" fill="#eaf5f2" fill-opacity=".86"/><rect class="skyline-window" x="294.8" y="159.5" width="1.9" height="2.4" rx=".5" fill="#eaf5f2" fill-opacity=".86"/><rect class="skyline-window" x="299.4" y="159.5" width="1.9" height="2.4" rx=".5" fill="#eaf5f2" fill-opacity=".86"/><rect class="skyline-window" x="304.1" y="159.5" width="1.9" height="2.4" rx=".5" fill="#eaf5f2" fill-opacity=".86"/></g><g class="skyline-field"><title>2026-07-04: no token activity</title><path d="M307.4 178V173.14q6.8 -3 13.6 0V178Z" fill="#5d9154"/><path d="M310.7 174.14l1.3 -4m4.1 4l-1.1 -3" stroke="#d6e891" stroke-width=".8" stroke-linecap="round"/></g><g class="skyline-field"><title>2026-07-05: no token activity</title><path d="M322.3 178V173.14q6.8 -3 13.6 0V178Z" fill="#5d9154"/><path d="M325.5 174.14l1.3 -4m4.1 4l-1.1 -3" stroke="#d6e891" stroke-width=".8" stroke-linecap="round"/></g><g class="skyline-field"><title>2026-07-06: no token activity</title><path d="M337.1 178V173.14q6.8 -3 13.6 0V178Z" fill="#5d9154"/><path d="M340.4 174.14l1.3 -4m4.1 4l-1.1 -3" stroke="#d6e891" stroke-width=".8" stroke-linecap="round"/></g><g class="skyline-house"><title>2026-07-07: 7M (house)</title><path class="by skyline-building skyline-house-2" style="animation-delay:0.55s" d="M351.9 178V172L358.8 165L365.6 172V178Z" fill="#bd6847"/><rect x="359.6" y="171.0" width="1.6" height="3.3" fill="#26384a"/><rect class="skyline-window" x="354.1" y="170.5" width="1.9" height="2.4" rx=".5" fill="#eaf5f2" fill-opacity=".86"/></g><g class="skyline-midrise"><title>2026-07-08: 113.9M (midrise)</title><path class="by skyline-building skyline-midrise-2" style="animation-delay:0.58s" d="M366.8 178V139Q373.6 129 380.4 139V178Z" fill="#6a9b8b"/><rect class="skyline-window" x="368.9" y="146.0" width="1.9" height="2.4" rx=".5" fill="#eaf5f2" fill-opacity=".86"/><rect class="skyline-window" x="373.6" y="146.0" width="1.9" height="2.4" rx=".5" fill="#eaf5f2" fill-opacity=".86"/><rect class="skyline-window" x="378.2" y="146.0" width="1.9" height="2.4" rx=".5" fill="#eaf5f2" fill-opacity=".86"/><rect class="skyline-window" x="368.9" y="154.5" width="1.9" height="2.4" rx=".5" fill="#eaf5f2" fill-opacity=".86"/><rect class="skyline-window" x="373.6" y="154.5" width="1.9" height="2.4" rx=".5" fill="#eaf5f2" fill-opacity=".86"/><rect class="skyline-window" x="378.2" y="154.5" width="1.9" height="2.4" rx=".5" fill="#eaf5f2" fill-opacity=".26"/><rect class="skyline-window" x="368.9" y="163.0" width="1.9" height="2.4" rx=".5" fill="#eaf5f2" fill-opacity=".86"/><rect class="skyline-window" x="373.6" y="163.0" width="1.9" height="2.4" rx=".5" fill="#eaf5f2" fill-opacity=".86"/><rect class="skyline-window" x="378.2" y="163.0" width="1.9" height="2.4" rx=".5" fill="#eaf5f2" fill-opacity=".86"/></g><g class="skyline-midrise"><title>2026-07-09: 53.2M (midrise)</title><path class="by skyline-building skyline-midrise-3" style="animation-delay:0.60s" d="M381.6 178V152L385.0 144H391.8L395.2 152V178Z" fill="#8792aa"/><rect class="skyline-window" x="383.8" y="157.0" width="1.9" height="2.4" rx=".5" fill="#eaf5f2" fill-opacity=".26"/><rect class="skyline-window" x="388.4" y="157.0" width="1.9" height="2.4" rx=".5" fill="#eaf5f2" fill-opacity=".86"/><rect class="skyline-window" x="393.1" y="157.0" width="1.9" height="2.4" rx=".5" fill="#eaf5f2" fill-opacity=".86"/><rect class="skyline-window" x="383.8" y="165.5" width="1.9" height="2.4" rx=".5" fill="#eaf5f2" fill-opacity=".86"/><rect class="skyline-window" x="388.4" y="165.5" width="1.9" height="2.4" rx=".5" fill="#eaf5f2" fill-opacity=".86"/><rect class="skyline-window" x="393.1" y="165.5" width="1.9" height="2.4" rx=".5" fill="#eaf5f2" fill-opacity=".86"/></g><g class="skyline-highrise"><title>2026-07-10: 144.9M (highrise)</title><path class="by skyline-building skyline-highrise-2" style="animation-delay:0.63s" d="M396.4 178V119H400.3V109H406.0V119H410.1V178Z" fill="#548f9c"/><path d="M403.3 102v7" stroke="#eaf5f2" stroke-opacity=".72"/><rect class="skyline-window" x="398.6" y="122.0" width="1.9" height="2.4" rx=".5" fill="#eaf5f2" fill-opacity=".86"/><rect class="skyline-window" x="403.3" y="122.0" width="1.9" height="2.4" rx=".5" fill="#eaf5f2" fill-opacity=".26"/><rect class="skyline-window" x="407.9" y="122.0" width="1.9" height="2.4" rx=".5" fill="#eaf5f2" fill-opacity=".86"/><rect class="skyline-window" x="398.6" y="130.5" width="1.9" height="2.4" rx=".5" fill="#eaf5f2" fill-opacity=".86"/><rect class="skyline-window" x="403.3" y="130.5" width="1.9" height="2.4" rx=".5" fill="#eaf5f2" fill-opacity=".86"/><rect class="skyline-window" x="407.9" y="130.5" width="1.9" height="2.4" rx=".5" fill="#eaf5f2" fill-opacity=".86"/><rect class="skyline-window" x="398.6" y="139.0" width="1.9" height="2.4" rx=".5" fill="#eaf5f2" fill-opacity=".86"/><rect class="skyline-window" x="403.3" y="139.0" width="1.9" height="2.4" rx=".5" fill="#eaf5f2" fill-opacity=".26"/><rect class="skyline-window" x="407.9" y="139.0" width="1.9" height="2.4" rx=".5" fill="#eaf5f2" fill-opacity=".86"/><rect class="skyline-window" x="398.6" y="147.5" width="1.9" height="2.4" rx=".5" fill="#eaf5f2" fill-opacity=".86"/><rect class="skyline-window" x="403.3" y="147.5" width="1.9" height="2.4" rx=".5" fill="#eaf5f2" fill-opacity=".86"/><rect class="skyline-window" x="407.9" y="147.5" width="1.9" height="2.4" rx=".5" fill="#eaf5f2" fill-opacity=".86"/><rect class="skyline-window" x="398.6" y="156.0" width="1.9" height="2.4" rx=".5" fill="#eaf5f2" fill-opacity=".86"/><rect class="skyline-window" x="403.3" y="156.0" width="1.9" height="2.4" rx=".5" fill="#eaf5f2" fill-opacity=".26"/><rect class="skyline-window" x="407.9" y="156.0" width="1.9" height="2.4" rx=".5" fill="#eaf5f2" fill-opacity=".86"/></g><g class="skyline-house"><title>2026-07-11: 538.4k (house)</title><path class="by skyline-building skyline-house-3" style="animation-delay:0.65s" d="M411.3 178V172H414.3L418.1 167L421.9 172H424.9V178Z" fill="#d89362"/><rect x="418.9" y="173.0" width="1.6" height="3.0" fill="#26384a"/><rect class="skyline-window" x="413.4" y="171.6" width="1.9" height="2.4" rx=".5" fill="#eaf5f2" fill-opacity=".86"/></g><g class="skyline-house"><title>2026-07-12: 26.8M (house)</title><path class="by skyline-building skyline-house-4" style="animation-delay:0.68s" d="M426.1 178V168L432.9 161L439.7 168V178Z" fill="#c8775c"/><rect x="433.7" y="167.0" width="1.6" height="4.3" fill="#26384a"/><rect class="skyline-window" x="428.3" y="168.1" width="1.9" height="2.4" rx=".5" fill="#eaf5f2" fill-opacity=".86"/></g><g class="skyline-house"><title>2026-07-13: 50.1M (house)</title><path class="by skyline-building skyline-house-0" style="animation-delay:0.70s" d="M440.9 178V163L447.8 156L454.6 163V178Z" fill="#d9794d"/><rect x="448.6" y="162.0" width="1.6" height="5.5" fill="#26384a"/><rect class="skyline-window" x="443.1" y="165.2" width="1.9" height="2.4" rx=".5" fill="#eaf5f2" fill-opacity=".86"/></g><g class="skyline-house"><title>2026-07-14: 31.3M (house)</title><path class="by skyline-building skyline-house-1" style="animation-delay:0.73s" d="M455.8 178V165H458.8L462.6 160L466.4 165H469.4V178Z" fill="#bb9af7"/><rect x="463.4" y="166.0" width="1.6" height="4.5" fill="#26384a"/><rect class="skyline-window" x="457.9" y="167.6" width="1.9" height="2.4" rx=".5" fill="#eaf5f2" fill-opacity=".86"/></g><path class="skyline-street" d="M25 176H470V178H25Z" fill="#24333d" fill-opacity=".78"/><path d="M25 177H470" stroke="#eaf5f2" stroke-opacity=".5" stroke-dasharray="8 8" stroke-width=".7"/><path d="M53 175v-8m-2 0h4" stroke="#eaf5f2" stroke-opacity=".55" stroke-width=".8"/><circle cx="53" cy="167" r="1.2" fill="#eaf5f2" fill-opacity=".8"/><path d="M119 175v-8m-2 0h4" stroke="#eaf5f2" stroke-opacity=".55" stroke-width=".8"/><circle cx="119" cy="167" r="1.2" fill="#eaf5f2" fill-opacity=".8"/><path d="M185 175v-8m-2 0h4" stroke="#eaf5f2" stroke-opacity=".55" stroke-width=".8"/><circle cx="185" cy="167" r="1.2" fill="#eaf5f2" fill-opacity=".8"/><path d="M251 175v-8m-2 0h4" stroke="#eaf5f2" stroke-opacity=".55" stroke-width=".8"/><circle cx="251" cy="167" r="1.2" fill="#eaf5f2" fill-opacity=".8"/><path d="M317 175v-8m-2 0h4" stroke="#eaf5f2" stroke-opacity=".55" stroke-width=".8"/><circle cx="317" cy="167" r="1.2" fill="#eaf5f2" fill-opacity=".8"/><path d="M383 175v-8m-2 0h4" stroke="#eaf5f2" stroke-opacity=".55" stroke-width=".8"/><circle cx="383" cy="167" r="1.2" fill="#eaf5f2" fill-opacity=".8"/>
<text x="25" y="196" font-size="10" fill="#9aa5ce">2026-06-15</text>
<text x="470" y="196" font-size="10" text-anchor="end" fill="#9aa5ce">2026-07-14</text>
</g>
</svg>