<svg xmlns="http://www.w3.org/2000/svg" width="495" height="220" viewBox="0 0 495 220" role="img" aria-label="Token Activity">
<title>Token Activity</title>
<style>
.f{opacity:0;animation:fu 0.70s cubic-bezier(.4,0,.2,1) forwards}
@keyframes fu{from{opacity:0;transform:translateY(7px)}to{opacity:1;transform:translateY(0)}}
.bx{transform:scaleX(0);transform-box:fill-box;transform-origin:left center;animation:gx 0.90s cubic-bezier(.2,.6,.2,1) forwards}
@keyframes gx{to{transform:scaleX(1)}}
.by{transform:scaleY(0);transform-box:fill-box;transform-origin:center bottom;animation:gy 0.80s cubic-bezier(.2,.6,.2,1) forwards}
@keyframes gy{to{transform:scaleY(1)}}
.sky-star{opacity:0;animation:twinkle 1.80s ease-in-out infinite}@keyframes twinkle{50%{opacity:.3;transform:scale(.55)}}
@media (prefers-reduced-motion:reduce){*{animation-duration:.01s!important;animation-delay:0s!important}}
</style>
<rect x="0.5" y="0.5" width="494" height="219" rx="8" fill="#1a1b27" stroke="#3b4261"/>

<g font-family="'Segoe UI',Ubuntu,Sans-Serif">
<text class="f" x="25" y="33" font-size="16" font-weight="600" fill="#70a5fd">📊 Token Activity</text>
<text class="f" style="animation-delay:0.12s" x="470" y="33" font-size="12" text-anchor="end" fill="#9aa5ce">2.55B · $1,923.13 · 30d</text>
<defs><linearGradient id="skylineSky" x1="0" y1="0" x2="0" y2="1"><stop stop-color="#1b1b4b"/><stop offset=".58" stop-color="#4d3677"/><stop offset="1" stop-color="#ec7f65"/></linearGradient><radialGradient id="skylineMoon"><stop stop-color="#fff9d4"/><stop offset="1" stop-color="#ffd88a"/></radialGradient></defs><rect x="25" y="70" width="445" height="108" rx="7" fill="url(#skylineSky)"/><circle class="sky-star" style="animation-delay:0.00s" cx="37" cy="80" r="1.3" fill="#fff3c4"/><circle class="sky-star" style="animation-delay:0.08s" cx="84" cy="99" r="0.8" fill="#fff3c4"/><circle class="sky-star" style="animation-delay:0.16s" cx="131" cy="118" r="0.8" fill="#fff3c4"/><circle class="sky-star" style="animation-delay:0.24s" cx="178" cy="88" r="1.3" fill="#fff3c4"/><circle class="sky-star" style="animation-delay:0.32s" cx="225" cy="107" r="0.8" fill="#fff3c4"/><circle class="sky-star" style="animation-delay:0.40s" cx="272" cy="126" r="0.8" fill="#fff3c4"/><circle class="sky-star" style="animation-delay:0.48s" cx="319" cy="96" r="1.3" fill="#fff3c4"/><circle class="sky-star" style="animation-delay:0.56s" cx="366" cy="115" r="0.8" fill="#fff3c4"/><circle class="sky-star" style="animation-delay:0.64s" cx="413" cy="85" r="0.8" fill="#fff3c4"/><circle class="sky-star" style="animation-delay:0.72s" cx="39" cy="104" r="1.3" fill="#fff3c4"/><circle class="sky-star" style="animation-delay:0.80s" cx="86" cy="123" r="0.8" fill="#fff3c4"/><circle class="sky-star" style="animation-delay:0.88s" cx="133" cy="93" r="0.8" fill="#fff3c4"/><circle class="sky-star" style="animation-delay:0.96s" cx="180" cy="112" r="1.3" fill="#fff3c4"/><circle class="sky-star" style="animation-delay:1.04s" cx="227" cy="82" r="0.8" fill="#fff3c4"/><circle class="sky-star" style="animation-delay:1.12s" cx="274" cy="101" r="0.8" fill="#fff3c4"/><circle class="f" style="animation-delay:0.24s" cx="443" cy="93" r="10" fill="url(#skylineMoon)"/><g><title>2026-06-15: 63.5M</title><path class="by skyline-building skyline-roof-4" style="animation-delay:0.00s" d="M25.6 178V155H30.8V144H34.1V155H39.2V178Z" fill="#7aa2f7"/><path d="M32.4 138v6" stroke="#fff3c4" stroke-opacity=".72"/><rect x="30.0" y="154.0" width="2.7" height="2" rx=".5" fill="#fff3c4" fill-opacity=".8"/><rect x="30.0" y="163.0" width="2.7" height="2" rx=".5" fill="#fff3c4" fill-opacity=".48"/></g><g><title>2026-06-16: 120.3M</title><path class="by skyline-building skyline-roof-0" style="animation-delay:0.03s" d="M40.4 178V128H54.1V178Z" fill="#7aa2f7"/><path d="M47.3 122v6" stroke="#fff3c4" stroke-opacity=".72"/><rect x="44.8" y="138.0" width="2.7" height="2" rx=".5" fill="#fff3c4" fill-opacity=".8"/><rect x="44.8" y="147.0" width="2.7" height="2" rx=".5" fill="#fff3c4" fill-opacity=".48"/><rect x="44.8" y="156.0" width="2.7" height="2" rx=".5" fill="#fff3c4" fill-opacity=".8"/><rect x="44.8" y="165.0" width="2.7" height="2" rx=".5" fill="#fff3c4" fill-opacity=".48"/></g><g><title>2026-06-17: 73.1M</title><path class="by skyline-building skyline-roof-2" style="animation-delay:0.05s" d="M55.3 178V151L62.1 141L68.9 151V178Z" fill="#7aa2f7"/><rect x="59.6" y="151.0" width="2.7" height="2" rx=".5" fill="#fff3c4" fill-opacity=".8"/><rect x="59.6" y="160.0" width="2.7" height="2" rx=".5" fill="#fff3c4" fill-opacity=".48"/></g><g><title>2026-06-18: 134.7M</title><path class="by skyline-building skyline-roof-5" style="animation-delay:0.08s" d="M70.1 178V130H74.2V126H79.6V130H83.7V178Z" fill="#7aa2f7"/><rect x="74.5" y="134.0" width="2.7" height="2" rx=".5" fill="#fff3c4" fill-opacity=".8"/><rect x="74.5" y="143.0" width="2.7" height="2" rx=".5" fill="#fff3c4" fill-opacity=".48"/><rect x="74.5" y="152.0" width="2.7" height="2" rx=".5" fill="#fff3c4" fill-opacity=".8"/><rect x="74.5" y="161.0" width="2.7" height="2" rx=".5" fill="#fff3c4" fill-opacity=".48"/></g><g><title>2026-06-19: 277M</title><path class="by skyline-building skyline-roof-1" style="animation-delay:0.10s" d="M84.9 178V92H87.7V83H94.7V88H98.6V178Z" fill="#7aa2f7"/><rect x="89.3" y="93.0" width="2.7" height="2" rx=".5" fill="#fff3c4" fill-opacity=".8"/><rect x="89.3" y="102.0" width="2.7" height="2" rx=".5" fill="#fff3c4" fill-opacity=".48"/><rect x="89.3" y="111.0" width="2.7" height="2" rx=".5" fill="#fff3c4" fill-opacity=".8"/><rect x="89.3" y="120.0" width="2.7" height="2" rx=".5" fill="#fff3c4" fill-opacity=".48"/><rect x="89.3" y="129.0" width="2.7" height="2" rx=".5" fill="#fff3c4" fill-opacity=".8"/><rect x="89.3" y="138.0" width="2.7" height="2" rx=".5" fill="#fff3c4" fill-opacity=".48"/><rect x="89.3" y="147.0" width="2.7" height="2" rx=".5" fill="#fff3c4" fill-opacity=".8"/><rect x="89.3" y="156.0" width="2.7" height="2" rx=".5" fill="#fff3c4" fill-opacity=".48"/><rect x="89.3" y="165.0" width="2.7" height="2" rx=".5" fill="#fff3c4" fill-opacity=".8"/></g><g><title>2026-06-20: 82.4M</title><path class="by skyline-building skyline-roof-0" style="animation-delay:0.13s" d="M99.8 178V138H113.4V178Z" fill="#7aa2f7"/><path d="M106.6 132v6" stroke="#fff3c4" stroke-opacity=".72"/><rect x="104.1" y="148.0" width="2.7" height="2" rx=".5" fill="#fff3c4" fill-opacity=".8"/><rect x="104.1" y="157.0" width="2.7" height="2" rx=".5" fill="#fff3c4" fill-opacity=".48"/><rect x="104.1" y="166.0" width="2.7" height="2" rx=".5" fill="#fff3c4" fill-opacity=".8"/></g><g><title>2026-06-21: 79.7M</title><path class="by skyline-building skyline-roof-5" style="animation-delay:0.15s" d="M114.6 178V145H118.7V141H124.1V145H128.2V178Z" fill="#7aa2f7"/><rect x="119.0" y="149.0" width="2.7" height="2" rx=".5" fill="#fff3c4" fill-opacity=".8"/><rect x="119.0" y="158.0" width="2.7" height="2" rx=".5" fill="#fff3c4" fill-opacity=".48"/></g><g><title>2026-06-22: 148.8M</title><path class="by skyline-building skyline-roof-2" style="animation-delay:0.18s" d="M129.4 178V130L136.3 120L143.1 130V178Z" fill="#7aa2f7"/><rect x="133.8" y="130.0" width="2.7" height="2" rx=".5" fill="#fff3c4" fill-opacity=".8"/><rect x="133.8" y="139.0" width="2.7" height="2" rx=".5" fill="#fff3c4" fill-opacity=".48"/><rect x="133.8" y="148.0" width="2.7" height="2" rx=".5" fill="#fff3c4" fill-opacity=".8"/><rect x="133.8" y="157.0" width="2.7" height="2" rx=".5" fill="#fff3c4" fill-opacity=".48"/><rect x="133.8" y="166.0" width="2.7" height="2" rx=".5" fill="#fff3c4" fill-opacity=".8"/></g><g><title>2026-06-23: 313M</title><path class="by skyline-building skyline-roof-5" style="animation-delay:0.20s" d="M144.3 178V79H148.4V75H153.8V79H157.9V178Z" fill="#7aa2f7"/><rect x="148.6" y="83.0" width="2.7" height="2" rx=".5" fill="#fff3c4" fill-opacity=".8"/><rect x="148.6" y="92.0" width="2.7" height="2" rx=".5" fill="#fff3c4" fill-opacity=".48"/><rect x="148.6" y="101.0" width="2.7" height="2" rx=".5" fill="#fff3c4" fill-opacity=".8"/><rect x="148.6" y="110.0" width="2.7" height="2" rx=".5" fill="#fff3c4" fill-opacity=".48"/><rect x="148.6" y="119.0" width="2.7" height="2" rx=".5" fill="#fff3c4" fill-opacity=".8"/><rect x="148.6" y="128.0" width="2.7" height="2" rx=".5" fill="#fff3c4" fill-opacity=".48"/><rect x="148.6" y="137.0" width="2.7" height="2" rx=".5" fill="#fff3c4" fill-opacity=".8"/><rect x="148.6" y="146.0" width="2.7" height="2" rx=".5" fill="#fff3c4" fill-opacity=".48"/><rect x="148.6" y="155.0" width="2.7" height="2" rx=".5" fill="#fff3c4" fill-opacity=".8"/><rect x="148.6" y="164.0" width="2.7" height="2" rx=".5" fill="#fff3c4" fill-opacity=".48"/></g><g><title>2026-06-24: 90.4M</title><path class="by skyline-building skyline-roof-2" style="animation-delay:0.23s" d="M159.1 178V146L165.9 136L172.7 146V178Z" fill="#7aa2f7"/><rect x="163.5" y="146.0" width="2.7" height="2" rx=".5" fill="#fff3c4" fill-opacity=".8"/><rect x="163.5" y="155.0" width="2.7" height="2" rx=".5" fill="#fff3c4" fill-opacity=".48"/><rect x="163.5" y="164.0" width="2.7" height="2" rx=".5" fill="#fff3c4" fill-opacity=".8"/></g><g><title>2026-06-25: 97.3M</title><path class="by skyline-building skyline-roof-2" style="animation-delay:0.25s" d="M173.9 178V144L180.8 134L187.6 144V178Z" fill="#7aa2f7"/><rect x="178.3" y="144.0" width="2.7" height="2" rx=".5" fill="#fff3c4" fill-opacity=".8"/><rect x="178.3" y="153.0" width="2.7" height="2" rx=".5" fill="#fff3c4" fill-opacity=".48"/><rect x="178.3" y="162.0" width="2.7" height="2" rx=".5" fill="#fff3c4" fill-opacity=".8"/></g><g><title>2026-06-26: 126.2M</title><path class="by skyline-building skyline-roof-3" style="animation-delay:0.28s" d="M188.8 178V134Q195.6 123 202.4 134V178Z" fill="#7aa2f7"/><rect x="193.1" y="136.0" width="2.7" height="2" rx=".5" fill="#fff3c4" fill-opacity=".8"/><rect x="193.1" y="145.0" width="2.7" height="2" rx=".5" fill="#fff3c4" fill-opacity=".48"/><rect x="193.1" y="154.0" width="2.7" height="2" rx=".5" fill="#fff3c4" fill-opacity=".8"/><rect x="193.1" y="163.0" width="2.7" height="2" rx=".5" fill="#fff3c4" fill-opacity=".48"/></g><g><title>2026-06-27: 0</title><rect class="by skyline-building" style="animation-delay:0.30s" x="203.6" y="169" width="13.6" height="9" rx="2.0" fill="#7aa2f7"/></g><g><title>2026-06-28: 2.1M</title><rect class="by skyline-building" style="animation-delay:0.33s" x="218.4" y="161" width="13.6" height="17" rx="2.0" fill="#7aa2f7"/></g><g><title>2026-06-29: 209.9M</title><path class="by skyline-building skyline-roof-5" style="animation-delay:0.35s" d="M233.3 178V108H237.4V104H242.8V108H246.9V178Z" fill="#7aa2f7"/><rect x="237.6" y="112.0" width="2.7" height="2" rx=".5" fill="#fff3c4" fill-opacity=".8"/><rect x="237.6" y="121.0" width="2.7" height="2" rx=".5" fill="#fff3c4" fill-opacity=".48"/><rect x="237.6" y="130.0" width="2.7" height="2" rx=".5" fill="#fff3c4" fill-opacity=".8"/><rect x="237.6" y="139.0" width="2.7" height="2" rx=".5" fill="#fff3c4" fill-opacity=".48"/><rect x="237.6" y="148.0" width="2.7" height="2" rx=".5" fill="#fff3c4" fill-opacity=".8"/><rect x="237.6" y="157.0" width="2.7" height="2" rx=".5" fill="#fff3c4" fill-opacity=".48"/><rect x="237.6" y="166.0" width="2.7" height="2" rx=".5" fill="#fff3c4" fill-opacity=".8"/></g><g><title>2026-06-30: 20.6M</title><path class="by skyline-building skyline-roof-4" style="animation-delay:0.38s" d="M248.1 178V167H253.3V156H256.6V167H261.7V178Z" fill="#7aa2f7"/><rect x="252.5" y="166.0" width="2.7" height="2" rx=".5" fill="#fff3c4" fill-opacity=".8"/></g><g><title>2026-07-01: 101.7M</title><path class="by skyline-building skyline-roof-2" style="animation-delay:0.40s" d="M262.9 178V143L269.8 133L276.6 143V178Z" fill="#7aa2f7"/><rect x="267.3" y="143.0" width="2.7" height="2" rx=".5" fill="#fff3c4" fill-opacity=".8"/><rect x="267.3" y="152.0" width="2.7" height="2" rx=".5" fill="#fff3c4" fill-opacity=".48"/><rect x="267.3" y="161.0" width="2.7" height="2" rx=".5" fill="#fff3c4" fill-opacity=".8"/></g><g><title>2026-07-02: 92.6M</title><path class="by skyline-building skyline-roof-1" style="animation-delay:0.43s" d="M277.8 178V145H280.5V136H287.6V141H291.4V178Z" fill="#7aa2f7"/><rect x="282.1" y="146.0" width="2.7" height="2" rx=".5" fill="#fff3c4" fill-opacity=".8"/><rect x="282.1" y="155.0" width="2.7" height="2" rx=".5" fill="#fff3c4" fill-opacity=".48"/><rect x="282.1" y="164.0" width="2.7" height="2" rx=".5" fill="#fff3c4" fill-opacity=".8"/></g><g><title>2026-07-03: 88.4M</title><path class="by skyline-building skyline-roof-5" style="animation-delay:0.45s" d="M292.6 178V143H296.7V139H302.1V143H306.2V178Z" fill="#7aa2f7"/><rect x="297.0" y="147.0" width="2.7" height="2" rx=".5" fill="#fff3c4" fill-opacity=".8"/><rect x="297.0" y="156.0" width="2.7" height="2" rx=".5" fill="#fff3c4" fill-opacity=".48"/><rect x="297.0" y="165.0" width="2.7" height="2" rx=".5" fill="#fff3c4" fill-opacity=".8"/></g><g><title>2026-07-04: 0</title><rect class="by skyline-building" style="animation-delay:0.48s" x="307.4" y="169" width="13.6" height="9" rx="2.0" fill="#7aa2f7"/></g><g><title>2026-07-05: 0</title><rect class="by skyline-building" style="animation-delay:0.50s" x="322.3" y="169" width="13.6" height="9" rx="2.0" fill="#7aa2f7"/></g><g><title>2026-07-06: 0</title><rect class="by skyline-building" style="animation-delay:0.53s" x="337.1" y="169" width="13.6" height="9" rx="2.0" fill="#7aa2f7"/></g><g><title>2026-07-07: 7M</title><rect class="by skyline-building" style="animation-delay:0.55s" x="351.9" y="160" width="13.6" height="18" rx="2.0" fill="#7aa2f7"/></g><g><title>2026-07-08: 113.9M</title><path class="by skyline-building skyline-roof-2" style="animation-delay:0.58s" d="M366.8 178V140L373.6 130L380.4 140V178Z" fill="#7aa2f7"/><rect x="371.1" y="140.0" width="2.7" height="2" rx=".5" fill="#fff3c4" fill-opacity=".8"/><rect x="371.1" y="149.0" width="2.7" height="2" rx=".5" fill="#fff3c4" fill-opacity=".48"/><rect x="371.1" y="158.0" width="2.7" height="2" rx=".5" fill="#fff3c4" fill-opacity=".8"/></g><g><title>2026-07-09: 53.2M</title><path class="by skyline-building skyline-roof-3" style="animation-delay:0.60s" d="M381.6 178V155Q388.4 144 395.2 155V178Z" fill="#7aa2f7"/><rect x="386.0" y="157.0" width="2.7" height="2" rx=".5" fill="#fff3c4" fill-opacity=".8"/><rect x="386.0" y="166.0" width="2.7" height="2" rx=".5" fill="#fff3c4" fill-opacity=".48"/></g><g><title>2026-07-10: 144.9M</title><path class="by skyline-building skyline-roof-2" style="animation-delay:0.63s" d="M396.4 178V131L403.3 121L410.1 131V178Z" fill="#7aa2f7"/><rect x="400.8" y="131.0" width="2.7" height="2" rx=".5" fill="#fff3c4" fill-opacity=".8"/><rect x="400.8" y="140.0" width="2.7" height="2" rx=".5" fill="#fff3c4" fill-opacity=".48"/><rect x="400.8" y="149.0" width="2.7" height="2" rx=".5" fill="#fff3c4" fill-opacity=".8"/><rect x="400.8" y="158.0" width="2.7" height="2" rx=".5" fill="#fff3c4" fill-opacity=".48"/></g><g><title>2026-07-11: 538.4k</title><rect class="by skyline-building" style="animation-delay:0.65s" x="411.3" y="162" width="13.6" height="16" rx="2.0" fill="#7aa2f7"/></g><g><title>2026-07-12: 26.8M</title><path class="by skyline-building skyline-roof-5" style="animation-delay:0.68s" d="M426.1 178V160H430.2V156H435.6V160H439.7V178Z" fill="#7aa2f7"/><rect x="430.5" y="164.0" width="2.7" height="2" rx=".5" fill="#fff3c4" fill-opacity=".8"/></g><g><title>2026-07-13: 50.1M</title><path class="by skyline-building skyline-roof-5" style="animation-delay:0.70s" d="M440.9 178V154H445.0V150H450.5V154H454.6V178Z" fill="#7aa2f7"/><rect x="445.3" y="158.0" width="2.7" height="2" rx=".5" fill="#fff3c4" fill-opacity=".8"/></g><g><title>2026-07-14: 31.3M</title><path class="by skyline-building skyline-roof-3" style="animation-delay:0.73s" d="M455.8 178V161Q462.6 150 469.4 161V178Z" fill="#bb9af7"/><rect x="460.1" y="163.0" width="2.7" height="2" rx=".5" fill="#fff3c4" fill-opacity=".8"/></g><path d="M25 178.5H470" stroke="#ffd6a1" stroke-opacity=".72"/>
<text x="25" y="196" font-size="10" fill="#9aa5ce">2026-06-15</text>
<text x="470" y="196" font-size="10" text-anchor="end" fill="#9aa5ce">2026-07-14</text>
</g>
</svg>