<svg xmlns="http://www.w3.org/2000/svg" width="340" height="200" viewBox="0 0 340 200" role="img" aria-label="Token Stack">
<title>Token Stack</title>

<rect x="0.5" y="0.5" width="339" height="199" rx="8" fill="#1a1b27" stroke="#3b4261"/>

<defs><linearGradient id="big" x1="0" y1="0" x2="1" y2="0">
<stop offset="0%" stop-color="#70a5fd"/><stop offset="100%" stop-color="#bb9af7"/>
</linearGradient></defs>
<g font-family="'Segoe UI',Ubuntu,Sans-Serif">
<text class="f" x="20" y="27" font-size="14" font-weight="600" fill="#70a5fd">⚡ Token Stack</text>
<text class="f" style="animation-delay:0.12s" x="20" y="66" font-size="30" font-weight="800" fill="url(#big)">3.93B</text>
<text class="f" style="animation-delay:0.24s" x="20" y="85" font-size="10.5" fill="#9aa5ce">tokens all time · est. $2,914.05 · 🔥 8d streak</text>
<text class="f" style="animation-delay:0.36s" x="320" y="97" font-size="9.5" text-anchor="end" fill="#9aa5ce">last 14d · 711.2M</text>
<defs><linearGradient id="skylineSky" x1="0" y1="0" x2="0" y2="1"><stop stop-color="#040713"/><stop offset=".58" stop-color="#0b1730"/><stop offset="1" stop-color="#1b2a45"/></linearGradient><linearGradient id="skylineWater" x1="0" y1="0" x2="0" y2="1"><stop stop-color="#0a1828"/><stop offset="1" stop-color="#12314d"/></linearGradient><radialGradient id="skylineLuminary"><stop stop-color="#fffde1"/><stop offset="1" stop-color="#f2f5ff"/></radialGradient><clipPath id="skylineScene"><rect x="20" y="100" width="300" height="72" rx="7"/></clipPath><clipPath id="skylineCliplot0"><path d="M20.3 163V133.44H22.5V128.44H35.5V163Z"/></clipPath><clipPath id="skylineCliplot1"><path d="M35.3 163V135.44Q40.8 128.44 47.4 129.44Q52.0 131.44 54.8 135.44V163Z"/></clipPath><clipPath id="skylineCliplot2"><path d="M54.4 163V127.47999999999999H55.8V120.47999999999999H58.8V115.47999999999999H63.5V123.47999999999999H66.8V127.47999999999999H69.2V163Z"/></clipPath><clipPath id="skylineCliplot3"><path d="M69.2 163V140.07395465318703H71.9V135.07395465318703H84.5V140.07395465318703H87.2V163Z"/></clipPath><clipPath id="skylineCliplot4"><path d="M86.4 163V150H89.4V145H96.6V141H100.3V148H102.9V163Z"/></clipPath><clipPath id="skylineCliplot8"><path d="M152.6 163V149H155.3V144H167.7V149H170.3V163Z"/></clipPath><clipPath id="skylineCliplot9"><path d="M172.1 163V126.47999999999999Q175.0 116.47999999999999 178.1 115.47999999999999Q181.4 116.47999999999999 183.7 126.47999999999999V163Z"/></clipPath><clipPath id="skylineCliplot10"><path d="M185.8 163V135.44Q190.9 128.44 197.0 129.44Q201.4 131.44 203.9 135.44V163Z"/></clipPath><clipPath id="skylineCliplot11"><path d="M205.3 163V129.48H206.7V121.47999999999999H208.7V115.47999999999999H214.3V122.47999999999999H216.2V129.48H217.4V163Z"/></clipPath><clipPath id="skylineCliplot12"><path d="M222.0 163V128.48H223.8V120.47999999999999H226.1V115.47999999999999H230.4V120.47999999999999H232.3V128.48H234.0V163Z"/></clipPath><clipPath id="skylineCliplot13"><path d="M235.9 163V142.43598760884535Q240.9 135.43598760884535 247.0 136.43598760884535Q251.3 138.43598760884535 253.8 142.43598760884535V163Z"/></clipPath><clipPath id="skylineCliplot14"><path d="M252.8 163V148Q257.6 141 263.5 142Q267.7 144 270.2 148V163Z"/></clipPath><clipPath id="skylineCliplot15"><path d="M269.5 163V144.53666621125245H272.1V139.53666621125245H284.1V144.53666621125245H286.7V163Z"/></clipPath><clipPath id="skylineCliplot16"><path d="M285.6 163V135.44Q290.8 128.44 297.2 129.44Q301.6 131.44 304.2 135.44V163Z"/></clipPath><clipPath id="skylineCliplot17"><path d="M303.3 163V142.83111600809062H306.2V137.83111600809062H313.2V133.83111600809062H316.7V140.83111600809062H319.3V163Z"/></clipPath><clipPath id="skylineClippeak7"><path d="M173.8 163V139.4128H177.7V119.3216H176.3Q176.3 115.5216 178.5 114.64160000000001L180.0 113.5216L180.7 106.84L181.4 113.5216L182.9 114.64160000000001Q185.2 115.5216 185.2 119.3216H183.8V139.4128H187.7V163Z"/></clipPath></defs><g clip-path="url(#skylineScene)"><rect data-sky="night" data-city-scale="1.000" x="20" y="100" width="300" height="72" rx="7" fill="url(#skylineSky)"/><circle class="sky-star" style="animation-delay:0.00s" cx="60.8" cy="117.6" r="0.72" fill="#ffd28a"/><circle class="sky-star" style="animation-delay:0.08s" cx="136.9" cy="116.6" r="0.72" fill="#ffd28a"/><circle class="sky-star" style="animation-delay:0.16s" cx="121.0" cy="133.0" r="0.72" fill="#ffd28a"/><circle class="sky-star" style="animation-delay:0.24s" cx="131.6" cy="121.5" r="0.72" fill="#ffd28a"/><circle class="sky-star" style="animation-delay:0.32s" cx="179.3" cy="111.4" r="0.72" fill="#ffd28a"/><circle class="sky-star" style="animation-delay:0.40s" cx="138.4" cy="121.9" r="1.2" fill="#ffd28a"/><circle class="sky-star" style="animation-delay:0.48s" cx="199.8" cy="110.9" r="1.2" fill="#ffd28a"/><circle class="sky-star" style="animation-delay:0.56s" cx="222.3" cy="113.5" r="0.72" fill="#ffd28a"/><circle class="sky-star" style="animation-delay:0.64s" cx="210.2" cy="121.2" r="0.72" fill="#ffd28a"/><circle class="sky-star" style="animation-delay:0.72s" cx="78.5" cy="116.5" r="0.72" fill="#ffd28a"/><circle class="skyline-moon-halo" cx="300" cy="117" r="16.45" fill="#d8e9ff" fill-opacity=".055"/><circle class="skyline-moon-halo" cx="300" cy="117" r="10.85" fill="#d8e9ff" fill-opacity=".07"/><circle class="f skyline-luminary" style="animation-delay:0.24s" cx="300" cy="117" r="7" fill="url(#skylineLuminary)"/><rect x="19.6" y="147.9" width="15.9" height="15.1" fill="#1c3c55" fill-opacity=".26"/><rect x="34.6" y="148.9" width="15.9" height="14.1" fill="#274767" fill-opacity=".26"/><rect x="49.6" y="149.3" width="15.9" height="13.7" fill="#1f4a59" fill-opacity=".26"/><rect x="64.6" y="149.1" width="15.9" height="13.9" fill="#304560" fill-opacity=".26"/><rect x="79.6" y="152.2" width="15.9" height="10.8" fill="#21425b" fill-opacity=".26"/><rect x="94.6" y="153.3" width="15.9" height="9.7" fill="#1c3c55" fill-opacity=".26"/><rect x="109.6" y="154.1" width="15.9" height="8.9" fill="#274767" fill-opacity=".26"/><rect x="124.6" y="152.5" width="15.9" height="10.5" fill="#1f4a59" fill-opacity=".26"/><rect x="139.6" y="153.0" width="15.9" height="10.0" fill="#304560" fill-opacity=".26"/><rect x="154.6" y="150.0" width="15.9" height="13.0" fill="#21425b" fill-opacity=".26"/><rect x="169.6" y="148.3" width="15.9" height="14.7" fill="#1c3c55" fill-opacity=".26"/><rect x="184.6" y="149.1" width="15.9" height="13.9" fill="#274767" fill-opacity=".26"/><rect x="199.6" y="148.8" width="15.9" height="14.2" fill="#1f4a59" fill-opacity=".26"/><rect x="214.6" y="146.1" width="15.9" height="16.9" fill="#304560" fill-opacity=".26"/><rect x="229.6" y="148.7" width="15.9" height="14.3" fill="#21425b" fill-opacity=".26"/><rect x="244.6" y="150.9" width="15.9" height="12.1" fill="#1c3c55" fill-opacity=".26"/><rect x="259.6" y="150.6" width="15.9" height="12.4" fill="#274767" fill-opacity=".26"/><rect x="274.6" y="152.1" width="15.9" height="10.9" fill="#1f4a59" fill-opacity=".26"/><rect x="289.6" y="151.5" width="15.9" height="11.5" fill="#304560" fill-opacity=".26"/><rect x="304.6" y="152.3" width="15.9" height="10.7" fill="#21425b" fill-opacity=".26"/><polygon class="skyline-fabric" points="20,163 20.0,149.7 41.4,151.0 62.9,151.7 84.3,158.6 105.7,159.6 127.1,159.5 148.6,158.3 170.0,149.6 191.4,152.9 212.9,149.0 234.3,157.7 255.7,156.7 277.1,154.9 298.6,156.5 320.0,156.5 320,163" fill="#1c3c55" fill-opacity=".42"/><g class="skyline-water"><rect x="20" y="164" width="300" height="8" fill="url(#skylineWater)"/><path d="M20 165H320" stroke="#ffd28a" stroke-opacity=".2" stroke-width=".7"/><path d="M20.0 168.0h114.0" stroke="#ffd28a" stroke-opacity=".12" stroke-width=".6"/><path d="M25.0 170.0h150.0" stroke="#ffd28a" stroke-opacity=".08" stroke-width=".6"/></g><rect class="skyline-reflection" x="20.9" y="165.0" width="11.9" height="1.1" rx=".5" fill="#1c3c55" fill-opacity=".22"/><rect class="skyline-reflection" x="22.7" y="166.6" width="10.0" height=".75" rx=".5" fill="#1c3c55" fill-opacity=".22"/><rect class="skyline-reflection" x="38.4" y="165.0" width="15.2" height="1.1" rx=".5" fill="#1f4a59" fill-opacity=".22"/><rect class="skyline-reflection" x="38.5" y="166.6" width="12.9" height=".75" rx=".5" fill="#1f4a59" fill-opacity=".22"/><rect class="skyline-reflection" x="56.9" y="165.0" width="11.5" height="1.1" rx=".5" fill="#263f60" fill-opacity=".22"/><rect class="skyline-reflection" x="55.9" y="167.0" width="10.4" height=".75" rx=".5" fill="#263f60" fill-opacity=".22"/><rect class="skyline-reflection" x="56.5" y="169.0" width="9.2" height=".75" rx=".5" fill="#263f60" fill-opacity=".22"/><rect class="skyline-reflection skyline-reflection-light" x="58.7" y="166.0" width="6.2" height=".8" rx=".4" fill="#ffd28a" fill-opacity=".34"/><rect class="skyline-reflection" x="70.5" y="165.0" width="14.1" height="1.1" rx=".5" fill="#304560" fill-opacity=".22"/><rect class="skyline-reflection" x="71.3" y="166.4" width="11.9" height=".75" rx=".5" fill="#304560" fill-opacity=".22"/><rect class="skyline-reflection" x="88.5" y="165.0" width="12.8" height="1.1" rx=".5" fill="#274767" fill-opacity=".22"/><rect class="skyline-reflection" x="89.1" y="166.0" width="10.9" height=".75" rx=".5" fill="#274767" fill-opacity=".22"/><rect class="skyline-reflection" x="155.1" y="165.0" width="13.8" height="1.1" rx=".5" fill="#304560" fill-opacity=".22"/><rect class="skyline-reflection" x="154.8" y="166.0" width="11.7" height=".75" rx=".5" fill="#304560" fill-opacity=".22"/><rect class="skyline-reflection" x="173.1" y="165.0" width="9.0" height="1.1" rx=".5" fill="#164861" fill-opacity=".22"/><rect class="skyline-reflection" x="174.0" y="167.0" width="8.1" height=".75" rx=".5" fill="#164861" fill-opacity=".22"/><rect class="skyline-reflection" x="174.1" y="169.0" width="7.2" height=".75" rx=".5" fill="#164861" fill-opacity=".22"/><rect class="skyline-reflection skyline-reflection-light" x="175.5" y="166.0" width="4.9" height=".8" rx=".4" fill="#ffd28a" fill-opacity=".34"/><rect class="skyline-reflection" x="187.9" y="165.0" width="14.1" height="1.1" rx=".5" fill="#1f4a59" fill-opacity=".22"/><rect class="skyline-reflection" x="188.7" y="166.6" width="11.9" height=".75" rx=".5" fill="#1f4a59" fill-opacity=".22"/><rect class="skyline-reflection" x="207.5" y="165.0" width="9.5" height="1.1" rx=".5" fill="#153553" fill-opacity=".22"/><rect class="skyline-reflection" x="207.2" y="167.0" width="8.5" height=".75" rx=".5" fill="#153553" fill-opacity=".22"/><rect class="skyline-reflection" x="208.2" y="169.0" width="7.5" height=".75" rx=".5" fill="#153553" fill-opacity=".22"/><rect class="skyline-reflection skyline-reflection-light" x="208.8" y="166.0" width="5.1" height=".8" rx=".4" fill="#ffd28a" fill-opacity=".34"/><rect class="skyline-reflection" x="223.9" y="165.0" width="9.4" height="1.1" rx=".5" fill="#1d4164" fill-opacity=".22"/><rect class="skyline-reflection" x="223.4" y="167.0" width="8.4" height=".75" rx=".5" fill="#1d4164" fill-opacity=".22"/><rect class="skyline-reflection" x="224.2" y="169.0" width="7.4" height=".75" rx=".5" fill="#1d4164" fill-opacity=".22"/><rect class="skyline-reflection skyline-reflection-light" x="225.5" y="166.0" width="5.0" height=".8" rx=".4" fill="#ffd28a" fill-opacity=".34"/><rect class="skyline-reflection" x="237.9" y="165.0" width="13.9" height="1.1" rx=".5" fill="#1f4a59" fill-opacity=".22"/><rect class="skyline-reflection" x="238.8" y="166.2" width="11.8" height=".75" rx=".5" fill="#1f4a59" fill-opacity=".22"/><rect class="skyline-reflection" x="255.6" y="165.0" width="13.6" height="1.1" rx=".5" fill="#1f4a59" fill-opacity=".22"/><rect class="skyline-reflection" x="255.6" y="166.0" width="11.5" height=".75" rx=".5" fill="#1f4a59" fill-opacity=".22"/><rect class="skyline-reflection" x="271.2" y="165.0" width="13.4" height="1.1" rx=".5" fill="#304560" fill-opacity=".22"/><rect class="skyline-reflection" x="272.3" y="166.2" width="11.4" height=".75" rx=".5" fill="#304560" fill-opacity=".22"/><rect class="skyline-reflection" x="287.7" y="165.0" width="14.5" height="1.1" rx=".5" fill="#1f4a59" fill-opacity=".22"/><rect class="skyline-reflection" x="289.7" y="166.6" width="12.2" height=".75" rx=".5" fill="#1f4a59" fill-opacity=".22"/><rect class="skyline-reflection" x="304.2" y="165.0" width="12.5" height="1.1" rx=".5" fill="#274767" fill-opacity=".22"/><rect class="skyline-reflection" x="305.7" y="166.3" width="10.6" height=".75" rx=".5" fill="#274767" fill-opacity=".22"/><rect class="skyline-reflection" x="174.3" y="165.0" width="10.9" height="1.1" rx=".5" fill="#11415d" fill-opacity=".36"/><rect class="skyline-reflection" x="176.8" y="167.0" width="9.7" height=".75" rx=".5" fill="#11415d" fill-opacity=".36"/><rect class="skyline-reflection" x="175.5" y="169.0" width="8.6" height=".75" rx=".5" fill="#11415d" fill-opacity=".36"/><rect class="skyline-reflection skyline-reflection-light" x="177.8" y="166.0" width="5.8" height=".8" rx=".4" fill="#ffd28a" fill-opacity=".34"/><g class="skyline-midrise" data-height="34.6" data-width="15.2" data-score="0.707" data-density="0.701"><title>2026-07-01: 101.7M activity district</title><path class="by skyline-building skyline-midrise-0" style="animation-delay:0.00s" d="M20.3 163V133.44H22.5V128.44H35.5V163Z" fill="#1c3c55" fill-opacity="0.96"/><g clip-path="url(#skylineCliplot0)"><rect x="32.7" y="128.4" width="2.7" height="34.6" fill="#101827" fill-opacity=".24"/><path d="M27.9 132.44V160" stroke="#ffd28a" stroke-opacity=".35" stroke-width=".7"/></g></g><g class="skyline-midrise" data-height="34.6" data-width="19.5" data-score="0.649" data-density="0.640"><title>2026-07-02: 92.6M activity district</title><path class="by skyline-building skyline-midrise-2" style="animation-delay:0.03s" d="M35.3 163V135.44Q40.8 128.44 47.4 129.44Q52.0 131.44 54.8 135.44V163Z" fill="#1f4a59" fill-opacity="0.96"/><g clip-path="url(#skylineCliplot1)"><rect x="51.3" y="128.4" width="3.5" height="34.6" fill="#101827" fill-opacity=".24"/><path d="M45.0 132.44V160" stroke="#ffd28a" stroke-opacity=".35" stroke-width=".7"/></g></g><g class="skyline-highrise" data-height="47.5" data-width="14.8" data-score="0.664" data-density="0.603"><title>2026-07-03: 88.4M activity district</title><path class="by skyline-building skyline-highrise-3" style="animation-delay:0.05s" d="M54.4 163V127.47999999999999H55.8V120.47999999999999H58.8V115.47999999999999H63.5V123.47999999999999H66.8V127.47999999999999H69.2V163Z" fill="#263f60" fill-opacity="0.96"/><g clip-path="url(#skylineCliplot2)"><rect x="66.5" y="115.5" width="2.7" height="47.5" fill="#101827" fill-opacity=".24"/><path d="M61.8 119.47999999999999V160" stroke="#ffd28a" stroke-opacity=".35" stroke-width=".7"/></g></g><g class="skyline-midrise" data-height="30.9" data-width="18.0" data-score="0.333" data-density="0.335"><title>2026-07-04: 0 activity district</title><path class="by skyline-building skyline-midrise-3" style="animation-delay:0.08s" d="M69.2 163V140.07395465318703H71.9V135.07395465318703H84.5V140.07395465318703H87.2V163Z" fill="#304560" fill-opacity="0.96"/><g clip-path="url(#skylineCliplot3)"><rect x="84.0" y="132.1" width="3.2" height="30.9" fill="#101827" fill-opacity=".24"/><path d="M78.2 136.07395465318703V160" stroke="#ffd28a" stroke-opacity=".35" stroke-width=".7"/></g></g><g class="skyline-midrise" data-height="22.0" data-width="16.5" data-score="0.027" data-density="0.084"><title>2026-07-04: 0 activity district</title><path class="by skyline-building skyline-midrise-1" style="animation-delay:0.10s" d="M86.4 163V150H89.4V145H96.6V141H100.3V148H102.9V163Z" fill="#274767" fill-opacity="0.96"/><g clip-path="url(#skylineCliplot4)"><rect x="99.9" y="141.0" width="3.0" height="22.0" fill="#101827" fill-opacity=".24"/><path d="M94.7 145V160" stroke="#ffd28a" stroke-opacity=".35" stroke-width=".7"/></g></g><g class="skyline-field"><path d="M102.6 163V160.0q9.0 -2 17.9 0V163Z" fill="#203f39"/><circle cx="111.5" cy="158.9" r="3.2" fill="#759f76" fill-opacity=".9"/><path d="M111.5 161v-2.104172432795167" stroke="#384c38" stroke-width=".8"/></g><g class="skyline-field"><path d="M118.7 163V160.0q9.6 -2 19.2 0V163Z" fill="#203f39"/><circle cx="128.3" cy="155.8" r="3.5" fill="#759f76" fill-opacity=".9"/><path d="M128.3 161v-5.1804361385293305" stroke="#384c38" stroke-width=".8"/></g><g class="skyline-field"><path d="M135.8 163V160.0q9.1 -2 18.2 0V163Z" fill="#203f39"/><circle cx="144.9" cy="157.9" r="3.3" fill="#759f76" fill-opacity=".9"/><path d="M144.9 161v-3.0955126085318625" stroke="#384c38" stroke-width=".8"/></g><g class="skyline-midrise" data-height="22.0" data-width="17.7" data-score="0.159" data-density="0.210"><title>2026-07-07: 7M activity district</title><path class="by skyline-building skyline-midrise-3" style="animation-delay:0.13s" d="M152.6 163V149H155.3V144H167.7V149H170.3V163Z" fill="#304560" fill-opacity="0.96"/><g clip-path="url(#skylineCliplot8)"><rect x="167.2" y="141.0" width="3.2" height="22.0" fill="#101827" fill-opacity=".24"/><path d="M161.5 145V160" stroke="#ffd28a" stroke-opacity=".35" stroke-width=".7"/></g></g><g class="skyline-highrise" data-height="47.5" data-width="11.6" data-score="0.761" data-density="0.656"><title>2026-07-08: 113.9M activity district</title><path class="by skyline-building skyline-highrise-2" style="animation-delay:0.15s" d="M172.1 163V126.47999999999999Q175.0 116.47999999999999 178.1 115.47999999999999Q181.4 116.47999999999999 183.7 126.47999999999999V163Z" fill="#164861" fill-opacity="0.96"/><g clip-path="url(#skylineCliplot9)"><rect x="181.6" y="115.5" width="2.1" height="47.5" fill="#101827" fill-opacity=".24"/><path d="M177.9 119.47999999999999V160" stroke="#ffd28a" stroke-opacity=".35" stroke-width=".7"/></g></g><g class="skyline-midrise" data-height="34.6" data-width="18.1" data-score="0.623" data-density="0.605"><title>2026-07-09: 53.2M activity district</title><path class="by skyline-building skyline-midrise-2" style="animation-delay:0.18s" d="M185.8 163V135.44Q190.9 128.44 197.0 129.44Q201.4 131.44 203.9 135.44V163Z" fill="#1f4a59" fill-opacity="0.96"/><g clip-path="url(#skylineCliplot10)"><rect x="200.6" y="128.4" width="3.2" height="34.6" fill="#101827" fill-opacity=".24"/><path d="M194.9 132.44V160" stroke="#ffd28a" stroke-opacity=".35" stroke-width=".7"/></g></g><g class="skyline-highrise" data-height="47.5" data-width="12.2" data-score="0.592" data-density="0.593"><title>2026-07-09: 53.2M activity district</title><path class="by skyline-building skyline-highrise-0" style="animation-delay:0.20s" d="M205.3 163V129.48H206.7V121.47999999999999H208.7V115.47999999999999H214.3V122.47999999999999H216.2V129.48H217.4V163Z" fill="#153553" fill-opacity="0.96"/><g clip-path="url(#skylineCliplot11)"><rect x="215.2" y="115.5" width="2.2" height="47.5" fill="#101827" fill-opacity=".24"/><path d="M211.3 119.47999999999999V160" stroke="#ffd28a" stroke-opacity=".35" stroke-width=".7"/></g></g><g class="skyline-highrise" data-height="47.5" data-width="12.0" data-score="0.908" data-density="0.772"><title>2026-07-10: 144.9M activity district</title><path class="by skyline-building skyline-highrise-1" style="animation-delay:0.23s" d="M222.0 163V128.48H223.8V120.47999999999999H226.1V115.47999999999999H230.4V120.47999999999999H232.3V128.48H234.0V163Z" fill="#1d4164" fill-opacity="0.96"/><g clip-path="url(#skylineCliplot12)"><rect x="231.8" y="115.5" width="2.2" height="47.5" fill="#101827" fill-opacity=".24"/><path d="M228.0 119.47999999999999V160" stroke="#ffd28a" stroke-opacity=".35" stroke-width=".7"/></g></g><g class="skyline-midrise" data-height="27.6" data-width="17.9" data-score="0.273" data-density="0.323"><title>2026-07-11: 538.4k activity district</title><path class="by skyline-building skyline-midrise-2" style="animation-delay:0.25s" d="M235.9 163V142.43598760884535Q240.9 135.43598760884535 247.0 136.43598760884535Q251.3 138.43598760884535 253.8 142.43598760884535V163Z" fill="#1f4a59" fill-opacity="0.96"/><g clip-path="url(#skylineCliplot13)"><rect x="250.6" y="135.4" width="3.2" height="27.6" fill="#101827" fill-opacity=".24"/><path d="M244.8 139.43598760884535V160" stroke="#ffd28a" stroke-opacity=".35" stroke-width=".7"/></g></g><g class="skyline-midrise" data-height="22.0" data-width="17.4" data-score="0.129" data-density="0.200"><title>2026-07-11: 538.4k activity district</title><path class="by skyline-building skyline-midrise-2" style="animation-delay:0.28s" d="M252.8 163V148Q257.6 141 263.5 142Q267.7 144 270.2 148V163Z" fill="#1f4a59" fill-opacity="0.96"/><g clip-path="url(#skylineCliplot14)"><rect x="267.0" y="141.0" width="3.1" height="22.0" fill="#101827" fill-opacity=".24"/><path d="M261.5 145V160" stroke="#ffd28a" stroke-opacity=".35" stroke-width=".7"/></g></g><g class="skyline-midrise" data-height="26.5" data-width="17.2" data-score="0.253" data-density="0.262"><title>2026-07-12: 26.8M activity district</title><path class="by skyline-building skyline-midrise-3" style="animation-delay:0.30s" d="M269.5 163V144.53666621125245H272.1V139.53666621125245H284.1V144.53666621125245H286.7V163Z" fill="#304560" fill-opacity="0.96"/><g clip-path="url(#skylineCliplot15)"><rect x="283.6" y="136.5" width="3.1" height="26.5" fill="#101827" fill-opacity=".24"/><path d="M278.1 140.53666621125245V160" stroke="#ffd28a" stroke-opacity=".35" stroke-width=".7"/></g></g><g class="skyline-midrise" data-height="34.6" data-width="18.6" data-score="0.401" data-density="0.356"><title>2026-07-13: 50.1M activity district</title><path class="by skyline-building skyline-midrise-2" style="animation-delay:0.33s" d="M285.6 163V135.44Q290.8 128.44 297.2 129.44Q301.6 131.44 304.2 135.44V163Z" fill="#1f4a59" fill-opacity="0.96"/><g clip-path="url(#skylineCliplot16)"><rect x="300.9" y="128.4" width="3.3" height="34.6" fill="#101827" fill-opacity=".24"/><path d="M294.9 132.44V160" stroke="#ffd28a" stroke-opacity=".35" stroke-width=".7"/></g></g><g class="skyline-midrise" data-height="29.2" data-width="16.0" data-score="0.302" data-density="0.293"><title>2026-07-14: 32.2M activity district</title><path class="by skyline-building skyline-midrise-1" style="animation-delay:0.35s" d="M303.3 163V142.83111600809062H306.2V137.83111600809062H313.2V133.83111600809062H316.7V140.83111600809062H319.3V163Z" fill="#274767" fill-opacity="0.96"/><g clip-path="url(#skylineCliplot17)"><rect x="316.4" y="133.8" width="2.9" height="29.2" fill="#101827" fill-opacity=".24"/><path d="M311.3 137.83111600809062V160" stroke="#ffd28a" stroke-opacity=".35" stroke-width=".7"/></g></g><rect class="skyline-podium" x="170.6" y="153.0" width="20.2" height="10" fill="#21425b" fill-opacity=".94"/><g class="skyline-landmark" data-height="56.2" data-width="13.9" data-score="0.877" data-density="0.742"><title>2026-07-08: 113.9M activity landmark</title><path class="by skyline-building skyline-landmark-2" style="animation-delay:0.38s" d="M173.8 163V139.4128H177.7V119.3216H176.3Q176.3 115.5216 178.5 114.64160000000001L180.0 113.5216L180.7 106.84L181.4 113.5216L182.9 114.64160000000001Q185.2 115.5216 185.2 119.3216H183.8V139.4128H187.7V163Z" fill="#11415d" fill-opacity="1"/><g clip-path="url(#skylineClippeak7)"><rect x="184.3" y="106.8" width="3.3" height="56.2" fill="#101827" fill-opacity=".24"/><path d="M180.7 110.84V160" stroke="#ffd28a" stroke-opacity=".35" stroke-width=".7"/></g></g><path class="skyline-street skyline-shore" d="M20 163H320" stroke="#ffd28a" stroke-opacity=".62" stroke-width="1"/><circle class="skyline-shore-light" cx="40" cy="162" r="1.05" fill="#ffd28a" fill-opacity=".88"/><path d="M37 165h6" stroke="#ffd28a" stroke-opacity=".23" stroke-width=".6"/><circle class="skyline-shore-light" cx="98" cy="162" r="1.05" fill="#ffd28a" fill-opacity=".88"/><path d="M95 165h6" stroke="#ffd28a" stroke-opacity=".23" stroke-width=".6"/><circle class="skyline-shore-light" cx="156" cy="162" r="1.05" fill="#ffd28a" fill-opacity=".88"/><path d="M153 165h6" stroke="#ffd28a" stroke-opacity=".23" stroke-width=".6"/><circle class="skyline-shore-light" cx="214" cy="162" r="1.05" fill="#ffd28a" fill-opacity=".88"/><path d="M211 165h6" stroke="#ffd28a" stroke-opacity=".23" stroke-width=".6"/><circle class="skyline-shore-light" cx="272" cy="162" r="1.05" fill="#ffd28a" fill-opacity=".88"/><path d="M269 165h6" stroke="#ffd28a" stroke-opacity=".23" stroke-width=".6"/></g>
<text class="f" style="animation-delay:0.96s" x="20" y="190" font-size="9.5" fill="#9aa5ce">in 1.8M · out 11.8M · cache 3.91B</text>
</g>
</svg>