<svg xmlns="http://www.w3.org/2000/svg" width="340" height="200" viewBox="0 0 340 200" role="img" aria-label="Token Stack">
<title>Token Stack</title>
<style>
.f{opacity:0;animation:fu 0.70s cubic-bezier(.4,0,.2,1) forwards}
@keyframes fu{from{opacity:0;transform:translateY(7px)}to{opacity:1;transform:translateY(0)}}
.bx{transform:scaleX(0);transform-box:fill-box;transform-origin:left center;animation:gx 0.90s cubic-bezier(.2,.6,.2,1) forwards}
@keyframes gx{to{transform:scaleX(1)}}
.by{transform:scaleY(0);transform-box:fill-box;transform-origin:center bottom;animation:gy 0.80s cubic-bezier(.2,.6,.2,1) forwards}
@keyframes gy{to{transform:scaleY(1)}}

@media (prefers-reduced-motion:reduce){*{animation-duration:.01s!important;animation-delay:0s!important}}
</style>
<rect x="0.5" y="0.5" width="339" height="199" rx="8" fill="#1a1b27" stroke="#3b4261"/>

<defs><linearGradient id="big" x1="0" y1="0" x2="1" y2="0">
<stop offset="0%" stop-color="#70a5fd"/><stop offset="100%" stop-color="#bb9af7"/>
</linearGradient></defs>
<g font-family="'Segoe UI',Ubuntu,Sans-Serif">
<text class="f" x="20" y="27" font-size="14" font-weight="600" fill="#70a5fd">⚡ Token Stack</text>
<text class="f" style="animation-delay:0.12s" x="20" y="66" font-size="30" font-weight="800" fill="url(#big)">3.93B</text>
<text class="f" style="animation-delay:0.24s" x="20" y="85" font-size="10.5" fill="#9aa5ce">tokens all time · est. $2,914.05 · 🔥 9d streak</text>
<text class="f" style="animation-delay:0.36s" x="320" y="97" font-size="9.5" text-anchor="end" fill="#9aa5ce">last 119d · 3.93B</text>
<rect class="f" style="animation-delay:0.00s" x="72.5" y="144.0" width="8" height="8" rx="2.5" fill="#24283b"><title>2026-03-19: 0</title></rect>
<rect class="f" style="animation-delay:0.01s" x="72.5" y="155.0" width="8" height="8" rx="2.5" fill="#24283b"><title>2026-03-20: 0</title></rect>
<rect class="f" style="animation-delay:0.02s" x="72.5" y="166.0" width="8" height="8" rx="2.5" fill="#24283b"><title>2026-03-21: 0</title></rect>
<rect class="f" style="animation-delay:0.04s" x="83.5" y="100.0" width="8" height="8" rx="2.5" fill="#24283b"><title>2026-03-22: 0</title></rect>
<rect class="f" style="animation-delay:0.05s" x="83.5" y="111.0" width="8" height="8" rx="2.5" fill="#24283b"><title>2026-03-23: 0</title></rect>
<rect class="f" style="animation-delay:0.06s" x="83.5" y="122.0" width="8" height="8" rx="2.5" fill="#24283b"><title>2026-03-24: 0</title></rect>
<rect class="f" style="animation-delay:0.07s" x="83.5" y="133.0" width="8" height="8" rx="2.5" fill="#24283b"><title>2026-03-25: 0</title></rect>
<rect class="f" style="animation-delay:0.08s" x="83.5" y="144.0" width="8" height="8" rx="2.5" fill="#24283b"><title>2026-03-26: 0</title></rect>
<rect class="f" style="animation-delay:0.10s" x="83.5" y="155.0" width="8" height="8" rx="2.5" fill="#24283b"><title>2026-03-27: 0</title></rect>
<rect class="f" style="animation-delay:0.11s" x="83.5" y="166.0" width="8" height="8" rx="2.5" fill="#24283b"><title>2026-03-28: 0</title></rect>
<rect class="f" style="animation-delay:0.12s" x="94.5" y="100.0" width="8" height="8" rx="2.5" fill="#24283b"><title>2026-03-29: 0</title></rect>
<rect class="f" style="animation-delay:0.13s" x="94.5" y="111.0" width="8" height="8" rx="2.5" fill="#24283b"><title>2026-03-30: 0</title></rect>
<rect class="f" style="animation-delay:0.14s" x="94.5" y="122.0" width="8" height="8" rx="2.5" fill="#24283b"><title>2026-03-31: 0</title></rect>
<rect class="f" style="animation-delay:0.16s" x="94.5" y="133.0" width="8" height="8" rx="2.5" fill="#24283b"><title>2026-04-01: 0</title></rect>
<rect class="f" style="animation-delay:0.17s" x="94.5" y="144.0" width="8" height="8" rx="2.5" fill="#24283b"><title>2026-04-02: 0</title></rect>
<rect class="f" style="animation-delay:0.18s" x="94.5" y="155.0" width="8" height="8" rx="2.5" fill="#24283b"><title>2026-04-03: 0</title></rect>
<rect class="f" style="animation-delay:0.19s" x="94.5" y="166.0" width="8" height="8" rx="2.5" fill="#24283b"><title>2026-04-04: 0</title></rect>
<rect class="f" style="animation-delay:0.20s" x="105.5" y="100.0" width="8" height="8" rx="2.5" fill="#24283b"><title>2026-04-05: 0</title></rect>
<rect class="f" style="animation-delay:0.22s" x="105.5" y="111.0" width="8" height="8" rx="2.5" fill="#24283b"><title>2026-04-06: 0</title></rect>
<rect class="f" style="animation-delay:0.23s" x="105.5" y="122.0" width="8" height="8" rx="2.5" fill="#24283b"><title>2026-04-07: 0</title></rect>
<rect class="f" style="animation-delay:0.24s" x="105.5" y="133.0" width="8" height="8" rx="2.5" fill="#24283b"><title>2026-04-08: 0</title></rect>
<rect class="f" style="animation-delay:0.25s" x="105.5" y="144.0" width="8" height="8" rx="2.5" fill="#24283b"><title>2026-04-09: 0</title></rect>
<rect class="f" style="animation-delay:0.26s" x="105.5" y="155.0" width="8" height="8" rx="2.5" fill="#24283b"><title>2026-04-10: 0</title></rect>
<rect class="f" style="animation-delay:0.28s" x="105.5" y="166.0" width="8" height="8" rx="2.5" fill="#24283b"><title>2026-04-11: 0</title></rect>
<rect class="f" style="animation-delay:0.29s" x="116.5" y="100.0" width="8" height="8" rx="2.5" fill="#24283b"><title>2026-04-12: 0</title></rect>
<rect class="f" style="animation-delay:0.30s" x="116.5" y="111.0" width="8" height="8" rx="2.5" fill="#24283b"><title>2026-04-13: 0</title></rect>
<rect class="f" style="animation-delay:0.31s" x="116.5" y="122.0" width="8" height="8" rx="2.5" fill="#24283b"><title>2026-04-14: 0</title></rect>
<rect class="f" style="animation-delay:0.32s" x="116.5" y="133.0" width="8" height="8" rx="2.5" fill="#24283b"><title>2026-04-15: 0</title></rect>
<rect class="f" style="animation-delay:0.34s" x="116.5" y="144.0" width="8" height="8" rx="2.5" fill="#24283b"><title>2026-04-16: 0</title></rect>
<rect class="f" style="animation-delay:0.35s" x="116.5" y="155.0" width="8" height="8" rx="2.5" fill="#24283b"><title>2026-04-17: 0</title></rect>
<rect class="f" style="animation-delay:0.36s" x="116.5" y="166.0" width="8" height="8" rx="2.5" fill="#24283b"><title>2026-04-18: 0</title></rect>
<rect class="f" style="animation-delay:0.37s" x="127.5" y="100.0" width="8" height="8" rx="2.5" fill="#24283b"><title>2026-04-19: 0</title></rect>
<rect class="f" style="animation-delay:0.38s" x="127.5" y="111.0" width="8" height="8" rx="2.5" fill="#24283b"><title>2026-04-20: 0</title></rect>
<rect class="f" style="animation-delay:0.40s" x="127.5" y="122.0" width="8" height="8" rx="2.5" fill="#24283b"><title>2026-04-21: 0</title></rect>
<rect class="f" style="animation-delay:0.41s" x="127.5" y="133.0" width="8" height="8" rx="2.5" fill="#24283b"><title>2026-04-22: 0</title></rect>
<rect class="f" style="animation-delay:0.42s" x="127.5" y="144.0" width="8" height="8" rx="2.5" fill="#24283b"><title>2026-04-23: 0</title></rect>
<rect class="f" style="animation-delay:0.43s" x="127.5" y="155.0" width="8" height="8" rx="2.5" fill="#24283b"><title>2026-04-24: 0</title></rect>
<rect class="f" style="animation-delay:0.44s" x="127.5" y="166.0" width="8" height="8" rx="2.5" fill="#24283b"><title>2026-04-25: 0</title></rect>
<rect class="f" style="animation-delay:0.46s" x="138.5" y="100.0" width="8" height="8" rx="2.5" fill="#24283b"><title>2026-04-26: 0</title></rect>
<rect class="f" style="animation-delay:0.47s" x="138.5" y="111.0" width="8" height="8" rx="2.5" fill="#24283b"><title>2026-04-27: 0</title></rect>
<rect class="f" style="animation-delay:0.48s" x="138.5" y="122.0" width="8" height="8" rx="2.5" fill="#24283b"><title>2026-04-28: 0</title></rect>
<rect class="f" style="animation-delay:0.49s" x="138.5" y="133.0" width="8" height="8" rx="2.5" fill="#24283b"><title>2026-04-29: 0</title></rect>
<rect class="f" style="animation-delay:0.50s" x="138.5" y="144.0" width="8" height="8" rx="2.5" fill="#24283b"><title>2026-04-30: 0</title></rect>
<rect class="f" style="animation-delay:0.52s" x="138.5" y="155.0" width="8" height="8" rx="2.5" fill="#24283b"><title>2026-05-01: 0</title></rect>
<rect class="f" style="animation-delay:0.53s" x="138.5" y="166.0" width="8" height="8" rx="2.5" fill="#24283b"><title>2026-05-02: 0</title></rect>
<rect class="f" style="animation-delay:0.54s" x="149.5" y="100.0" width="8" height="8" rx="2.5" fill="#24283b"><title>2026-05-03: 0</title></rect>
<rect class="f" style="animation-delay:0.55s" x="149.5" y="111.0" width="8" height="8" rx="2.5" fill="#24283b"><title>2026-05-04: 0</title></rect>
<rect class="f" style="animation-delay:0.56s" x="149.5" y="122.0" width="8" height="8" rx="2.5" fill="#24283b"><title>2026-05-05: 0</title></rect>
<rect class="f" style="animation-delay:0.58s" x="149.5" y="133.0" width="8" height="8" rx="2.5" fill="#24283b"><title>2026-05-06: 0</title></rect>
<rect class="f" style="animation-delay:0.59s" x="149.5" y="144.0" width="8" height="8" rx="2.5" fill="#24283b"><title>2026-05-07: 0</title></rect>
<rect class="f" style="animation-delay:0.60s" x="149.5" y="155.0" width="8" height="8" rx="2.5" fill="#24283b"><title>2026-05-08: 0</title></rect>
<rect class="f" style="animation-delay:0.61s" x="149.5" y="166.0" width="8" height="8" rx="2.5" fill="#24283b"><title>2026-05-09: 0</title></rect>
<rect class="f" style="animation-delay:0.62s" x="160.5" y="100.0" width="8" height="8" rx="2.5" fill="#24283b"><title>2026-05-10: 0</title></rect>
<rect class="f" style="animation-delay:0.64s" x="160.5" y="111.0" width="8" height="8" rx="2.5" fill="#24283b"><title>2026-05-11: 0</title></rect>
<rect class="f" style="animation-delay:0.65s" x="160.5" y="122.0" width="8" height="8" rx="2.5" fill="#24283b"><title>2026-05-12: 0</title></rect>
<rect class="f" style="animation-delay:0.66s" x="160.5" y="133.0" width="8" height="8" rx="2.5" fill="#24283b"><title>2026-05-13: 0</title></rect>
<rect class="f" style="animation-delay:0.67s" x="160.5" y="144.0" width="8" height="8" rx="2.5" fill="#24283b"><title>2026-05-14: 0</title></rect>
<rect class="f" style="animation-delay:0.68s" x="160.5" y="155.0" width="8" height="8" rx="2.5" fill="#24283b"><title>2026-05-15: 0</title></rect>
<rect class="f" style="animation-delay:0.70s" x="160.5" y="166.0" width="8" height="8" rx="2.5" fill="#24283b"><title>2026-05-16: 0</title></rect>
<rect class="f" style="animation-delay:0.71s" x="171.5" y="100.0" width="8" height="8" rx="2.5" fill="#24283b"><title>2026-05-17: 0</title></rect>
<rect class="f" style="animation-delay:0.72s" x="171.5" y="111.0" width="8" height="8" rx="2.5" fill="#24283b"><title>2026-05-18: 0</title></rect>
<rect class="f" style="animation-delay:0.73s" x="171.5" y="122.0" width="8" height="8" rx="2.5" fill="#7aa2f7" fill-opacity="0.55"><title>2026-05-19: 25.5M</title></rect>
<rect class="f" style="animation-delay:0.74s" x="171.5" y="133.0" width="8" height="8" rx="2.5" fill="#7aa2f7" fill-opacity="0.3"><title>2026-05-20: 11.3M</title></rect>
<rect class="f" style="animation-delay:0.76s" x="171.5" y="144.0" width="8" height="8" rx="2.5" fill="#7aa2f7" fill-opacity="0.3"><title>2026-05-21: 21.8M</title></rect>
<rect class="f" style="animation-delay:0.77s" x="171.5" y="155.0" width="8" height="8" rx="2.5" fill="#7aa2f7" fill-opacity="0.3"><title>2026-05-22: 11.5M</title></rect>
<rect class="f" style="animation-delay:0.78s" x="171.5" y="166.0" width="8" height="8" rx="2.5" fill="#7aa2f7" fill-opacity="0.3"><title>2026-05-23: 3.8M</title></rect>
<rect class="f" style="animation-delay:0.79s" x="182.5" y="100.0" width="8" height="8" rx="2.5" fill="#7aa2f7" fill-opacity="0.3"><title>2026-05-24: 1.1M</title></rect>
<rect class="f" style="animation-delay:0.80s" x="182.5" y="111.0" width="8" height="8" rx="2.5" fill="#7aa2f7" fill-opacity="0.3"><title>2026-05-25: 2.1M</title></rect>
<rect class="f" style="animation-delay:0.82s" x="182.5" y="122.0" width="8" height="8" rx="2.5" fill="#7aa2f7" fill-opacity="0.55"><title>2026-05-26: 37.7M</title></rect>
<rect class="f" style="animation-delay:0.83s" x="182.5" y="133.0" width="8" height="8" rx="2.5" fill="#24283b"><title>2026-05-27: 0</title></rect>
<rect class="f" style="animation-delay:0.84s" x="182.5" y="144.0" width="8" height="8" rx="2.5" fill="#7aa2f7" fill-opacity="0.3"><title>2026-05-28: 10.7M</title></rect>
<rect class="f" style="animation-delay:0.85s" x="182.5" y="155.0" width="8" height="8" rx="2.5" fill="#24283b"><title>2026-05-29: 0</title></rect>
<rect class="f" style="animation-delay:0.86s" x="182.5" y="166.0" width="8" height="8" rx="2.5" fill="#24283b"><title>2026-05-30: 0</title></rect>
<rect class="f" style="animation-delay:0.88s" x="193.5" y="100.0" width="8" height="8" rx="2.5" fill="#24283b"><title>2026-05-31: 0</title></rect>
<rect class="f" style="animation-delay:0.89s" x="193.5" y="111.0" width="8" height="8" rx="2.5" fill="#7aa2f7" fill-opacity="0.3"><title>2026-06-01: 20.2M</title></rect>
<rect class="f" style="animation-delay:0.90s" x="193.5" y="122.0" width="8" height="8" rx="2.5" fill="#7aa2f7" fill-opacity="0.55"><title>2026-06-02: 28.2M</title></rect>
<rect class="f" style="animation-delay:0.91s" x="193.5" y="133.0" width="8" height="8" rx="2.5" fill="#24283b"><title>2026-06-03: 0</title></rect>
<rect class="f" style="animation-delay:0.92s" x="193.5" y="144.0" width="8" height="8" rx="2.5" fill="#7aa2f7" fill-opacity="1"><title>2026-06-04: 129M</title></rect>
<rect class="f" style="animation-delay:0.94s" x="193.5" y="155.0" width="8" height="8" rx="2.5" fill="#7aa2f7" fill-opacity="1"><title>2026-06-05: 149.6M</title></rect>
<rect class="f" style="animation-delay:0.95s" x="193.5" y="166.0" width="8" height="8" rx="2.5" fill="#24283b"><title>2026-06-06: 0</title></rect>
<rect class="f" style="animation-delay:0.96s" x="204.5" y="100.0" width="8" height="8" rx="2.5" fill="#7aa2f7" fill-opacity="1"><title>2026-06-07: 363.5M</title></rect>
<rect class="f" style="animation-delay:0.97s" x="204.5" y="111.0" width="8" height="8" rx="2.5" fill="#7aa2f7" fill-opacity="1"><title>2026-06-08: 160.2M</title></rect>
<rect class="f" style="animation-delay:0.98s" x="204.5" y="122.0" width="8" height="8" rx="2.5" fill="#7aa2f7" fill-opacity="0.8"><title>2026-06-09: 99.8M</title></rect>
<rect class="f" style="animation-delay:1.00s" x="204.5" y="133.0" width="8" height="8" rx="2.5" fill="#7aa2f7" fill-opacity="0.55"><title>2026-06-10: 56.4M</title></rect>
<rect class="f" style="animation-delay:1.01s" x="204.5" y="144.0" width="8" height="8" rx="2.5" fill="#7aa2f7" fill-opacity="0.8"><title>2026-06-11: 101M</title></rect>
<rect class="f" style="animation-delay:1.02s" x="204.5" y="155.0" width="8" height="8" rx="2.5" fill="#7aa2f7" fill-opacity="1"><title>2026-06-12: 143M</title></rect>
<rect class="f" style="animation-delay:1.03s" x="204.5" y="166.0" width="8" height="8" rx="2.5" fill="#24283b"><title>2026-06-13: 0</title></rect>
<rect class="f" style="animation-delay:1.04s" x="215.5" y="100.0" width="8" height="8" rx="2.5" fill="#24283b"><title>2026-06-14: 0</title></rect>
<rect class="f" style="animation-delay:1.06s" x="215.5" y="111.0" width="8" height="8" rx="2.5" fill="#7aa2f7" fill-opacity="0.55"><title>2026-06-15: 63.5M</title></rect>
<rect class="f" style="animation-delay:1.07s" x="215.5" y="122.0" width="8" height="8" rx="2.5" fill="#7aa2f7" fill-opacity="0.8"><title>2026-06-16: 120.3M</title></rect>
<rect class="f" style="animation-delay:1.08s" x="215.5" y="133.0" width="8" height="8" rx="2.5" fill="#7aa2f7" fill-opacity="0.55"><title>2026-06-17: 73.1M</title></rect>
<rect class="f" style="animation-delay:1.09s" x="215.5" y="144.0" width="8" height="8" rx="2.5" fill="#7aa2f7" fill-opacity="1"><title>2026-06-18: 134.7M</title></rect>
<rect class="f" style="animation-delay:1.10s" x="215.5" y="155.0" width="8" height="8" rx="2.5" fill="#7aa2f7" fill-opacity="1"><title>2026-06-19: 277M</title></rect>
<rect class="f" style="animation-delay:1.12s" x="215.5" y="166.0" width="8" height="8" rx="2.5" fill="#7aa2f7" fill-opacity="0.8"><title>2026-06-20: 82.4M</title></rect>
<rect class="f" style="animation-delay:1.13s" x="226.5" y="100.0" width="8" height="8" rx="2.5" fill="#7aa2f7" fill-opacity="0.55"><title>2026-06-21: 79.7M</title></rect>
<rect class="f" style="animation-delay:1.14s" x="226.5" y="111.0" width="8" height="8" rx="2.5" fill="#7aa2f7" fill-opacity="1"><title>2026-06-22: 148.8M</title></rect>
<rect class="f" style="animation-delay:1.15s" x="226.5" y="122.0" width="8" height="8" rx="2.5" fill="#7aa2f7" fill-opacity="1"><title>2026-06-23: 313M</title></rect>
<rect class="f" style="animation-delay:1.16s" x="226.5" y="133.0" width="8" height="8" rx="2.5" fill="#7aa2f7" fill-opacity="0.8"><title>2026-06-24: 90.4M</title></rect>
<rect class="f" style="animation-delay:1.18s" x="226.5" y="144.0" width="8" height="8" rx="2.5" fill="#7aa2f7" fill-opacity="0.8"><title>2026-06-25: 97.3M</title></rect>
<rect class="f" style="animation-delay:1.19s" x="226.5" y="155.0" width="8" height="8" rx="2.5" fill="#7aa2f7" fill-opacity="0.8"><title>2026-06-26: 126.2M</title></rect>
<rect class="f" style="animation-delay:1.20s" x="226.5" y="166.0" width="8" height="8" rx="2.5" fill="#24283b"><title>2026-06-27: 0</title></rect>
<rect class="f" style="animation-delay:1.21s" x="237.5" y="100.0" width="8" height="8" rx="2.5" fill="#7aa2f7" fill-opacity="0.3"><title>2026-06-28: 2.1M</title></rect>
<rect class="f" style="animation-delay:1.22s" x="237.5" y="111.0" width="8" height="8" rx="2.5" fill="#7aa2f7" fill-opacity="1"><title>2026-06-29: 209.9M</title></rect>
<rect class="f" style="animation-delay:1.24s" x="237.5" y="122.0" width="8" height="8" rx="2.5" fill="#7aa2f7" fill-opacity="0.3"><title>2026-06-30: 20.6M</title></rect>
<rect class="f" style="animation-delay:1.25s" x="237.5" y="133.0" width="8" height="8" rx="2.5" fill="#7aa2f7" fill-opacity="0.8"><title>2026-07-01: 101.7M</title></rect>
<rect class="f" style="animation-delay:1.26s" x="237.5" y="144.0" width="8" height="8" rx="2.5" fill="#7aa2f7" fill-opacity="0.8"><title>2026-07-02: 92.6M</title></rect>
<rect class="f" style="animation-delay:1.27s" x="237.5" y="155.0" width="8" height="8" rx="2.5" fill="#7aa2f7" fill-opacity="0.8"><title>2026-07-03: 88.4M</title></rect>
<rect class="f" style="animation-delay:1.28s" x="237.5" y="166.0" width="8" height="8" rx="2.5" fill="#24283b"><title>2026-07-04: 0</title></rect>
<rect class="f" style="animation-delay:1.30s" x="248.5" y="100.0" width="8" height="8" rx="2.5" fill="#24283b"><title>2026-07-05: 0</title></rect>
<rect class="f" style="animation-delay:1.31s" x="248.5" y="111.0" width="8" height="8" rx="2.5" fill="#24283b"><title>2026-07-06: 0</title></rect>
<rect class="f" style="animation-delay:1.32s" x="248.5" y="122.0" width="8" height="8" rx="2.5" fill="#7aa2f7" fill-opacity="0.3"><title>2026-07-07: 7M</title></rect>
<rect class="f" style="animation-delay:1.33s" x="248.5" y="133.0" width="8" height="8" rx="2.5" fill="#7aa2f7" fill-opacity="0.8"><title>2026-07-08: 113.9M</title></rect>
<rect class="f" style="animation-delay:1.34s" x="248.5" y="144.0" width="8" height="8" rx="2.5" fill="#7aa2f7" fill-opacity="0.55"><title>2026-07-09: 53.2M</title></rect>
<rect class="f" style="animation-delay:1.36s" x="248.5" y="155.0" width="8" height="8" rx="2.5" fill="#7aa2f7" fill-opacity="1"><title>2026-07-10: 144.9M</title></rect>
<rect class="f" style="animation-delay:1.37s" x="248.5" y="166.0" width="8" height="8" rx="2.5" fill="#7aa2f7" fill-opacity="0.3"><title>2026-07-11: 538.4k</title></rect>
<rect class="f" style="animation-delay:1.38s" x="259.5" y="100.0" width="8" height="8" rx="2.5" fill="#7aa2f7" fill-opacity="0.55"><title>2026-07-12: 26.8M</title></rect>
<rect class="f" style="animation-delay:1.39s" x="259.5" y="111.0" width="8" height="8" rx="2.5" fill="#7aa2f7" fill-opacity="0.55"><title>2026-07-13: 50.1M</title></rect>
<rect class="f" style="animation-delay:1.40s" x="259.5" y="122.0" width="8" height="8" rx="2.5" fill="#7aa2f7" fill-opacity="0.55"><title>2026-07-14: 32.2M</title></rect>
<rect class="f" style="animation-delay:1.42s" x="259.5" y="133.0" width="8" height="8" rx="2.5" fill="#24283b"><title>2026-07-15: 0</title></rect>
<text class="f" style="animation-delay:0.96s" x="20" y="190" font-size="9.5" fill="#9aa5ce">in 1.8M · out 11.8M · cache 3.91B</text>
</g>
</svg>