<svg xmlns="http://www.w3.org/2000/svg" width="340" height="200" viewBox="0 0 340 200" role="img" aria-label="Token Stack">
<title>Token Stack</title>
<style>
.f{opacity:0;animation:fu 0.70s cubic-bezier(.4,0,.2,1) forwards}
@keyframes fu{from{opacity:0;transform:translateY(7px)}to{opacity:1;transform:translateY(0)}}
.bx{transform:scaleX(0);transform-box:fill-box;transform-origin:left center;animation:gx 0.90s cubic-bezier(.2,.6,.2,1) forwards}
@keyframes gx{to{transform:scaleX(1)}}
.by{transform:scaleY(0);transform-box:fill-box;transform-origin:center bottom;animation:gy 0.80s cubic-bezier(.2,.6,.2,1) forwards}
@keyframes gy{to{transform:scaleY(1)}}
.sky-star{opacity:0;animation:twinkle 1.80s ease-in-out infinite}@keyframes twinkle{50%{opacity:.3;transform:scale(.55)}}
@media (prefers-reduced-motion:reduce){*{animation-duration:.01s!important;animation-delay:0s!important}}
</style>
<rect x="0.5" y="0.5" width="339" height="199" rx="8" fill="#1a1b27" stroke="#3b4261"/>

<defs><linearGradient id="big" x1="0" y1="0" x2="1" y2="0">
<stop offset="0%" stop-color="#70a5fd"/><stop offset="100%" stop-color="#bb9af7"/>
</linearGradient></defs>
<g font-family="'Segoe UI',Ubuntu,Sans-Serif">
<text class="f" x="20" y="27" font-size="14" font-weight="600" fill="#70a5fd">⚡ Token Stack</text>
<text class="f" style="animation-delay:0.12s" x="20" y="66" font-size="30" font-weight="800" fill="url(#big)">3.93B</text>
<text class="f" style="animation-delay:0.24s" x="20" y="85" font-size="10.5" fill="#9aa5ce">tokens all time · est. $2,911.25 · 🔥 8d streak</text>
<text class="f" style="animation-delay:0.36s" x="320" y="97" font-size="9.5" text-anchor="end" fill="#9aa5ce">last 30d · 2.55B</text>
<defs><linearGradient id="skylineSky" x1="0" y1="0" x2="0" y2="1"><stop stop-color="#1b1b4b"/><stop offset=".58" stop-color="#4d3677"/><stop offset="1" stop-color="#ec7f65"/></linearGradient><radialGradient id="skylineMoon"><stop stop-color="#fff9d4"/><stop offset="1" stop-color="#ffd88a"/></radialGradient></defs><rect x="20" y="100" width="300" height="72" rx="7" fill="url(#skylineSky)"/><circle class="sky-star" style="animation-delay:0.00s" cx="32" cy="110" r="1.3" fill="#fff3c4"/><circle class="sky-star" style="animation-delay:0.08s" cx="79" cy="129" r="0.8" fill="#fff3c4"/><circle class="sky-star" style="animation-delay:0.16s" cx="126" cy="115" r="0.8" fill="#fff3c4"/><circle class="sky-star" style="animation-delay:0.24s" cx="173" cy="134" r="1.3" fill="#fff3c4"/><circle class="sky-star" style="animation-delay:0.32s" cx="220" cy="120" r="0.8" fill="#fff3c4"/><circle class="sky-star" style="animation-delay:0.40s" cx="267" cy="139" r="0.8" fill="#fff3c4"/><circle class="sky-star" style="animation-delay:0.48s" cx="38" cy="125" r="1.3" fill="#fff3c4"/><circle class="sky-star" style="animation-delay:0.56s" cx="85" cy="111" r="0.8" fill="#fff3c4"/><circle class="sky-star" style="animation-delay:0.64s" cx="132" cy="130" r="0.8" fill="#fff3c4"/><circle class="sky-star" style="animation-delay:0.72s" cx="179" cy="116" r="1.3" fill="#fff3c4"/><circle class="f" style="animation-delay:0.24s" cx="293" cy="123" r="10" fill="url(#skylineMoon)"/><g class="skyline-midrise"><title>2026-06-15: 63.5M (midrise)</title><path class="by skyline-building skyline-midrise-3" style="animation-delay:0.00s" d="M20.6 172V144L22.8 136H27.2L29.4 144V172Z" fill="#6a79a8"/><rect x="23.6" y="149.0" width="1.6" height="2" rx=".5" fill="#fff3c4" fill-opacity=".82"/><rect x="23.6" y="158.0" width="1.6" height="2" rx=".5" fill="#fff3c4" fill-opacity=".46"/></g><g class="skyline-highrise"><title>2026-06-16: 120.3M (highrise)</title><path class="by skyline-building skyline-highrise-2" style="animation-delay:0.03s" d="M30.6 172V118H33.1V108H36.8V118H39.4V172Z" fill="#4f9cc5"/><path d="M35.0 101v7" stroke="#fff3c4" stroke-opacity=".72"/><rect x="33.6" y="121.0" width="1.6" height="2" rx=".5" fill="#fff3c4" fill-opacity=".82"/><rect x="33.6" y="130.0" width="1.6" height="2" rx=".5" fill="#fff3c4" fill-opacity=".46"/><rect x="33.6" y="139.0" width="1.6" height="2" rx=".5" fill="#fff3c4" fill-opacity=".82"/><rect x="33.6" y="148.0" width="1.6" height="2" rx=".5" fill="#fff3c4" fill-opacity=".46"/><rect x="33.6" y="157.0" width="1.6" height="2" rx=".5" fill="#fff3c4" fill-opacity=".82"/></g><g class="skyline-midrise"><title>2026-06-17: 73.1M (midrise)</title><path class="by skyline-building skyline-midrise-0" style="animation-delay:0.05s" d="M40.6 172V140H42.2V134H49.4V172Z" fill="#4e8b97"/><rect x="43.6" y="147.0" width="1.6" height="2" rx=".5" fill="#fff3c4" fill-opacity=".82"/><rect x="43.6" y="156.0" width="1.6" height="2" rx=".5" fill="#fff3c4" fill-opacity=".46"/></g><g class="skyline-highrise"><title>2026-06-18: 134.7M (highrise)</title><path class="by skyline-building skyline-highrise-0" style="animation-delay:0.08s" d="M50.6 172V120H52.1V110H53.4V105H56.9V112H59.4V172Z" fill="#527ec4"/><path d="M55.0 98v7" stroke="#fff3c4" stroke-opacity=".72"/><rect x="53.6" y="118.0" width="1.6" height="2" rx=".5" fill="#fff3c4" fill-opacity=".82"/><rect x="53.6" y="127.0" width="1.6" height="2" rx=".5" fill="#fff3c4" fill-opacity=".46"/><rect x="53.6" y="136.0" width="1.6" height="2" rx=".5" fill="#fff3c4" fill-opacity=".82"/><rect x="53.6" y="145.0" width="1.6" height="2" rx=".5" fill="#fff3c4" fill-opacity=".46"/><rect x="53.6" y="154.0" width="1.6" height="2" rx=".5" fill="#fff3c4" fill-opacity=".82"/></g><g class="skyline-landmark"><title>2026-06-19: 277M (landmark)</title><path class="by skyline-building skyline-landmark-0" style="animation-delay:0.10s" d="M60.6 172V126.88L62.2 112.88L64.1 102.88H66.1L68.0 115.88V172Z" fill="#a26ee5"/><path d="M65.0 89.88v13" stroke="#fff3c4" stroke-opacity=".8" stroke-width="1.2"/><rect x="63.6" y="115.9" width="1.6" height="2" rx=".5" fill="#fff3c4" fill-opacity=".82"/><rect x="63.6" y="124.9" width="1.6" height="2" rx=".5" fill="#fff3c4" fill-opacity=".46"/><rect x="63.6" y="133.9" width="1.6" height="2" rx=".5" fill="#fff3c4" fill-opacity=".82"/><rect x="63.6" y="142.9" width="1.6" height="2" rx=".5" fill="#fff3c4" fill-opacity=".46"/><rect x="63.6" y="151.9" width="1.6" height="2" rx=".5" fill="#fff3c4" fill-opacity=".82"/><rect x="63.6" y="160.9" width="1.6" height="2" rx=".5" fill="#fff3c4" fill-opacity=".46"/><rect x="63.6" y="169.9" width="1.6" height="2" rx=".5" fill="#fff3c4" fill-opacity=".82"/><rect x="63.6" y="178.9" width="1.6" height="2" rx=".5" fill="#fff3c4" fill-opacity=".46"/><rect x="63.6" y="187.9" width="1.6" height="2" rx=".5" fill="#fff3c4" fill-opacity=".82"/></g><g class="skyline-midrise"><title>2026-06-20: 82.4M (midrise)</title><path class="by skyline-building skyline-midrise-0" style="animation-delay:0.13s" d="M70.6 172V139H72.2V133H79.4V172Z" fill="#4e8b97"/><rect x="73.6" y="146.0" width="1.6" height="2" rx=".5" fill="#fff3c4" fill-opacity=".82"/><rect x="73.6" y="155.0" width="1.6" height="2" rx=".5" fill="#fff3c4" fill-opacity=".46"/></g><g class="skyline-midrise"><title>2026-06-21: 79.7M (midrise)</title><path class="by skyline-building skyline-midrise-2" style="animation-delay:0.15s" d="M80.6 172V139Q85.0 129 89.4 139V172Z" fill="#4c9d8c"/><rect x="83.6" y="146.0" width="1.6" height="2" rx=".5" fill="#fff3c4" fill-opacity=".82"/><rect x="83.6" y="155.0" width="1.6" height="2" rx=".5" fill="#fff3c4" fill-opacity=".46"/></g><g class="skyline-highrise"><title>2026-06-22: 148.8M (highrise)</title><path class="by skyline-building skyline-highrise-4" style="animation-delay:0.18s" d="M90.6 172V114.88H92.4V105.88H97.6V114.88H99.4V172Z" fill="#4585ad"/><path d="M95.0 95.88v7" stroke="#fff3c4" stroke-opacity=".72"/><rect x="93.6" y="115.9" width="1.6" height="2" rx=".5" fill="#fff3c4" fill-opacity=".82"/><rect x="93.6" y="124.9" width="1.6" height="2" rx=".5" fill="#fff3c4" fill-opacity=".46"/><rect x="93.6" y="133.9" width="1.6" height="2" rx=".5" fill="#fff3c4" fill-opacity=".82"/><rect x="93.6" y="142.9" width="1.6" height="2" rx=".5" fill="#fff3c4" fill-opacity=".46"/><rect x="93.6" y="151.9" width="1.6" height="2" rx=".5" fill="#fff3c4" fill-opacity=".82"/><rect x="93.6" y="160.9" width="1.6" height="2" rx=".5" fill="#fff3c4" fill-opacity=".46"/></g><g class="skyline-landmark"><title>2026-06-23: 313M (landmark)</title><path class="by skyline-building skyline-landmark-1" style="animation-delay:0.20s" d="M100.6 172V130.88L102.5 114.88L105.0 102.88L107.5 120.88V172Z" fill="#5d9df5"/><path d="M105.0 89.88v13" stroke="#fff3c4" stroke-opacity=".8" stroke-width="1.2"/><rect x="103.6" y="115.9" width="1.6" height="2" rx=".5" fill="#fff3c4" fill-opacity=".82"/><rect x="103.6" y="124.9" width="1.6" height="2" rx=".5" fill="#fff3c4" fill-opacity=".46"/><rect x="103.6" y="133.9" width="1.6" height="2" rx=".5" fill="#fff3c4" fill-opacity=".82"/><rect x="103.6" y="142.9" width="1.6" height="2" rx=".5" fill="#fff3c4" fill-opacity=".46"/><rect x="103.6" y="151.9" width="1.6" height="2" rx=".5" fill="#fff3c4" fill-opacity=".82"/><rect x="103.6" y="160.9" width="1.6" height="2" rx=".5" fill="#fff3c4" fill-opacity=".46"/><rect x="103.6" y="169.9" width="1.6" height="2" rx=".5" fill="#fff3c4" fill-opacity=".82"/><rect x="103.6" y="178.9" width="1.6" height="2" rx=".5" fill="#fff3c4" fill-opacity=".46"/><rect x="103.6" y="187.9" width="1.6" height="2" rx=".5" fill="#fff3c4" fill-opacity=".82"/><rect x="103.6" y="196.9" width="1.6" height="2" rx=".5" fill="#fff3c4" fill-opacity=".46"/></g><g class="skyline-midrise"><title>2026-06-24: 90.4M (midrise)</title><path class="by skyline-building skyline-midrise-3" style="animation-delay:0.23s" d="M110.6 172V139L112.8 131H117.2L119.4 139V172Z" fill="#6a79a8"/><rect x="113.6" y="144.0" width="1.6" height="2" rx=".5" fill="#fff3c4" fill-opacity=".82"/><rect x="113.6" y="153.0" width="1.6" height="2" rx=".5" fill="#fff3c4" fill-opacity=".46"/></g><g class="skyline-midrise"><title>2026-06-25: 97.3M (midrise)</title><path class="by skyline-building skyline-midrise-1" style="animation-delay:0.25s" d="M120.6 172V140H122.7V133H126.9V130H129.4V172Z" fill="#617ea5"/><rect x="123.6" y="143.0" width="1.6" height="2" rx=".5" fill="#fff3c4" fill-opacity=".82"/><rect x="123.6" y="152.0" width="1.6" height="2" rx=".5" fill="#fff3c4" fill-opacity=".46"/></g><g class="skyline-highrise"><title>2026-06-26: 126.2M (highrise)</title><path class="by skyline-building skyline-highrise-3" style="animation-delay:0.28s" d="M130.6 172V115Q135.0 100 139.4 115V172Z" fill="#7e62b6"/><path d="M135.0 100v7" stroke="#fff3c4" stroke-opacity=".72"/><rect x="133.6" y="120.0" width="1.6" height="2" rx=".5" fill="#fff3c4" fill-opacity=".82"/><rect x="133.6" y="129.0" width="1.6" height="2" rx=".5" fill="#fff3c4" fill-opacity=".46"/><rect x="133.6" y="138.0" width="1.6" height="2" rx=".5" fill="#fff3c4" fill-opacity=".82"/><rect x="133.6" y="147.0" width="1.6" height="2" rx=".5" fill="#fff3c4" fill-opacity=".46"/><rect x="133.6" y="156.0" width="1.6" height="2" rx=".5" fill="#fff3c4" fill-opacity=".82"/></g><g class="skyline-field"><title>2026-06-27: no token activity</title><path d="M140.6 172V168.76q4.4 -3 8.8 0V172Z" fill="#315240"/><path d="M142.7 169.76l1.3 -4m2.6 4l-1.1 -3" stroke="#a7d78d" stroke-width=".8" stroke-linecap="round"/></g><g class="skyline-house"><title>2026-06-28: 2.1M (house)</title><path class="by skyline-building skyline-house-4" style="animation-delay:0.33s" d="M150.6 172V168L155.0 161L159.4 168V172Z" fill="#c77961"/><rect x="155.5" y="167.0" width="1.1" height="3.0" fill="#26384a"/><rect x="153.6" y="165.6" width="1.6" height="2" rx=".5" fill="#fff3c4" fill-opacity=".82"/></g><g class="skyline-highrise"><title>2026-06-29: 209.9M (highrise)</title><path class="by skyline-building skyline-highrise-2" style="animation-delay:0.35s" d="M160.6 172V112.88H163.1V102.88H166.8V112.88H169.4V172Z" fill="#4f9cc5"/><path d="M165.0 95.88v7" stroke="#fff3c4" stroke-opacity=".72"/><rect x="163.6" y="115.9" width="1.6" height="2" rx=".5" fill="#fff3c4" fill-opacity=".82"/><rect x="163.6" y="124.9" width="1.6" height="2" rx=".5" fill="#fff3c4" fill-opacity=".46"/><rect x="163.6" y="133.9" width="1.6" height="2" rx=".5" fill="#fff3c4" fill-opacity=".82"/><rect x="163.6" y="142.9" width="1.6" height="2" rx=".5" fill="#fff3c4" fill-opacity=".46"/><rect x="163.6" y="151.9" width="1.6" height="2" rx=".5" fill="#fff3c4" fill-opacity=".82"/><rect x="163.6" y="160.9" width="1.6" height="2" rx=".5" fill="#fff3c4" fill-opacity=".46"/><rect x="163.6" y="169.9" width="1.6" height="2" rx=".5" fill="#fff3c4" fill-opacity=".82"/></g><g class="skyline-house"><title>2026-06-30: 20.6M (house)</title><path class="by skyline-building skyline-house-2" style="animation-delay:0.38s" d="M170.6 172V164L175.0 157L179.4 164V172Z" fill="#b9674a"/><rect x="175.5" y="163.0" width="1.1" height="3.8" fill="#26384a"/><rect x="173.6" y="163.3" width="1.6" height="2" rx=".5" fill="#fff3c4" fill-opacity=".82"/></g><g class="skyline-midrise"><title>2026-07-01: 101.7M (midrise)</title><path class="by skyline-building skyline-midrise-0" style="animation-delay:0.40s" d="M180.6 172V135H182.2V129H189.4V172Z" fill="#4e8b97"/><rect x="183.6" y="142.0" width="1.6" height="2" rx=".5" fill="#fff3c4" fill-opacity=".82"/><rect x="183.6" y="151.0" width="1.6" height="2" rx=".5" fill="#fff3c4" fill-opacity=".46"/><rect x="183.6" y="160.0" width="1.6" height="2" rx=".5" fill="#fff3c4" fill-opacity=".82"/></g><g class="skyline-midrise"><title>2026-07-02: 92.6M (midrise)</title><path class="by skyline-building skyline-midrise-2" style="animation-delay:0.43s" d="M190.6 172V137Q195.0 127 199.4 137V172Z" fill="#4c9d8c"/><rect x="193.6" y="144.0" width="1.6" height="2" rx=".5" fill="#fff3c4" fill-opacity=".82"/><rect x="193.6" y="153.0" width="1.6" height="2" rx=".5" fill="#fff3c4" fill-opacity=".46"/></g><g class="skyline-midrise"><title>2026-07-03: 88.4M (midrise)</title><path class="by skyline-building skyline-midrise-4" style="animation-delay:0.45s" d="M200.6 172V132H209.4V172Z" fill="#527d91"/><rect x="203.6" y="145.0" width="1.6" height="2" rx=".5" fill="#fff3c4" fill-opacity=".82"/><rect x="203.6" y="154.0" width="1.6" height="2" rx=".5" fill="#fff3c4" fill-opacity=".46"/></g><g class="skyline-field"><title>2026-07-04: no token activity</title><path d="M210.6 172V168.76q4.4 -3 8.8 0V172Z" fill="#315240"/><path d="M212.7 169.76l1.3 -4m2.6 4l-1.1 -3" stroke="#a7d78d" stroke-width=".8" stroke-linecap="round"/></g><g class="skyline-field"><title>2026-07-05: no token activity</title><path d="M220.6 172V168.76q4.4 -3 8.8 0V172Z" fill="#315240"/><path d="M222.7 169.76l1.3 -4m2.6 4l-1.1 -3" stroke="#a7d78d" stroke-width=".8" stroke-linecap="round"/></g><g class="skyline-field"><title>2026-07-06: no token activity</title><path d="M230.6 172V168.76q4.4 -3 8.8 0V172Z" fill="#315240"/><path d="M232.7 169.76l1.3 -4m2.6 4l-1.1 -3" stroke="#a7d78d" stroke-width=".8" stroke-linecap="round"/></g><g class="skyline-house"><title>2026-07-07: 7M (house)</title><path class="by skyline-building skyline-house-2" style="animation-delay:0.55s" d="M240.6 172V166L245.0 159L249.4 166V172Z" fill="#b9674a"/><rect x="245.5" y="165.0" width="1.1" height="3.3" fill="#26384a"/><rect x="243.6" y="164.5" width="1.6" height="2" rx=".5" fill="#fff3c4" fill-opacity=".82"/></g><g class="skyline-midrise"><title>2026-07-08: 113.9M (midrise)</title><path class="by skyline-building skyline-midrise-2" style="animation-delay:0.58s" d="M250.6 172V133Q255.0 123 259.4 133V172Z" fill="#4c9d8c"/><rect x="253.6" y="140.0" width="1.6" height="2" rx=".5" fill="#fff3c4" fill-opacity=".82"/><rect x="253.6" y="149.0" width="1.6" height="2" rx=".5" fill="#fff3c4" fill-opacity=".46"/><rect x="253.6" y="158.0" width="1.6" height="2" rx=".5" fill="#fff3c4" fill-opacity=".82"/></g><g class="skyline-midrise"><title>2026-07-09: 53.2M (midrise)</title><path class="by skyline-building skyline-midrise-3" style="animation-delay:0.60s" d="M260.6 172V146L262.8 138H267.2L269.4 146V172Z" fill="#6a79a8"/><rect x="263.6" y="151.0" width="1.6" height="2" rx=".5" fill="#fff3c4" fill-opacity=".82"/><rect x="263.6" y="160.0" width="1.6" height="2" rx=".5" fill="#fff3c4" fill-opacity=".46"/></g><g class="skyline-highrise"><title>2026-07-10: 144.9M (highrise)</title><path class="by skyline-building skyline-highrise-2" style="animation-delay:0.63s" d="M270.6 172V113H273.1V103H276.8V113H279.4V172Z" fill="#4f9cc5"/><path d="M275.0 96v7" stroke="#fff3c4" stroke-opacity=".72"/><rect x="273.6" y="116.0" width="1.6" height="2" rx=".5" fill="#fff3c4" fill-opacity=".82"/><rect x="273.6" y="125.0" width="1.6" height="2" rx=".5" fill="#fff3c4" fill-opacity=".46"/><rect x="273.6" y="134.0" width="1.6" height="2" rx=".5" fill="#fff3c4" fill-opacity=".82"/><rect x="273.6" y="143.0" width="1.6" height="2" rx=".5" fill="#fff3c4" fill-opacity=".46"/><rect x="273.6" y="152.0" width="1.6" height="2" rx=".5" fill="#fff3c4" fill-opacity=".82"/></g><g class="skyline-house"><title>2026-07-11: 538.4k (house)</title><path class="by skyline-building skyline-house-3" style="animation-delay:0.65s" d="M280.6 172V166H282.5L285.0 161L287.5 166H289.4V172Z" fill="#d89b68"/><rect x="285.5" y="167.0" width="1.1" height="3.0" fill="#26384a"/><rect x="283.6" y="165.6" width="1.6" height="2" rx=".5" fill="#fff3c4" fill-opacity=".82"/></g><g class="skyline-house"><title>2026-07-12: 26.8M (house)</title><path class="by skyline-building skyline-house-4" style="animation-delay:0.68s" d="M290.6 172V162L295.0 155L299.4 162V172Z" fill="#c77961"/><rect x="295.5" y="161.0" width="1.1" height="4.3" fill="#26384a"/><rect x="293.6" y="162.1" width="1.6" height="2" rx=".5" fill="#fff3c4" fill-opacity=".82"/></g><g class="skyline-house"><title>2026-07-13: 50.1M (house)</title><path class="by skyline-building skyline-house-0" style="animation-delay:0.70s" d="M300.6 172V157L305.0 150L309.4 157V172Z" fill="#cf7b52"/><rect x="305.5" y="156.0" width="1.1" height="5.5" fill="#26384a"/><rect x="303.6" y="159.2" width="1.6" height="2" rx=".5" fill="#fff3c4" fill-opacity=".82"/></g><g class="skyline-house"><title>2026-07-14: 31.3M (house)</title><path class="by skyline-building skyline-house-1" style="animation-delay:0.73s" d="M310.6 172V159H312.5L315.0 154L317.5 159H319.4V172Z" fill="#bb9af7"/><rect x="315.5" y="160.0" width="1.1" height="4.5" fill="#26384a"/><rect x="313.6" y="161.6" width="1.6" height="2" rx=".5" fill="#fff3c4" fill-opacity=".82"/></g><path d="M20 172.5H320" stroke="#ffd6a1" stroke-opacity=".72"/>
<text class="f" style="animation-delay:0.96s" x="20" y="190" font-size="9.5" fill="#9aa5ce">in 1.8M · out 11.8M · cache 3.91B</text>
</g>
</svg>