<svg xmlns="http://www.w3.org/2000/svg" width="340" height="200" viewBox="0 0 340 200" role="img" aria-label="Token Stack">
<title>Token Stack</title>
<style>
.f{opacity:0;animation:fu 0.70s cubic-bezier(.4,0,.2,1) forwards}
@keyframes fu{from{opacity:0;transform:translateY(7px)}to{opacity:1;transform:translateY(0)}}
.bx{transform:scaleX(0);transform-box:fill-box;transform-origin:left center;animation:gx 0.90s cubic-bezier(.2,.6,.2,1) forwards}
@keyframes gx{to{transform:scaleX(1)}}
.by{transform:scaleY(0);transform-box:fill-box;transform-origin:center bottom;animation:gy 0.80s cubic-bezier(.2,.6,.2,1) forwards}
@keyframes gy{to{transform:scaleY(1)}}
.sky-star{opacity:0;animation:twinkle 1.80s ease-in-out infinite}.skyline-fabric{opacity:0;animation:fu 0.70s cubic-bezier(.4,0,.2,1) forwards}@keyframes twinkle{50%{opacity:.3;transform:scale(.55)}}
@media (prefers-reduced-motion:reduce){*{animation-duration:.01s!important;animation-delay:0s!important}}
</style>
<rect x="0.5" y="0.5" width="339" height="199" rx="8" fill="#1a1b27" stroke="#3b4261"/>

<defs><linearGradient id="big" x1="0" y1="0" x2="1" y2="0">
<stop offset="0%" stop-color="#70a5fd"/><stop offset="100%" stop-color="#bb9af7"/>
</linearGradient></defs>
<g font-family="'Segoe UI',Ubuntu,Sans-Serif">
<text class="f" x="20" y="27" font-size="14" font-weight="600" fill="#70a5fd">⚡ Token Stack</text>
<text class="f" style="animation-delay:0.12s" x="20" y="66" font-size="30" font-weight="800" fill="url(#big)">3.93B</text>
<text class="f" style="animation-delay:0.24s" x="20" y="85" font-size="10.5" fill="#9aa5ce">tokens all time · est. $2,911.25 · 🔥 8d streak</text>
<text class="f" style="animation-delay:0.36s" x="320" y="97" font-size="9.5" text-anchor="end" fill="#9aa5ce">last 30d · 2.55B</text>
<defs><linearGradient id="skylineSky" x1="0" y1="0" x2="0" y2="1"><stop stop-color="#69bce0"/><stop offset=".58" stop-color="#b8e4eb"/><stop offset="1" stop-color="#f4d7a8"/></linearGradient><radialGradient id="skylineLuminary"><stop stop-color="#fffde1"/><stop offset="1" stop-color="#fff1a4"/></radialGradient><clipPath id="skylineScene"><rect x="20" y="100" width="300" height="72" rx="7"/></clipPath><clipPath id="skylineCliplot0"><path d="M19.6 167V117.28385670234175H21.4V108.28385670234175H23.1V103.28385670234175H27.4V110.28385670234175H30.4V167Z"/></clipPath><clipPath id="skylineCliplot1"><path d="M29.6 167V111.01830232521084Q35.0 96.01830232521084 40.5 111.01830232521084V167Z"/></clipPath><clipPath id="skylineCliplot2"><path d="M39.6 167V115.97752814376432L41.6 106.97752814376432L45.0 102.97752814376432L48.5 109.97752814376432V167Z"/></clipPath><clipPath id="skylineCliplot3"><path d="M49.6 167V114.28054723189288H51.8V105.28054723189288H58.3V114.28054723189288H60.5V167Z"/></clipPath><clipPath id="skylineCliplot4"><path d="M59.6 167V110.54104390043025Q65.0 95.54104390043025 70.5 110.54104390043025V167Z"/></clipPath><clipPath id="skylineCliplot5"><path d="M69.7 167V116.21600648743586L71.6 107.21600648743586L75.1 103.21600648743586L78.5 110.21600648743586V167Z"/></clipPath><clipPath id="skylineCliplot6"><path d="M79.7 167V114.94163761227477H81.8V105.94163761227477H88.3V114.94163761227477H90.5V167Z"/></clipPath><clipPath id="skylineCliplot7"><path d="M89.7 167V112.15527113133442H92.7V102.15527113133442H97.2V112.15527113133442H100.5V167Z"/></clipPath><clipPath id="skylineCliplot8"><path d="M99.7 167V115.32734268578677L101.6 106.32734268578677L105.1 102.32734268578677L108.5 109.32734268578677V167Z"/></clipPath><clipPath id="skylineCliplot9"><path d="M109.7 167V115.21891185238502H111.8V106.21891185238502H118.3V115.21891185238502H120.5V167Z"/></clipPath><clipPath id="skylineCliplot10"><path d="M119.7 167V114.34247851500402H122.7V104.34247851500402H127.2V114.34247851500402H130.5V167Z"/></clipPath><clipPath id="skylineCliplot11"><path d="M129.7 167V123.08116042927256H131.4V114.08116042927256H133.1V109.08116042927256H137.4V116.08116042927256H140.5V167Z"/></clipPath><clipPath id="skylineCliplot12"><path d="M139.7 167V159.29439278659018H141.8L145.1 154.29439278659018L148.3 159.29439278659018H150.5V167Z"/></clipPath><clipPath id="skylineCliplot13"><path d="M149.7 167V122.31860498497083H152.7V112.31860498497083H157.2V122.31860498497083H160.5V167Z"/></clipPath><clipPath id="skylineCliplot14"><path d="M159.7 167V118.20625722860586H161.4V109.20625722860586H163.1V104.20625722860586H167.4V111.20625722860586H170.5V167Z"/></clipPath><clipPath id="skylineCliplot15"><path d="M169.7 167V114.05566840051523Q175.1 99.05566840051523 180.5 114.05566840051523V167Z"/></clipPath><clipPath id="skylineCliplot16"><path d="M179.7 167V113.23602469988552H182.7V103.23602469988552H187.2V113.23602469988552H190.5V167Z"/></clipPath><clipPath id="skylineCliplot17"><path d="M189.7 167V118.32674994768404H191.4V109.32674994768404H193.1V104.32674994768404H197.4V111.32674994768404H200.5V167Z"/></clipPath><clipPath id="skylineCliplot18"><path d="M199.7 167V114.64689591979555Q205.1 99.64689591979555 210.5 114.64689591979555V167Z"/></clipPath><clipPath id="skylineCliplot19"><path d="M209.7 167V159.4412531404362H211.8L215.1 154.4412531404362L218.3 159.4412531404362H220.5V167Z"/></clipPath><clipPath id="skylineCliplot20"><path d="M219.7 167V163.67109767975825L225.1 157.67109767975825L230.5 163.67109767975825V167Z"/></clipPath><clipPath id="skylineCliplot21"><path d="M229.7 167V163.36515931148256L235.1 157.36515931148256L240.5 163.36515931148256V167Z"/></clipPath><clipPath id="skylineCliplot22"><path d="M239.7 167V132.16262973141824L241.6 123.16262973141824L245.1 119.16262973141824L248.5 126.16262973141824V167Z"/></clipPath><clipPath id="skylineCliplot23"><path d="M249.7 167V120.43265117465202H251.4V111.43265117465202H253.1V106.43265117465202H257.4V113.43265117465202H260.4V167Z"/></clipPath><clipPath id="skylineCliplot24"><path d="M259.6 167V112.49675037987461Q265.0 97.49675037987461 270.4 112.49675037987461V167Z"/></clipPath><clipPath id="skylineCliplot25"><path d="M269.6 167V116.61091002883634L271.6 107.61091002883634L275.0 103.61091002883634L278.5 110.61091002883634V167Z"/></clipPath><clipPath id="skylineCliplot26"><path d="M279.6 167V121.15357092260439H281.8V112.15357092260439H288.3V121.15357092260439H290.4V167Z"/></clipPath><clipPath id="skylineCliplot27"><path d="M289.6 167V117.02345823328156Q295.0 102.02345823328156 300.4 117.02345823328156V167Z"/></clipPath><clipPath id="skylineCliplot28"><path d="M299.6 167V118.54954592721072L301.6 109.54954592721072L305.0 105.54954592721072L308.5 112.54954592721072V167Z"/></clipPath><clipPath id="skylineCliplot29"><path d="M309.6 167V117.25578005650895H311.8V108.25578005650895H318.3V117.25578005650895H320.4V167Z"/></clipPath><clipPath id="skylineClippeak4"><path d="M61.0 167V128.36L63.4 109.36L65.0 104.36L66.6 109.36V167Z"/></clipPath><clipPath id="skylineClippeak7"><path d="M91.0 167V124.36Q92.8 106.36 95.0 104.36Q97.4 107.36 99.0 126.36V167Z"/></clipPath><clipPath id="skylineClippeak14"><path d="M161.0 167V132.36L162.8 116.36L165.0 104.36L167.2 122.36V167Z"/></clipPath></defs><g clip-path="url(#skylineScene)"><rect data-sky="day" x="20" y="100" width="300" height="72" rx="7" fill="url(#skylineSky)"/><g class="f" style="animation-delay:0.10s" fill="#ffffff" fill-opacity=".48"><circle cx="80" cy="115.84" r="7"/><circle cx="92" cy="114.4" r="10"/><circle cx="107" cy="117.28" r="7"/><circle cx="221" cy="121.6" r="6"/><circle cx="233" cy="119.44" r="9"/></g><circle class="f skyline-luminary" style="animation-delay:0.24s" cx="300" cy="117" r="7" fill="url(#skylineLuminary)"/><rect x="19.6" y="141.6" width="14.5" height="25.4" fill="#6f9294" fill-opacity=".26"/><rect x="33.2" y="145.3" width="14.5" height="21.7" fill="#7e91a6" fill-opacity=".26"/><rect x="46.9" y="143.8" width="14.5" height="23.2" fill="#6a9b8b" fill-opacity=".26"/><rect x="60.5" y="142.6" width="14.5" height="24.4" fill="#8792aa" fill-opacity=".26"/><rect x="74.1" y="141.4" width="14.5" height="25.6" fill="#668b96" fill-opacity=".26"/><rect x="87.8" y="144.9" width="14.5" height="22.1" fill="#6f9294" fill-opacity=".26"/><rect x="101.4" y="143.7" width="14.5" height="23.3" fill="#7e91a6" fill-opacity=".26"/><rect x="115.1" y="143.4" width="14.5" height="23.6" fill="#6a9b8b" fill-opacity=".26"/><rect x="128.7" y="149.8" width="14.5" height="17.2" fill="#8792aa" fill-opacity=".26"/><rect x="142.3" y="151.0" width="14.5" height="16.0" fill="#668b96" fill-opacity=".26"/><rect x="156.0" y="145.6" width="14.5" height="21.4" fill="#6f9294" fill-opacity=".26"/><rect x="169.6" y="143.1" width="14.5" height="23.9" fill="#7e91a6" fill-opacity=".26"/><rect x="183.2" y="146.8" width="14.5" height="20.2" fill="#6a9b8b" fill-opacity=".26"/><rect x="196.9" y="147.7" width="14.5" height="19.3" fill="#8792aa" fill-opacity=".26"/><rect x="210.5" y="155.0" width="14.5" height="12.0" fill="#668b96" fill-opacity=".26"/><rect x="224.1" y="154.5" width="14.5" height="12.5" fill="#6f9294" fill-opacity=".26"/><rect x="237.8" y="152.2" width="14.5" height="14.8" fill="#7e91a6" fill-opacity=".26"/><rect x="251.4" y="146.0" width="14.5" height="21.0" fill="#6a9b8b" fill-opacity=".26"/><rect x="265.1" y="144.0" width="14.5" height="23.0" fill="#8792aa" fill-opacity=".26"/><rect x="278.7" y="144.0" width="14.5" height="23.0" fill="#668b96" fill-opacity=".26"/><rect x="292.3" y="147.1" width="14.5" height="19.9" fill="#6f9294" fill-opacity=".26"/><rect x="306.0" y="145.5" width="14.5" height="21.5" fill="#7e91a6" fill-opacity=".26"/><polygon class="skyline-fabric" points="20,167 20.0,147.6 30.0,147.4 40.0,147.4 50.0,147.2 60.0,147.2 70.0,147.4 80.0,147.4 90.0,147.1 100.0,147.1 110.0,147.3 120.0,148.5 130.0,149.8 140.0,156.4 150.0,151.5 160.0,149.0 170.0,148.3 180.0,147.5 190.0,148.7 200.0,150.9 210.0,159.5 220.0,160.8 230.0,159.8 240.0,152.1 250.0,148.8 260.0,148.1 270.0,148.0 280.0,150.0 290.0,148.8 300.0,148.4 310.0,148.3 320.0,148.3 320,167" fill="#6f9294" fill-opacity=".42"/><g class="skyline-highrise"><title>2026-06-15: 63.5M activity district</title><path class="by skyline-building skyline-highrise-0" style="animation-delay:0.00s" d="M19.6 167V117.28385670234175H21.4V108.28385670234175H23.1V103.28385670234175H27.4V110.28385670234175H30.4V167Z" fill="#597e98" fill-opacity="0.96"/><path d="M25.0 93.08927377471643v10.19458292762532" stroke="#eaf5f2" stroke-opacity=".82" stroke-width=".7"/><g clip-path="url(#skylineCliplot0)"><rect x="28.5" y="103.3" width="1.9" height="63.7" fill="#101827" fill-opacity=".12"/><path d="M25.0 107.28385670234175V164" stroke="#eaf5f2" stroke-opacity=".35" stroke-width=".7"/></g></g><g class="skyline-highrise"><title>2026-06-16: 120.3M activity district</title><path class="by skyline-building skyline-highrise-3" style="animation-delay:0.03s" d="M29.6 167V111.01830232521084Q35.0 96.01830232521084 40.5 111.01830232521084V167Z" fill="#7c769b" fill-opacity="0.96"/><path d="M35.0 92.78123069724457v10.237071627966268" stroke="#eaf5f2" stroke-opacity=".82" stroke-width=".7"/><g clip-path="url(#skylineCliplot1)"><rect x="38.5" y="103.0" width="1.9" height="64.0" fill="#101827" fill-opacity=".12"/><path d="M35.0 107.01830232521084V164" stroke="#eaf5f2" stroke-opacity=".35" stroke-width=".7"/></g></g><g class="skyline-highrise"><title>2026-06-17: 73.1M activity district</title><path class="by skyline-building skyline-highrise-1" style="animation-delay:0.05s" d="M39.6 167V115.97752814376432L41.6 106.97752814376432L45.0 102.97752814376432L48.5 109.97752814376432V167Z" fill="#6c79a0" fill-opacity="0.96"/><path d="M45.0 92.7339326467666v10.24359549699771" stroke="#eaf5f2" stroke-opacity=".82" stroke-width=".7"/><g clip-path="url(#skylineCliplot2)"><rect x="48.5" y="103.0" width="1.9" height="64.0" fill="#101827" fill-opacity=".12"/><path d="M45.0 106.97752814376432V164" stroke="#eaf5f2" stroke-opacity=".35" stroke-width=".7"/></g></g><g class="skyline-highrise"><title>2026-06-18: 134.7M activity district</title><path class="by skyline-building skyline-highrise-4" style="animation-delay:0.08s" d="M49.6 167V114.28054723189288H51.8V105.28054723189288H58.3V114.28054723189288H60.5V167Z" fill="#517f91" fill-opacity="0.96"/><path d="M55.0 91.92543478899574v10.35511244289714" stroke="#eaf5f2" stroke-opacity=".82" stroke-width=".7"/><g clip-path="url(#skylineCliplot3)"><rect x="58.5" y="102.3" width="1.9" height="64.7" fill="#101827" fill-opacity=".12"/><path d="M55.0 106.28054723189288V164" stroke="#eaf5f2" stroke-opacity=".35" stroke-width=".7"/></g></g><g class="skyline-highrise"><title>2026-06-19: 277M activity district</title><path class="by skyline-building skyline-highrise-3" style="animation-delay:0.10s" d="M59.6 167V110.54104390043025Q65.0 95.54104390043025 70.5 110.54104390043025V167Z" fill="#7c769b" fill-opacity="0.96"/><path d="M65.0 92.22761092449909v10.31343297593116" stroke="#eaf5f2" stroke-opacity=".82" stroke-width=".7"/><g clip-path="url(#skylineCliplot4)"><rect x="68.5" y="102.5" width="1.9" height="64.5" fill="#101827" fill-opacity=".12"/><path d="M65.0 106.54104390043025V164" stroke="#eaf5f2" stroke-opacity=".35" stroke-width=".7"/></g></g><g class="skyline-highrise"><title>2026-06-20: 82.4M activity district</title><path class="by skyline-building skyline-highrise-1" style="animation-delay:0.13s" d="M69.7 167V116.21600648743586L71.6 107.21600648743586L75.1 103.21600648743586L78.5 110.21600648743586V167Z" fill="#6c79a0" fill-opacity="0.96"/><path d="M75.1 93.0105675254256v10.20543896201026" stroke="#eaf5f2" stroke-opacity=".82" stroke-width=".7"/><g clip-path="url(#skylineCliplot5)"><rect x="78.5" y="103.2" width="1.9" height="63.8" fill="#101827" fill-opacity=".12"/><path d="M75.1 107.21600648743586V164" stroke="#eaf5f2" stroke-opacity=".35" stroke-width=".7"/></g></g><g class="skyline-highrise"><title>2026-06-21: 79.7M activity district</title><path class="by skyline-building skyline-highrise-4" style="animation-delay:0.15s" d="M79.7 167V114.94163761227477H81.8V105.94163761227477H88.3V114.94163761227477H90.5V167Z" fill="#517f91" fill-opacity="0.96"/><path d="M85.1 92.69229963023874v10.249337982036037" stroke="#eaf5f2" stroke-opacity=".82" stroke-width=".7"/><g clip-path="url(#skylineCliplot6)"><rect x="88.5" y="102.9" width="1.9" height="64.1" fill="#101827" fill-opacity=".12"/><path d="M85.1 106.94163761227477V164" stroke="#eaf5f2" stroke-opacity=".35" stroke-width=".7"/></g></g><g class="skyline-highrise"><title>2026-06-22: 148.8M activity district</title><path class="by skyline-building skyline-highrise-2" style="animation-delay:0.18s" d="M89.7 167V112.15527113133442H92.7V102.15527113133442H97.2V112.15527113133442H100.5V167Z" fill="#548f9c" fill-opacity="0.96"/><path d="M95.1 91.78011451234792v10.375156618986493" stroke="#eaf5f2" stroke-opacity=".82" stroke-width=".7"/><g clip-path="url(#skylineCliplot7)"><rect x="98.5" y="102.2" width="1.9" height="64.8" fill="#101827" fill-opacity=".12"/><path d="M95.1 106.15527113133442V164" stroke="#eaf5f2" stroke-opacity=".35" stroke-width=".7"/></g></g><g class="skyline-highrise"><title>2026-06-23: 313M activity district</title><path class="by skyline-building skyline-highrise-1" style="animation-delay:0.20s" d="M99.7 167V115.32734268578677L101.6 106.32734268578677L105.1 102.32734268578677L108.5 109.32734268578677V167Z" fill="#6c79a0" fill-opacity="0.96"/><path d="M105.1 91.97971751551266v10.347625170274116" stroke="#eaf5f2" stroke-opacity=".82" stroke-width=".7"/><g clip-path="url(#skylineCliplot8)"><rect x="108.5" y="102.3" width="1.9" height="64.7" fill="#101827" fill-opacity=".12"/><path d="M105.1 106.32734268578677V164" stroke="#eaf5f2" stroke-opacity=".35" stroke-width=".7"/></g></g><g class="skyline-highrise"><title>2026-06-24: 90.4M activity district</title><path class="by skyline-building skyline-highrise-4" style="animation-delay:0.23s" d="M109.7 167V115.21891185238502H111.8V106.21891185238502H118.3V115.21891185238502H120.5V167Z" fill="#517f91" fill-opacity="0.96"/><path d="M115.1 93.01393774876662v10.204974103618396" stroke="#eaf5f2" stroke-opacity=".82" stroke-width=".7"/><g clip-path="url(#skylineCliplot9)"><rect x="118.5" y="103.2" width="1.9" height="63.8" fill="#101827" fill-opacity=".12"/><path d="M115.1 107.21891185238502V164" stroke="#eaf5f2" stroke-opacity=".35" stroke-width=".7"/></g></g><g class="skyline-highrise"><title>2026-06-25: 97.3M activity district</title><path class="by skyline-building skyline-highrise-2" style="animation-delay:0.25s" d="M119.7 167V114.34247851500402H122.7V104.34247851500402H127.2V114.34247851500402H130.5V167Z" fill="#548f9c" fill-opacity="0.96"/><path d="M125.1 94.31727507740466v10.025203437599357" stroke="#eaf5f2" stroke-opacity=".82" stroke-width=".7"/><g clip-path="url(#skylineCliplot10)"><rect x="128.5" y="104.3" width="1.9" height="62.7" fill="#101827" fill-opacity=".12"/><path d="M125.1 108.34247851500402V164" stroke="#eaf5f2" stroke-opacity=".35" stroke-width=".7"/></g></g><g class="skyline-highrise"><title>2026-06-26: 126.2M activity district</title><path class="by skyline-building skyline-highrise-0" style="animation-delay:0.28s" d="M129.7 167V123.08116042927256H131.4V114.08116042927256H133.1V109.08116042927256H137.4V116.08116042927256H140.5V167Z" fill="#597e98" fill-opacity="0.96"/><path d="M135.1 99.81414609795617v9.267014331316393" stroke="#eaf5f2" stroke-opacity=".82" stroke-width=".7"/><g clip-path="url(#skylineCliplot11)"><rect x="138.5" y="109.1" width="1.9" height="57.9" fill="#101827" fill-opacity=".12"/><path d="M135.1 113.08116042927256V164" stroke="#eaf5f2" stroke-opacity=".35" stroke-width=".7"/></g></g><g class="skyline-house"><title>2026-06-27: 0 activity district</title><path class="by skyline-building skyline-house-4" style="animation-delay:0.30s" d="M139.7 167V159.29439278659018H141.8L145.1 154.29439278659018L148.3 159.29439278659018H150.5V167Z" fill="#c8775c" fill-opacity="0.96"/><g clip-path="url(#skylineCliplot12)"><rect x="148.5" y="154.3" width="1.9" height="12.7" fill="#101827" fill-opacity=".12"/><path d="M145.1 158.29439278659018V164" stroke="#eaf5f2" stroke-opacity=".35" stroke-width=".7"/></g></g><g class="skyline-highrise"><title>2026-06-28: 2.1M activity district</title><path class="by skyline-building skyline-highrise-2" style="animation-delay:0.33s" d="M149.7 167V122.31860498497083H152.7V112.31860498497083H157.2V122.31860498497083H160.5V167Z" fill="#548f9c" fill-opacity="0.96"/><path d="M155.1 103.56958178256616v8.749023202404667" stroke="#eaf5f2" stroke-opacity=".82" stroke-width=".7"/><g clip-path="url(#skylineCliplot13)"><rect x="158.5" y="112.3" width="1.9" height="54.7" fill="#101827" fill-opacity=".12"/><path d="M155.1 116.31860498497083V164" stroke="#eaf5f2" stroke-opacity=".35" stroke-width=".7"/></g></g><g class="skyline-highrise"><title>2026-06-29: 209.9M activity district</title><path class="by skyline-building skyline-highrise-0" style="animation-delay:0.35s" d="M159.7 167V118.20625722860586H161.4V109.20625722860586H163.1V104.20625722860586H167.4V111.20625722860586H170.5V167Z" fill="#597e98" fill-opacity="0.96"/><path d="M165.1 94.1592583851828v10.046998843423061" stroke="#eaf5f2" stroke-opacity=".82" stroke-width=".7"/><g clip-path="url(#skylineCliplot14)"><rect x="168.5" y="104.2" width="1.9" height="62.8" fill="#101827" fill-opacity=".12"/><path d="M165.1 108.20625722860586V164" stroke="#eaf5f2" stroke-opacity=".35" stroke-width=".7"/></g></g><g class="skyline-highrise"><title>2026-06-30: 20.6M activity district</title><path class="by skyline-building skyline-highrise-3" style="animation-delay:0.38s" d="M169.7 167V114.05566840051523Q175.1 99.05566840051523 180.5 114.05566840051523V167Z" fill="#7c769b" fill-opacity="0.96"/><path d="M175.1 96.30457534459767v9.751093055917563" stroke="#eaf5f2" stroke-opacity=".82" stroke-width=".7"/><g clip-path="url(#skylineCliplot15)"><rect x="178.5" y="106.1" width="1.9" height="60.9" fill="#101827" fill-opacity=".12"/><path d="M175.1 110.05566840051523V164" stroke="#eaf5f2" stroke-opacity=".35" stroke-width=".7"/></g></g><g class="skyline-highrise"><title>2026-07-01: 101.7M activity district</title><path class="by skyline-building skyline-highrise-2" style="animation-delay:0.40s" d="M179.7 167V113.23602469988552H182.7V103.23602469988552H187.2V113.23602469988552H190.5V167Z" fill="#548f9c" fill-opacity="0.96"/><path d="M185.1 93.0337886518672v10.20223604801832" stroke="#eaf5f2" stroke-opacity=".82" stroke-width=".7"/><g clip-path="url(#skylineCliplot16)"><rect x="188.5" y="103.2" width="1.9" height="63.8" fill="#101827" fill-opacity=".12"/><path d="M185.1 107.23602469988552V164" stroke="#eaf5f2" stroke-opacity=".35" stroke-width=".7"/></g></g><g class="skyline-highrise"><title>2026-07-02: 92.6M activity district</title><path class="by skyline-building skyline-highrise-0" style="animation-delay:0.43s" d="M189.7 167V118.32674994768404H191.4V109.32674994768404H193.1V104.32674994768404H197.4V111.32674994768404H200.5V167Z" fill="#597e98" fill-opacity="0.96"/><path d="M195.1 94.29902993931348v10.027720008370554" stroke="#eaf5f2" stroke-opacity=".82" stroke-width=".7"/><g clip-path="url(#skylineCliplot17)"><rect x="198.5" y="104.3" width="1.9" height="62.7" fill="#101827" fill-opacity=".12"/><path d="M195.1 108.32674994768404V164" stroke="#eaf5f2" stroke-opacity=".35" stroke-width=".7"/></g></g><g class="skyline-highrise"><title>2026-07-03: 88.4M activity district</title><path class="by skyline-building skyline-highrise-3" style="animation-delay:0.45s" d="M199.7 167V114.64689591979555Q205.1 99.64689591979555 210.5 114.64689591979555V167Z" fill="#7c769b" fill-opacity="0.96"/><path d="M205.1 96.99039926696284v9.656496652832711" stroke="#eaf5f2" stroke-opacity=".82" stroke-width=".7"/><g clip-path="url(#skylineCliplot18)"><rect x="208.5" y="106.6" width="1.9" height="60.4" fill="#101827" fill-opacity=".12"/><path d="M205.1 110.64689591979555V164" stroke="#eaf5f2" stroke-opacity=".35" stroke-width=".7"/></g></g><g class="skyline-house"><title>2026-07-04: 0 activity district</title><path class="by skyline-building skyline-house-1" style="animation-delay:0.48s" d="M209.7 167V159.4412531404362H211.8L215.1 154.4412531404362L218.3 159.4412531404362H220.5V167Z" fill="#e0a05d" fill-opacity="0.96"/><g clip-path="url(#skylineCliplot19)"><rect x="218.5" y="154.4" width="1.9" height="12.6" fill="#101827" fill-opacity=".12"/><path d="M215.1 158.4412531404362V164" stroke="#eaf5f2" stroke-opacity=".35" stroke-width=".7"/></g></g><g class="skyline-house"><title>2026-07-05: 0 activity district</title><path class="by skyline-building skyline-house-0" style="animation-delay:0.50s" d="M219.7 167V163.67109767975825L225.1 157.67109767975825L230.5 163.67109767975825V167Z" fill="#d9794d" fill-opacity="0.96"/><g clip-path="url(#skylineCliplot20)"><rect x="228.5" y="157.7" width="1.9" height="9.3" fill="#101827" fill-opacity=".12"/><path d="M225.1 161.67109767975825V164" stroke="#eaf5f2" stroke-opacity=".35" stroke-width=".7"/></g></g><g class="skyline-house"><title>2026-07-06: 0 activity district</title><path class="by skyline-building skyline-house-3" style="animation-delay:0.53s" d="M229.7 167V163.36515931148256L235.1 157.36515931148256L240.5 163.36515931148256V167Z" fill="#d89362" fill-opacity="0.96"/><g clip-path="url(#skylineCliplot21)"><rect x="238.5" y="157.4" width="1.9" height="9.6" fill="#101827" fill-opacity=".12"/><path d="M235.1 161.36515931148256V164" stroke="#eaf5f2" stroke-opacity=".35" stroke-width=".7"/></g></g><g class="skyline-highrise"><title>2026-07-07: 7M activity district</title><path class="by skyline-building skyline-highrise-1" style="animation-delay:0.55s" d="M239.7 167V132.16262973141824L241.6 123.16262973141824L245.1 119.16262973141824L248.5 126.16262973141824V167Z" fill="#6c79a0" fill-opacity="0.96"/><g clip-path="url(#skylineCliplot22)"><rect x="248.5" y="119.2" width="1.9" height="47.8" fill="#101827" fill-opacity=".12"/><path d="M245.1 123.16262973141824V164" stroke="#eaf5f2" stroke-opacity=".35" stroke-width=".7"/></g></g><g class="skyline-highrise"><title>2026-07-08: 113.9M activity district</title><path class="by skyline-building skyline-highrise-0" style="animation-delay:0.58s" d="M249.7 167V120.43265117465202H251.4V111.43265117465202H253.1V106.43265117465202H257.4V113.43265117465202H260.4V167Z" fill="#597e98" fill-opacity="0.96"/><path d="M255.1 96.74187536259635v9.690775812055676" stroke="#eaf5f2" stroke-opacity=".82" stroke-width=".7"/><g clip-path="url(#skylineCliplot23)"><rect x="258.5" y="106.4" width="1.9" height="60.6" fill="#101827" fill-opacity=".12"/><path d="M255.1 110.43265117465202V164" stroke="#eaf5f2" stroke-opacity=".35" stroke-width=".7"/></g></g><g class="skyline-highrise"><title>2026-07-09: 53.2M activity district</title><path class="by skyline-building skyline-highrise-3" style="animation-delay:0.60s" d="M259.6 167V112.49675037987461Q265.0 97.49675037987461 270.4 112.49675037987461V167Z" fill="#7c769b" fill-opacity="0.96"/><path d="M265.0 94.49623044065456v10.000519939220062" stroke="#eaf5f2" stroke-opacity=".82" stroke-width=".7"/><g clip-path="url(#skylineCliplot24)"><rect x="268.5" y="104.5" width="1.9" height="62.5" fill="#101827" fill-opacity=".12"/><path d="M265.0 108.49675037987461V164" stroke="#eaf5f2" stroke-opacity=".35" stroke-width=".7"/></g></g><g class="skyline-highrise"><title>2026-07-10: 144.9M activity district</title><path class="by skyline-building skyline-highrise-1" style="animation-delay:0.63s" d="M269.6 167V116.61091002883634L271.6 107.61091002883634L275.0 103.61091002883634L278.5 110.61091002883634V167Z" fill="#6c79a0" fill-opacity="0.96"/><path d="M275.0 93.46865563345015v10.142254395386187" stroke="#eaf5f2" stroke-opacity=".82" stroke-width=".7"/><g clip-path="url(#skylineCliplot25)"><rect x="278.5" y="103.6" width="1.9" height="63.4" fill="#101827" fill-opacity=".12"/><path d="M275.0 107.61091002883634V164" stroke="#eaf5f2" stroke-opacity=".35" stroke-width=".7"/></g></g><g class="skyline-highrise"><title>2026-07-11: 538.4k activity district</title><path class="by skyline-building skyline-highrise-4" style="animation-delay:0.65s" d="M279.6 167V121.15357092260439H281.8V112.15357092260439H288.3V121.15357092260439H290.4V167Z" fill="#517f91" fill-opacity="0.96"/><path d="M285.0 99.89814227022109v9.255428652383298" stroke="#eaf5f2" stroke-opacity=".82" stroke-width=".7"/><g clip-path="url(#skylineCliplot26)"><rect x="288.5" y="109.2" width="1.9" height="57.8" fill="#101827" fill-opacity=".12"/><path d="M285.0 113.15357092260439V164" stroke="#eaf5f2" stroke-opacity=".35" stroke-width=".7"/></g></g><g class="skyline-highrise"><title>2026-07-12: 26.8M activity district</title><path class="by skyline-building skyline-highrise-3" style="animation-delay:0.68s" d="M289.6 167V117.02345823328156Q295.0 102.02345823328156 300.4 117.02345823328156V167Z" fill="#7c769b" fill-opacity="0.96"/><path d="M295.0 99.74721155060661v9.27624668267495" stroke="#eaf5f2" stroke-opacity=".82" stroke-width=".7"/><g clip-path="url(#skylineCliplot27)"><rect x="298.5" y="109.0" width="1.9" height="58.0" fill="#101827" fill-opacity=".12"/><path d="M295.0 113.02345823328156V164" stroke="#eaf5f2" stroke-opacity=".35" stroke-width=".7"/></g></g><g class="skyline-highrise"><title>2026-07-13: 50.1M activity district</title><path class="by skyline-building skyline-highrise-1" style="animation-delay:0.70s" d="M299.6 167V118.54954592721072L301.6 109.54954592721072L305.0 105.54954592721072L308.5 112.54954592721072V167Z" fill="#6c79a0" fill-opacity="0.96"/><path d="M305.0 95.71747327556443v9.832072651646286" stroke="#eaf5f2" stroke-opacity=".82" stroke-width=".7"/><g clip-path="url(#skylineCliplot28)"><rect x="308.5" y="105.5" width="1.9" height="61.5" fill="#101827" fill-opacity=".12"/><path d="M305.0 109.54954592721072V164" stroke="#eaf5f2" stroke-opacity=".35" stroke-width=".7"/></g></g><g class="skyline-highrise"><title>2026-07-14: 31.3M activity district</title><path class="by skyline-building skyline-highrise-4" style="animation-delay:0.73s" d="M309.6 167V117.25578005650895H311.8V108.25578005650895H318.3V117.25578005650895H320.4V167Z" fill="#517f91" fill-opacity="0.96"/><path d="M315.0 95.37670486555038v9.879075190958568" stroke="#eaf5f2" stroke-opacity=".82" stroke-width=".7"/><g clip-path="url(#skylineCliplot29)"><rect x="318.5" y="105.3" width="1.9" height="61.7" fill="#101827" fill-opacity=".12"/><path d="M315.0 109.25578005650895V164" stroke="#eaf5f2" stroke-opacity=".35" stroke-width=".7"/></g></g><g class="skyline-landmark"><title>2026-06-19: 277M activity landmark</title><path class="by skyline-building skyline-landmark-4" style="animation-delay:0.75s" d="M61.0 167V128.36L63.4 109.36L65.0 104.36L66.6 109.36V167Z" fill="#a47e5e" fill-opacity="1"/><path d="M65.0 94.3376v10.022400000000001" stroke="#eaf5f2" stroke-opacity=".82" stroke-width="1.1"/><g clip-path="url(#skylineClippeak4)"><rect x="67.1" y="104.4" width="1.9" height="62.6" fill="#101827" fill-opacity=".12"/><path d="M65.0 108.36V164" stroke="#eaf5f2" stroke-opacity=".35" stroke-width=".7"/></g></g><g class="skyline-landmark"><title>2026-06-22: 148.8M activity landmark</title><path class="by skyline-building skyline-landmark-2" style="animation-delay:0.78s" d="M91.0 167V124.36Q92.8 106.36 95.0 104.36Q97.4 107.36 99.0 126.36V167Z" fill="#a2749f" fill-opacity="1"/><path d="M95.0 94.3376v10.022400000000001" stroke="#eaf5f2" stroke-opacity=".82" stroke-width="1.1"/><g clip-path="url(#skylineClippeak7)"><rect x="97.1" y="104.4" width="1.9" height="62.6" fill="#101827" fill-opacity=".12"/><path d="M95.0 108.36V164" stroke="#eaf5f2" stroke-opacity=".35" stroke-width=".7"/></g></g><g class="skyline-landmark"><title>2026-06-29: 209.9M activity landmark</title><path class="by skyline-building skyline-landmark-1" style="animation-delay:0.80s" d="M161.0 167V132.36L162.8 116.36L165.0 104.36L167.2 122.36V167Z" fill="#587fae" fill-opacity="1"/><path d="M165.0 94.3376v10.022400000000001" stroke="#eaf5f2" stroke-opacity=".82" stroke-width="1.1"/><g clip-path="url(#skylineClippeak14)"><rect x="167.1" y="104.4" width="1.9" height="62.6" fill="#101827" fill-opacity=".12"/><path d="M165.0 108.36V164" stroke="#eaf5f2" stroke-opacity=".35" stroke-width=".7"/></g></g><path class="skyline-street" d="M20 165H320V172H20Z" fill="#18232d" fill-opacity=".78"/><path d="M20 168H320" stroke="#eaf5f2" stroke-opacity=".52" stroke-dasharray="9 7" stroke-width=".7"/><path d="M44 165v-8m-2 0h4" stroke="#eaf5f2" stroke-opacity=".56" stroke-width=".8"/><circle cx="44" cy="156" r="1.1" fill="#eaf5f2" fill-opacity=".9"/><path d="M106 165v-8m-2 0h4" stroke="#eaf5f2" stroke-opacity=".56" stroke-width=".8"/><circle cx="106" cy="156" r="1.1" fill="#eaf5f2" fill-opacity=".9"/><path d="M168 165v-8m-2 0h4" stroke="#eaf5f2" stroke-opacity=".56" stroke-width=".8"/><circle cx="168" cy="156" r="1.1" fill="#eaf5f2" fill-opacity=".9"/><path d="M230 165v-8m-2 0h4" stroke="#eaf5f2" stroke-opacity=".56" stroke-width=".8"/><circle cx="230" cy="156" r="1.1" fill="#eaf5f2" fill-opacity=".9"/></g>
<text class="f" style="animation-delay:0.96s" x="20" y="190" font-size="9.5" fill="#9aa5ce">in 1.8M · out 11.8M · cache 3.91B</text>
</g>
</svg>