<svg xmlns="http://www.w3.org/2000/svg" width="495" height="220" viewBox="0 0 495 220" role="img" aria-label="Token Activity">
<title>Token Activity</title>
<style>
.f{opacity:0;animation:fu 0.70s cubic-bezier(.4,0,.2,1) forwards}
@keyframes fu{from{opacity:0;transform:translateY(7px)}to{opacity:1;transform:translateY(0)}}
.bx{transform:scaleX(0);transform-box:fill-box;transform-origin:left center;animation:gx 0.90s cubic-bezier(.2,.6,.2,1) forwards}
@keyframes gx{to{transform:scaleX(1)}}
.by{transform:scaleY(0);transform-box:fill-box;transform-origin:center bottom;animation:gy 0.80s cubic-bezier(.2,.6,.2,1) forwards}
@keyframes gy{to{transform:scaleY(1)}}
.sky-star{opacity:0;animation:twinkle 1.80s ease-in-out infinite}@keyframes twinkle{50%{opacity:.3;transform:scale(.55)}}
@media (prefers-reduced-motion:reduce){*{animation-duration:.01s!important;animation-delay:0s!important}}
</style>
<rect x="0.5" y="0.5" width="494" height="219" rx="8" fill="#1a1b27" stroke="#3b4261"/>

<g font-family="'Segoe UI',Ubuntu,Sans-Serif">
<text class="f" x="25" y="33" font-size="16" font-weight="600" fill="#70a5fd">📊 Token Activity</text>
<text class="f" style="animation-delay:0.12s" x="470" y="33" font-size="12" text-anchor="end" fill="#9aa5ce">2.55B · $1,923.13 · 30d</text>
<defs><linearGradient id="skylineSky" x1="0" y1="0" x2="0" y2="1"><stop stop-color="#1b1b4b"/><stop offset=".58" stop-color="#4d3677"/><stop offset="1" stop-color="#ec7f65"/></linearGradient><radialGradient id="skylineMoon"><stop stop-color="#fff9d4"/><stop offset="1" stop-color="#ffd88a"/></radialGradient></defs><rect x="25" y="70" width="445" height="108" rx="7" fill="url(#skylineSky)"/><circle class="sky-star" style="animation-delay:0.00s" cx="37" cy="80" r="1.3" fill="#fff3c4"/><circle class="sky-star" style="animation-delay:0.08s" cx="84" cy="99" r="0.8" fill="#fff3c4"/><circle class="sky-star" style="animation-delay:0.16s" cx="131" cy="118" r="0.8" fill="#fff3c4"/><circle class="sky-star" style="animation-delay:0.24s" cx="178" cy="88" r="1.3" fill="#fff3c4"/><circle class="sky-star" style="animation-delay:0.32s" cx="225" cy="107" r="0.8" fill="#fff3c4"/><circle class="sky-star" style="animation-delay:0.40s" cx="272" cy="126" r="0.8" fill="#fff3c4"/><circle class="sky-star" style="animation-delay:0.48s" cx="319" cy="96" r="1.3" fill="#fff3c4"/><circle class="sky-star" style="animation-delay:0.56s" cx="366" cy="115" r="0.8" fill="#fff3c4"/><circle class="sky-star" style="animation-delay:0.64s" cx="413" cy="85" r="0.8" fill="#fff3c4"/><circle class="sky-star" style="animation-delay:0.72s" cx="39" cy="104" r="1.3" fill="#fff3c4"/><circle class="sky-star" style="animation-delay:0.80s" cx="86" cy="123" r="0.8" fill="#fff3c4"/><circle class="sky-star" style="animation-delay:0.88s" cx="133" cy="93" r="0.8" fill="#fff3c4"/><circle class="sky-star" style="animation-delay:0.96s" cx="180" cy="112" r="1.3" fill="#fff3c4"/><circle class="sky-star" style="animation-delay:1.04s" cx="227" cy="82" r="0.8" fill="#fff3c4"/><circle class="sky-star" style="animation-delay:1.12s" cx="274" cy="101" r="0.8" fill="#fff3c4"/><circle class="f" style="animation-delay:0.24s" cx="443" cy="93" r="10" fill="url(#skylineMoon)"/><g class="skyline-midrise"><title>2026-06-15: 63.5M (midrise)</title><path class="by skyline-building skyline-midrise-3" style="animation-delay:0.00s" d="M25.6 178V150L29.0 142H35.8L39.2 150V178Z" fill="#6a79a8"/><rect x="30.2" y="155.0" width="2.5" height="2" rx=".5" fill="#fff3c4" fill-opacity=".82"/><rect x="30.2" y="164.0" width="2.5" height="2" rx=".5" fill="#fff3c4" fill-opacity=".46"/></g><g class="skyline-highrise"><title>2026-06-16: 120.3M (highrise)</title><path class="by skyline-building skyline-highrise-2" style="animation-delay:0.03s" d="M40.4 178V124H44.3V114H50.0V124H54.1V178Z" fill="#4f9cc5"/><path d="M47.3 107v7" stroke="#fff3c4" stroke-opacity=".72"/><rect x="45.1" y="127.0" width="2.5" height="2" rx=".5" fill="#fff3c4" fill-opacity=".82"/><rect x="45.1" y="136.0" width="2.5" height="2" rx=".5" fill="#fff3c4" fill-opacity=".46"/><rect x="45.1" y="145.0" width="2.5" height="2" rx=".5" fill="#fff3c4" fill-opacity=".82"/><rect x="45.1" y="154.0" width="2.5" height="2" rx=".5" fill="#fff3c4" fill-opacity=".46"/><rect x="45.1" y="163.0" width="2.5" height="2" rx=".5" fill="#fff3c4" fill-opacity=".82"/></g><g class="skyline-midrise"><title>2026-06-17: 73.1M (midrise)</title><path class="by skyline-building skyline-midrise-0" style="animation-delay:0.05s" d="M55.3 178V146H57.7V140H68.9V178Z" fill="#4e8b97"/><rect x="59.9" y="153.0" width="2.5" height="2" rx=".5" fill="#fff3c4" fill-opacity=".82"/><rect x="59.9" y="162.0" width="2.5" height="2" rx=".5" fill="#fff3c4" fill-opacity=".46"/></g><g class="skyline-highrise"><title>2026-06-18: 134.7M (highrise)</title><path class="by skyline-building skyline-highrise-0" style="animation-delay:0.08s" d="M70.1 178V126H72.4V116H74.5V111H79.9V118H83.7V178Z" fill="#527ec4"/><path d="M76.9 104v7" stroke="#fff3c4" stroke-opacity=".72"/><rect x="74.7" y="124.0" width="2.5" height="2" rx=".5" fill="#fff3c4" fill-opacity=".82"/><rect x="74.7" y="133.0" width="2.5" height="2" rx=".5" fill="#fff3c4" fill-opacity=".46"/><rect x="74.7" y="142.0" width="2.5" height="2" rx=".5" fill="#fff3c4" fill-opacity=".82"/><rect x="74.7" y="151.0" width="2.5" height="2" rx=".5" fill="#fff3c4" fill-opacity=".46"/><rect x="74.7" y="160.0" width="2.5" height="2" rx=".5" fill="#fff3c4" fill-opacity=".82"/></g><g class="skyline-landmark"><title>2026-06-19: 277M (landmark)</title><path class="by skyline-building skyline-landmark-0" style="animation-delay:0.10s" d="M84.9 178V101L87.4 87L90.4 77H93.4L96.4 90V178Z" fill="#a26ee5"/><path d="M91.8 64v13" stroke="#fff3c4" stroke-opacity=".8" stroke-width="1.2"/><rect x="89.6" y="90.0" width="2.5" height="2" rx=".5" fill="#fff3c4" fill-opacity=".82"/><rect x="89.6" y="99.0" width="2.5" height="2" rx=".5" fill="#fff3c4" fill-opacity=".46"/><rect x="89.6" y="108.0" width="2.5" height="2" rx=".5" fill="#fff3c4" fill-opacity=".82"/><rect x="89.6" y="117.0" width="2.5" height="2" rx=".5" fill="#fff3c4" fill-opacity=".46"/><rect x="89.6" y="126.0" width="2.5" height="2" rx=".5" fill="#fff3c4" fill-opacity=".82"/><rect x="89.6" y="135.0" width="2.5" height="2" rx=".5" fill="#fff3c4" fill-opacity=".46"/><rect x="89.6" y="144.0" width="2.5" height="2" rx=".5" fill="#fff3c4" fill-opacity=".82"/><rect x="89.6" y="153.0" width="2.5" height="2" rx=".5" fill="#fff3c4" fill-opacity=".46"/><rect x="89.6" y="162.0" width="2.5" height="2" rx=".5" fill="#fff3c4" fill-opacity=".82"/></g><g class="skyline-midrise"><title>2026-06-20: 82.4M (midrise)</title><path class="by skyline-building skyline-midrise-0" style="animation-delay:0.13s" d="M99.8 178V145H102.2V139H113.4V178Z" fill="#4e8b97"/><rect x="104.4" y="152.0" width="2.5" height="2" rx=".5" fill="#fff3c4" fill-opacity=".82"/><rect x="104.4" y="161.0" width="2.5" height="2" rx=".5" fill="#fff3c4" fill-opacity=".46"/></g><g class="skyline-midrise"><title>2026-06-21: 79.7M (midrise)</title><path class="by skyline-building skyline-midrise-2" style="animation-delay:0.15s" d="M114.6 178V145Q121.4 135 128.2 145V178Z" fill="#4c9d8c"/><rect x="119.2" y="152.0" width="2.5" height="2" rx=".5" fill="#fff3c4" fill-opacity=".82"/><rect x="119.2" y="161.0" width="2.5" height="2" rx=".5" fill="#fff3c4" fill-opacity=".46"/></g><g class="skyline-highrise"><title>2026-06-22: 148.8M (highrise)</title><path class="by skyline-building skyline-highrise-4" style="animation-delay:0.18s" d="M129.4 178V120H132.2V111H140.3V120H143.1V178Z" fill="#4585ad"/><path d="M136.3 101v7" stroke="#fff3c4" stroke-opacity=".72"/><rect x="134.1" y="121.0" width="2.5" height="2" rx=".5" fill="#fff3c4" fill-opacity=".82"/><rect x="134.1" y="130.0" width="2.5" height="2" rx=".5" fill="#fff3c4" fill-opacity=".46"/><rect x="134.1" y="139.0" width="2.5" height="2" rx=".5" fill="#fff3c4" fill-opacity=".82"/><rect x="134.1" y="148.0" width="2.5" height="2" rx=".5" fill="#fff3c4" fill-opacity=".46"/><rect x="134.1" y="157.0" width="2.5" height="2" rx=".5" fill="#fff3c4" fill-opacity=".82"/><rect x="134.1" y="166.0" width="2.5" height="2" rx=".5" fill="#fff3c4" fill-opacity=".46"/></g><g class="skyline-landmark"><title>2026-06-23: 313M (landmark)</title><path class="by skyline-building skyline-landmark-1" style="animation-delay:0.20s" d="M144.3 178V102.32000000000001L147.3 86.32000000000001L151.1 74.32000000000001L154.9 92.32000000000001V178Z" fill="#5d9df5"/><path d="M151.1 61.32000000000001v13" stroke="#fff3c4" stroke-opacity=".8" stroke-width="1.2"/><rect x="148.9" y="87.3" width="2.5" height="2" rx=".5" fill="#fff3c4" fill-opacity=".82"/><rect x="148.9" y="96.3" width="2.5" height="2" rx=".5" fill="#fff3c4" fill-opacity=".46"/><rect x="148.9" y="105.3" width="2.5" height="2" rx=".5" fill="#fff3c4" fill-opacity=".82"/><rect x="148.9" y="114.3" width="2.5" height="2" rx=".5" fill="#fff3c4" fill-opacity=".46"/><rect x="148.9" y="123.3" width="2.5" height="2" rx=".5" fill="#fff3c4" fill-opacity=".82"/><rect x="148.9" y="132.3" width="2.5" height="2" rx=".5" fill="#fff3c4" fill-opacity=".46"/><rect x="148.9" y="141.3" width="2.5" height="2" rx=".5" fill="#fff3c4" fill-opacity=".82"/><rect x="148.9" y="150.3" width="2.5" height="2" rx=".5" fill="#fff3c4" fill-opacity=".46"/><rect x="148.9" y="159.3" width="2.5" height="2" rx=".5" fill="#fff3c4" fill-opacity=".82"/><rect x="148.9" y="168.3" width="2.5" height="2" rx=".5" fill="#fff3c4" fill-opacity=".46"/></g><g class="skyline-midrise"><title>2026-06-24: 90.4M (midrise)</title><path class="by skyline-building skyline-midrise-3" style="animation-delay:0.23s" d="M159.1 178V145L162.5 137H169.3L172.7 145V178Z" fill="#6a79a8"/><rect x="163.7" y="150.0" width="2.5" height="2" rx=".5" fill="#fff3c4" fill-opacity=".82"/><rect x="163.7" y="159.0" width="2.5" height="2" rx=".5" fill="#fff3c4" fill-opacity=".46"/></g><g class="skyline-midrise"><title>2026-06-25: 97.3M (midrise)</title><path class="by skyline-building skyline-midrise-1" style="animation-delay:0.25s" d="M173.9 178V146H177.2V139H183.7V136H187.6V178Z" fill="#617ea5"/><rect x="178.6" y="149.0" width="2.5" height="2" rx=".5" fill="#fff3c4" fill-opacity=".82"/><rect x="178.6" y="158.0" width="2.5" height="2" rx=".5" fill="#fff3c4" fill-opacity=".46"/></g><g class="skyline-highrise"><title>2026-06-26: 126.2M (highrise)</title><path class="by skyline-building skyline-highrise-3" style="animation-delay:0.28s" d="M188.8 178V121Q195.6 106 202.4 121V178Z" fill="#7e62b6"/><path d="M195.6 106v7" stroke="#fff3c4" stroke-opacity=".72"/><rect x="193.4" y="126.0" width="2.5" height="2" rx=".5" fill="#fff3c4" fill-opacity=".82"/><rect x="193.4" y="135.0" width="2.5" height="2" rx=".5" fill="#fff3c4" fill-opacity=".46"/><rect x="193.4" y="144.0" width="2.5" height="2" rx=".5" fill="#fff3c4" fill-opacity=".82"/><rect x="193.4" y="153.0" width="2.5" height="2" rx=".5" fill="#fff3c4" fill-opacity=".46"/><rect x="193.4" y="162.0" width="2.5" height="2" rx=".5" fill="#fff3c4" fill-opacity=".82"/></g><g class="skyline-field"><title>2026-06-27: no token activity</title><path d="M203.6 178V173.14q6.8 -3 13.6 0V178Z" fill="#315240"/><path d="M206.9 174.14l1.3 -4m4.1 4l-1.1 -3" stroke="#a7d78d" stroke-width=".8" stroke-linecap="round"/></g><g class="skyline-house"><title>2026-06-28: 2.1M (house)</title><path class="by skyline-building skyline-house-4" style="animation-delay:0.33s" d="M218.4 178V174L225.3 167L232.1 174V178Z" fill="#c77961"/><rect x="226.1" y="173.0" width="1.6" height="3.0" fill="#26384a"/><rect x="223.1" y="171.6" width="2.5" height="2" rx=".5" fill="#fff3c4" fill-opacity=".82"/></g><g class="skyline-highrise"><title>2026-06-29: 209.9M (highrise)</title><path class="by skyline-building skyline-highrise-2" style="animation-delay:0.35s" d="M233.3 178V104H237.1V94H242.8V104H246.9V178Z" fill="#4f9cc5"/><path d="M240.1 87v7" stroke="#fff3c4" stroke-opacity=".72"/><rect x="237.9" y="107.0" width="2.5" height="2" rx=".5" fill="#fff3c4" fill-opacity=".82"/><rect x="237.9" y="116.0" width="2.5" height="2" rx=".5" fill="#fff3c4" fill-opacity=".46"/><rect x="237.9" y="125.0" width="2.5" height="2" rx=".5" fill="#fff3c4" fill-opacity=".82"/><rect x="237.9" y="134.0" width="2.5" height="2" rx=".5" fill="#fff3c4" fill-opacity=".46"/><rect x="237.9" y="143.0" width="2.5" height="2" rx=".5" fill="#fff3c4" fill-opacity=".82"/><rect x="237.9" y="152.0" width="2.5" height="2" rx=".5" fill="#fff3c4" fill-opacity=".46"/><rect x="237.9" y="161.0" width="2.5" height="2" rx=".5" fill="#fff3c4" fill-opacity=".82"/></g><g class="skyline-house"><title>2026-06-30: 20.6M (house)</title><path class="by skyline-building skyline-house-2" style="animation-delay:0.38s" d="M248.1 178V170L254.9 163L261.7 170V178Z" fill="#b9674a"/><rect x="255.7" y="169.0" width="1.6" height="3.8" fill="#26384a"/><rect x="252.7" y="169.3" width="2.5" height="2" rx=".5" fill="#fff3c4" fill-opacity=".82"/></g><g class="skyline-midrise"><title>2026-07-01: 101.7M (midrise)</title><path class="by skyline-building skyline-midrise-0" style="animation-delay:0.40s" d="M262.9 178V141H265.4V135H276.6V178Z" fill="#4e8b97"/><rect x="267.6" y="148.0" width="2.5" height="2" rx=".5" fill="#fff3c4" fill-opacity=".82"/><rect x="267.6" y="157.0" width="2.5" height="2" rx=".5" fill="#fff3c4" fill-opacity=".46"/><rect x="267.6" y="166.0" width="2.5" height="2" rx=".5" fill="#fff3c4" fill-opacity=".82"/></g><g class="skyline-midrise"><title>2026-07-02: 92.6M (midrise)</title><path class="by skyline-building skyline-midrise-2" style="animation-delay:0.43s" d="M277.8 178V143Q284.6 133 291.4 143V178Z" fill="#4c9d8c"/><rect x="282.4" y="150.0" width="2.5" height="2" rx=".5" fill="#fff3c4" fill-opacity=".82"/><rect x="282.4" y="159.0" width="2.5" height="2" rx=".5" fill="#fff3c4" fill-opacity=".46"/></g><g class="skyline-midrise"><title>2026-07-03: 88.4M (midrise)</title><path class="by skyline-building skyline-midrise-4" style="animation-delay:0.45s" d="M292.6 178V138H306.2V178Z" fill="#527d91"/><rect x="297.2" y="151.0" width="2.5" height="2" rx=".5" fill="#fff3c4" fill-opacity=".82"/><rect x="297.2" y="160.0" width="2.5" height="2" rx=".5" fill="#fff3c4" fill-opacity=".46"/></g><g class="skyline-field"><title>2026-07-04: no token activity</title><path d="M307.4 178V173.14q6.8 -3 13.6 0V178Z" fill="#315240"/><path d="M310.7 174.14l1.3 -4m4.1 4l-1.1 -3" stroke="#a7d78d" stroke-width=".8" stroke-linecap="round"/></g><g class="skyline-field"><title>2026-07-05: no token activity</title><path d="M322.3 178V173.14q6.8 -3 13.6 0V178Z" fill="#315240"/><path d="M325.5 174.14l1.3 -4m4.1 4l-1.1 -3" stroke="#a7d78d" stroke-width=".8" stroke-linecap="round"/></g><g class="skyline-field"><title>2026-07-06: no token activity</title><path d="M337.1 178V173.14q6.8 -3 13.6 0V178Z" fill="#315240"/><path d="M340.4 174.14l1.3 -4m4.1 4l-1.1 -3" stroke="#a7d78d" stroke-width=".8" stroke-linecap="round"/></g><g class="skyline-house"><title>2026-07-07: 7M (house)</title><path class="by skyline-building skyline-house-2" style="animation-delay:0.55s" d="M351.9 178V172L358.8 165L365.6 172V178Z" fill="#b9674a"/><rect x="359.6" y="171.0" width="1.6" height="3.3" fill="#26384a"/><rect x="356.6" y="170.5" width="2.5" height="2" rx=".5" fill="#fff3c4" fill-opacity=".82"/></g><g class="skyline-midrise"><title>2026-07-08: 113.9M (midrise)</title><path class="by skyline-building skyline-midrise-2" style="animation-delay:0.58s" d="M366.8 178V139Q373.6 129 380.4 139V178Z" fill="#4c9d8c"/><rect x="371.4" y="146.0" width="2.5" height="2" rx=".5" fill="#fff3c4" fill-opacity=".82"/><rect x="371.4" y="155.0" width="2.5" height="2" rx=".5" fill="#fff3c4" fill-opacity=".46"/><rect x="371.4" y="164.0" width="2.5" height="2" rx=".5" fill="#fff3c4" fill-opacity=".82"/></g><g class="skyline-midrise"><title>2026-07-09: 53.2M (midrise)</title><path class="by skyline-building skyline-midrise-3" style="animation-delay:0.60s" d="M381.6 178V152L385.0 144H391.8L395.2 152V178Z" fill="#6a79a8"/><rect x="386.2" y="157.0" width="2.5" height="2" rx=".5" fill="#fff3c4" fill-opacity=".82"/><rect x="386.2" y="166.0" width="2.5" height="2" rx=".5" fill="#fff3c4" fill-opacity=".46"/></g><g class="skyline-highrise"><title>2026-07-10: 144.9M (highrise)</title><path class="by skyline-building skyline-highrise-2" style="animation-delay:0.63s" d="M396.4 178V119H400.3V109H406.0V119H410.1V178Z" fill="#4f9cc5"/><path d="M403.3 102v7" stroke="#fff3c4" stroke-opacity=".72"/><rect x="401.1" y="122.0" width="2.5" height="2" rx=".5" fill="#fff3c4" fill-opacity=".82"/><rect x="401.1" y="131.0" width="2.5" height="2" rx=".5" fill="#fff3c4" fill-opacity=".46"/><rect x="401.1" y="140.0" width="2.5" height="2" rx=".5" fill="#fff3c4" fill-opacity=".82"/><rect x="401.1" y="149.0" width="2.5" height="2" rx=".5" fill="#fff3c4" fill-opacity=".46"/><rect x="401.1" y="158.0" width="2.5" height="2" rx=".5" fill="#fff3c4" fill-opacity=".82"/></g><g class="skyline-house"><title>2026-07-11: 538.4k (house)</title><path class="by skyline-building skyline-house-3" style="animation-delay:0.65s" d="M411.3 178V172H414.3L418.1 167L421.9 172H424.9V178Z" fill="#d89b68"/><rect x="418.9" y="173.0" width="1.6" height="3.0" fill="#26384a"/><rect x="415.9" y="171.6" width="2.5" height="2" rx=".5" fill="#fff3c4" fill-opacity=".82"/></g><g class="skyline-house"><title>2026-07-12: 26.8M (house)</title><path class="by skyline-building skyline-house-4" style="animation-delay:0.68s" d="M426.1 178V168L432.9 161L439.7 168V178Z" fill="#c77961"/><rect x="433.7" y="167.0" width="1.6" height="4.3" fill="#26384a"/><rect x="430.7" y="168.1" width="2.5" height="2" rx=".5" fill="#fff3c4" fill-opacity=".82"/></g><g class="skyline-house"><title>2026-07-13: 50.1M (house)</title><path class="by skyline-building skyline-house-0" style="animation-delay:0.70s" d="M440.9 178V163L447.8 156L454.6 163V178Z" fill="#cf7b52"/><rect x="448.6" y="162.0" width="1.6" height="5.5" fill="#26384a"/><rect x="445.6" y="165.2" width="2.5" height="2" rx=".5" fill="#fff3c4" fill-opacity=".82"/></g><g class="skyline-house"><title>2026-07-14: 31.3M (house)</title><path class="by skyline-building skyline-house-1" style="animation-delay:0.73s" d="M455.8 178V165H458.8L462.6 160L466.4 165H469.4V178Z" fill="#bb9af7"/><rect x="463.4" y="166.0" width="1.6" height="4.5" fill="#26384a"/><rect x="460.4" y="167.6" width="2.5" height="2" rx=".5" fill="#fff3c4" fill-opacity=".82"/></g><path d="M25 178.5H470" stroke="#ffd6a1" stroke-opacity=".72"/>
<text x="25" y="196" font-size="10" fill="#9aa5ce">2026-06-15</text>
<text x="470" y="196" font-size="10" text-anchor="end" fill="#9aa5ce">2026-07-14</text>
</g>
</svg>