<svg xmlns="http://www.w3.org/2000/svg" width="340" height="200" viewBox="0 0 340 200" role="img" aria-label="Token Stack">
<title>Token Stack</title>
<style>
.f{opacity:0;animation:fu 0.70s cubic-bezier(.4,0,.2,1) forwards}
@keyframes fu{from{opacity:0;transform:translateY(7px)}to{opacity:1;transform:translateY(0)}}
.bx{transform:scaleX(0);transform-box:fill-box;transform-origin:left center;animation:gx 0.90s cubic-bezier(.2,.6,.2,1) forwards}
@keyframes gx{to{transform:scaleX(1)}}
.by{transform:scaleY(0);transform-box:fill-box;transform-origin:center bottom;animation:gy 0.80s cubic-bezier(.2,.6,.2,1) forwards}
@keyframes gy{to{transform:scaleY(1)}}
.sky-star{opacity:0;animation:twinkle 1.80s ease-in-out infinite}@keyframes twinkle{50%{opacity:.3;transform:scale(.55)}}
@media (prefers-reduced-motion:reduce){*{animation-duration:.01s!important;animation-delay:0s!important}}
</style>
<rect x="0.5" y="0.5" width="339" height="199" rx="8" fill="#1a1b27" stroke="#3b4261"/>

<defs><linearGradient id="big" x1="0" y1="0" x2="1" y2="0">
<stop offset="0%" stop-color="#70a5fd"/><stop offset="100%" stop-color="#bb9af7"/>
</linearGradient></defs>
<g font-family="'Segoe UI',Ubuntu,Sans-Serif">
<text class="f" x="20" y="27" font-size="14" font-weight="600" fill="#70a5fd">⚡ Token Stack</text>
<text class="f" style="animation-delay:0.12s" x="20" y="66" font-size="30" font-weight="800" fill="url(#big)">3.93B</text>
<text class="f" style="animation-delay:0.24s" x="20" y="85" font-size="10.5" fill="#9aa5ce">tokens all time · est. $2,911.25 · 🔥 8d streak</text>
<text class="f" style="animation-delay:0.36s" x="320" y="97" font-size="9.5" text-anchor="end" fill="#9aa5ce">last 30d · 2.55B</text>
<defs><linearGradient id="skylineSky" x1="0" y1="0" x2="0" y2="1"><stop stop-color="#69bce0"/><stop offset=".58" stop-color="#b8e4eb"/><stop offset="1" stop-color="#f4d7a8"/></linearGradient><radialGradient id="skylineLuminary"><stop stop-color="#fffde1"/><stop offset="1" stop-color="#fff1a4"/></radialGradient></defs><rect data-sky="day" x="20" y="100" width="300" height="72" rx="7" fill="url(#skylineSky)"/><circle class="f skyline-luminary" style="animation-delay:0.24s" cx="293" cy="123" r="10" fill="url(#skylineLuminary)"/><g class="skyline-midrise"><title>2026-06-15: 63.5M (midrise)</title><path class="by skyline-building skyline-midrise-3" style="animation-delay:0.00s" d="M20.6 172V144L22.8 136H27.2L29.4 144V172Z" fill="#8792aa"/><rect class="skyline-window" x="22.0" y="149.0" width="1.2" height="2.4" rx=".5" fill="#eaf5f2" fill-opacity=".26"/><rect class="skyline-window" x="28.0" y="149.0" width="1.2" height="2.4" rx=".5" fill="#eaf5f2" fill-opacity=".86"/><rect class="skyline-window" x="22.0" y="157.5" width="1.2" height="2.4" rx=".5" fill="#eaf5f2" fill-opacity=".86"/><rect class="skyline-window" x="28.0" y="157.5" width="1.2" height="2.4" rx=".5" fill="#eaf5f2" fill-opacity=".86"/></g><g class="skyline-highrise"><title>2026-06-16: 120.3M (highrise)</title><path class="by skyline-building skyline-highrise-2" style="animation-delay:0.03s" d="M30.6 172V118H33.1V108H36.8V118H39.4V172Z" fill="#548f9c"/><path d="M35.0 101v7" stroke="#eaf5f2" stroke-opacity=".72"/><rect class="skyline-window" x="32.0" y="121.0" width="1.2" height="2.4" rx=".5" fill="#eaf5f2" fill-opacity=".86"/><rect class="skyline-window" x="38.0" y="121.0" width="1.2" height="2.4" rx=".5" fill="#eaf5f2" fill-opacity=".26"/><rect class="skyline-window" x="32.0" y="129.5" width="1.2" height="2.4" rx=".5" fill="#eaf5f2" fill-opacity=".86"/><rect class="skyline-window" x="38.0" y="129.5" width="1.2" height="2.4" rx=".5" fill="#eaf5f2" fill-opacity=".86"/><rect class="skyline-window" x="32.0" y="138.0" width="1.2" height="2.4" rx=".5" fill="#eaf5f2" fill-opacity=".86"/><rect class="skyline-window" x="38.0" y="138.0" width="1.2" height="2.4" rx=".5" fill="#eaf5f2" fill-opacity=".26"/><rect class="skyline-window" x="32.0" y="146.5" width="1.2" height="2.4" rx=".5" fill="#eaf5f2" fill-opacity=".86"/><rect class="skyline-window" x="38.0" y="146.5" width="1.2" height="2.4" rx=".5" fill="#eaf5f2" fill-opacity=".86"/><rect class="skyline-window" x="32.0" y="155.0" width="1.2" height="2.4" rx=".5" fill="#eaf5f2" fill-opacity=".86"/><rect class="skyline-window" x="38.0" y="155.0" width="1.2" height="2.4" rx=".5" fill="#eaf5f2" fill-opacity=".26"/></g><g class="skyline-midrise"><title>2026-06-17: 73.1M (midrise)</title><path class="by skyline-building skyline-midrise-0" style="animation-delay:0.05s" d="M40.6 172V140H42.2V134H49.4V172Z" fill="#6f9294"/><rect class="skyline-window" x="42.0" y="147.0" width="1.2" height="2.4" rx=".5" fill="#eaf5f2" fill-opacity=".86"/><rect class="skyline-window" x="48.0" y="147.0" width="1.2" height="2.4" rx=".5" fill="#eaf5f2" fill-opacity=".86"/><rect class="skyline-window" x="42.0" y="155.5" width="1.2" height="2.4" rx=".5" fill="#eaf5f2" fill-opacity=".86"/><rect class="skyline-window" x="48.0" y="155.5" width="1.2" height="2.4" rx=".5" fill="#eaf5f2" fill-opacity=".86"/></g><g class="skyline-highrise"><title>2026-06-18: 134.7M (highrise)</title><path class="by skyline-building skyline-highrise-0" style="animation-delay:0.08s" d="M50.6 172V120H52.1V110H53.4V105H56.9V112H59.4V172Z" fill="#597e98"/><path d="M55.0 98v7" stroke="#eaf5f2" stroke-opacity=".72"/><rect class="skyline-window" x="52.0" y="118.0" width="1.2" height="2.4" rx=".5" fill="#eaf5f2" fill-opacity=".86"/><rect class="skyline-window" x="58.0" y="118.0" width="1.2" height="2.4" rx=".5" fill="#eaf5f2" fill-opacity=".86"/><rect class="skyline-window" x="52.0" y="126.5" width="1.2" height="2.4" rx=".5" fill="#eaf5f2" fill-opacity=".26"/><rect class="skyline-window" x="58.0" y="126.5" width="1.2" height="2.4" rx=".5" fill="#eaf5f2" fill-opacity=".86"/><rect class="skyline-window" x="52.0" y="135.0" width="1.2" height="2.4" rx=".5" fill="#eaf5f2" fill-opacity=".86"/><rect class="skyline-window" x="58.0" y="135.0" width="1.2" height="2.4" rx=".5" fill="#eaf5f2" fill-opacity=".86"/><rect class="skyline-window" x="52.0" y="143.5" width="1.2" height="2.4" rx=".5" fill="#eaf5f2" fill-opacity=".26"/><rect class="skyline-window" x="58.0" y="143.5" width="1.2" height="2.4" rx=".5" fill="#eaf5f2" fill-opacity=".86"/><rect class="skyline-window" x="52.0" y="152.0" width="1.2" height="2.4" rx=".5" fill="#eaf5f2" fill-opacity=".86"/><rect class="skyline-window" x="58.0" y="152.0" width="1.2" height="2.4" rx=".5" fill="#eaf5f2" fill-opacity=".86"/></g><g class="skyline-landmark"><title>2026-06-19: 277M (landmark)</title><path class="by skyline-building skyline-landmark-0" style="animation-delay:0.10s" d="M60.6 172V126.88L62.2 112.88L64.1 102.88H66.1L68.0 115.88V172Z" fill="#707bb0"/><path d="M65.0 89.88v13" stroke="#eaf5f2" stroke-opacity=".8" stroke-width="1.2"/><rect class="skyline-window" x="62.0" y="115.9" width="1.2" height="2.4" rx=".5" fill="#eaf5f2" fill-opacity=".86"/><rect class="skyline-window" x="68.0" y="115.9" width="1.2" height="2.4" rx=".5" fill="#eaf5f2" fill-opacity=".86"/><rect class="skyline-window" x="62.0" y="124.4" width="1.2" height="2.4" rx=".5" fill="#eaf5f2" fill-opacity=".86"/><rect class="skyline-window" x="68.0" y="124.4" width="1.2" height="2.4" rx=".5" fill="#eaf5f2" fill-opacity=".26"/><rect class="skyline-window" x="62.0" y="132.9" width="1.2" height="2.4" rx=".5" fill="#eaf5f2" fill-opacity=".86"/><rect class="skyline-window" x="68.0" y="132.9" width="1.2" height="2.4" rx=".5" fill="#eaf5f2" fill-opacity=".86"/><rect class="skyline-window" x="62.0" y="141.4" width="1.2" height="2.4" rx=".5" fill="#eaf5f2" fill-opacity=".86"/><rect class="skyline-window" x="68.0" y="141.4" width="1.2" height="2.4" rx=".5" fill="#eaf5f2" fill-opacity=".26"/><rect class="skyline-window" x="62.0" y="149.9" width="1.2" height="2.4" rx=".5" fill="#eaf5f2" fill-opacity=".86"/><rect class="skyline-window" x="68.0" y="149.9" width="1.2" height="2.4" rx=".5" fill="#eaf5f2" fill-opacity=".86"/><rect class="skyline-window" x="62.0" y="158.4" width="1.2" height="2.4" rx=".5" fill="#eaf5f2" fill-opacity=".86"/><rect class="skyline-window" x="68.0" y="158.4" width="1.2" height="2.4" rx=".5" fill="#eaf5f2" fill-opacity=".26"/><rect class="skyline-window" x="62.0" y="166.9" width="1.2" height="2.4" rx=".5" fill="#eaf5f2" fill-opacity=".86"/><rect class="skyline-window" x="68.0" y="166.9" width="1.2" height="2.4" rx=".5" fill="#eaf5f2" fill-opacity=".86"/><rect class="skyline-window" x="62.0" y="175.4" width="1.2" height="2.4" rx=".5" fill="#eaf5f2" fill-opacity=".86"/><rect class="skyline-window" x="68.0" y="175.4" width="1.2" height="2.4" rx=".5" fill="#eaf5f2" fill-opacity=".26"/><rect class="skyline-window" x="62.0" y="183.9" width="1.2" height="2.4" rx=".5" fill="#eaf5f2" fill-opacity=".86"/><rect class="skyline-window" x="68.0" y="183.9" width="1.2" height="2.4" rx=".5" fill="#eaf5f2" fill-opacity=".86"/></g><g class="skyline-midrise"><title>2026-06-20: 82.4M (midrise)</title><path class="by skyline-building skyline-midrise-0" style="animation-delay:0.13s" d="M70.6 172V139H72.2V133H79.4V172Z" fill="#6f9294"/><rect class="skyline-window" x="72.0" y="146.0" width="1.2" height="2.4" rx=".5" fill="#eaf5f2" fill-opacity=".86"/><rect class="skyline-window" x="78.0" y="146.0" width="1.2" height="2.4" rx=".5" fill="#eaf5f2" fill-opacity=".86"/><rect class="skyline-window" x="72.0" y="154.5" width="1.2" height="2.4" rx=".5" fill="#eaf5f2" fill-opacity=".86"/><rect class="skyline-window" x="78.0" y="154.5" width="1.2" height="2.4" rx=".5" fill="#eaf5f2" fill-opacity=".86"/></g><g class="skyline-midrise"><title>2026-06-21: 79.7M (midrise)</title><path class="by skyline-building skyline-midrise-2" style="animation-delay:0.15s" d="M80.6 172V139Q85.0 129 89.4 139V172Z" fill="#6a9b8b"/><rect class="skyline-window" x="82.0" y="146.0" width="1.2" height="2.4" rx=".5" fill="#eaf5f2" fill-opacity=".26"/><rect class="skyline-window" x="88.0" y="146.0" width="1.2" height="2.4" rx=".5" fill="#eaf5f2" fill-opacity=".86"/><rect class="skyline-window" x="82.0" y="154.5" width="1.2" height="2.4" rx=".5" fill="#eaf5f2" fill-opacity=".86"/><rect class="skyline-window" x="88.0" y="154.5" width="1.2" height="2.4" rx=".5" fill="#eaf5f2" fill-opacity=".86"/></g><g class="skyline-highrise"><title>2026-06-22: 148.8M (highrise)</title><path class="by skyline-building skyline-highrise-4" style="animation-delay:0.18s" d="M90.6 172V114.88H92.4V105.88H97.6V114.88H99.4V172Z" fill="#517f91"/><path d="M95.0 95.88v7" stroke="#eaf5f2" stroke-opacity=".72"/><rect class="skyline-window" x="92.0" y="115.9" width="1.2" height="2.4" rx=".5" fill="#eaf5f2" fill-opacity=".86"/><rect class="skyline-window" x="98.0" y="115.9" width="1.2" height="2.4" rx=".5" fill="#eaf5f2" fill-opacity=".26"/><rect class="skyline-window" x="92.0" y="124.4" width="1.2" height="2.4" rx=".5" fill="#eaf5f2" fill-opacity=".86"/><rect class="skyline-window" x="98.0" y="124.4" width="1.2" height="2.4" rx=".5" fill="#eaf5f2" fill-opacity=".86"/><rect class="skyline-window" x="92.0" y="132.9" width="1.2" height="2.4" rx=".5" fill="#eaf5f2" fill-opacity=".86"/><rect class="skyline-window" x="98.0" y="132.9" width="1.2" height="2.4" rx=".5" fill="#eaf5f2" fill-opacity=".26"/><rect class="skyline-window" x="92.0" y="141.4" width="1.2" height="2.4" rx=".5" fill="#eaf5f2" fill-opacity=".86"/><rect class="skyline-window" x="98.0" y="141.4" width="1.2" height="2.4" rx=".5" fill="#eaf5f2" fill-opacity=".86"/><rect class="skyline-window" x="92.0" y="149.9" width="1.2" height="2.4" rx=".5" fill="#eaf5f2" fill-opacity=".86"/><rect class="skyline-window" x="98.0" y="149.9" width="1.2" height="2.4" rx=".5" fill="#eaf5f2" fill-opacity=".26"/><rect class="skyline-window" x="92.0" y="158.4" width="1.2" height="2.4" rx=".5" fill="#eaf5f2" fill-opacity=".86"/><rect class="skyline-window" x="98.0" y="158.4" width="1.2" height="2.4" rx=".5" fill="#eaf5f2" fill-opacity=".86"/></g><g class="skyline-landmark"><title>2026-06-23: 313M (landmark)</title><path class="by skyline-building skyline-landmark-1" style="animation-delay:0.20s" d="M100.6 172V130.88L102.5 114.88L105.0 102.88L107.5 120.88V172Z" fill="#587fae"/><path d="M105.0 89.88v13" stroke="#eaf5f2" stroke-opacity=".8" stroke-width="1.2"/><rect class="skyline-window" x="102.0" y="115.9" width="1.2" height="2.4" rx=".5" fill="#eaf5f2" fill-opacity=".86"/><rect class="skyline-window" x="108.0" y="115.9" width="1.2" height="2.4" rx=".5" fill="#eaf5f2" fill-opacity=".86"/><rect class="skyline-window" x="102.0" y="124.4" width="1.2" height="2.4" rx=".5" fill="#eaf5f2" fill-opacity=".86"/><rect class="skyline-window" x="108.0" y="124.4" width="1.2" height="2.4" rx=".5" fill="#eaf5f2" fill-opacity=".86"/><rect class="skyline-window" x="102.0" y="132.9" width="1.2" height="2.4" rx=".5" fill="#eaf5f2" fill-opacity=".86"/><rect class="skyline-window" x="108.0" y="132.9" width="1.2" height="2.4" rx=".5" fill="#eaf5f2" fill-opacity=".86"/><rect class="skyline-window" x="102.0" y="141.4" width="1.2" height="2.4" rx=".5" fill="#eaf5f2" fill-opacity=".86"/><rect class="skyline-window" x="108.0" y="141.4" width="1.2" height="2.4" rx=".5" fill="#eaf5f2" fill-opacity=".86"/><rect class="skyline-window" x="102.0" y="149.9" width="1.2" height="2.4" rx=".5" fill="#eaf5f2" fill-opacity=".86"/><rect class="skyline-window" x="108.0" y="149.9" width="1.2" height="2.4" rx=".5" fill="#eaf5f2" fill-opacity=".86"/><rect class="skyline-window" x="102.0" y="158.4" width="1.2" height="2.4" rx=".5" fill="#eaf5f2" fill-opacity=".86"/><rect class="skyline-window" x="108.0" y="158.4" width="1.2" height="2.4" rx=".5" fill="#eaf5f2" fill-opacity=".86"/><rect class="skyline-window" x="102.0" y="166.9" width="1.2" height="2.4" rx=".5" fill="#eaf5f2" fill-opacity=".86"/><rect class="skyline-window" x="108.0" y="166.9" width="1.2" height="2.4" rx=".5" fill="#eaf5f2" fill-opacity=".86"/><rect class="skyline-window" x="102.0" y="175.4" width="1.2" height="2.4" rx=".5" fill="#eaf5f2" fill-opacity=".86"/><rect class="skyline-window" x="108.0" y="175.4" width="1.2" height="2.4" rx=".5" fill="#eaf5f2" fill-opacity=".86"/><rect class="skyline-window" x="102.0" y="183.9" width="1.2" height="2.4" rx=".5" fill="#eaf5f2" fill-opacity=".86"/><rect class="skyline-window" x="108.0" y="183.9" width="1.2" height="2.4" rx=".5" fill="#eaf5f2" fill-opacity=".86"/><rect class="skyline-window" x="102.0" y="192.4" width="1.2" height="2.4" rx=".5" fill="#eaf5f2" fill-opacity=".86"/><rect class="skyline-window" x="108.0" y="192.4" width="1.2" height="2.4" rx=".5" fill="#eaf5f2" fill-opacity=".86"/></g><g class="skyline-midrise"><title>2026-06-24: 90.4M (midrise)</title><path class="by skyline-building skyline-midrise-3" style="animation-delay:0.23s" d="M110.6 172V139L112.8 131H117.2L119.4 139V172Z" fill="#8792aa"/><rect class="skyline-window" x="112.0" y="144.0" width="1.2" height="2.4" rx=".5" fill="#eaf5f2" fill-opacity=".86"/><rect class="skyline-window" x="118.0" y="144.0" width="1.2" height="2.4" rx=".5" fill="#eaf5f2" fill-opacity=".86"/><rect class="skyline-window" x="112.0" y="152.5" width="1.2" height="2.4" rx=".5" fill="#eaf5f2" fill-opacity=".26"/><rect class="skyline-window" x="118.0" y="152.5" width="1.2" height="2.4" rx=".5" fill="#eaf5f2" fill-opacity=".86"/></g><g class="skyline-midrise"><title>2026-06-25: 97.3M (midrise)</title><path class="by skyline-building skyline-midrise-1" style="animation-delay:0.25s" d="M120.6 172V140H122.7V133H126.9V130H129.4V172Z" fill="#7e91a6"/><rect class="skyline-window" x="122.0" y="143.0" width="1.2" height="2.4" rx=".5" fill="#eaf5f2" fill-opacity=".86"/><rect class="skyline-window" x="128.0" y="143.0" width="1.2" height="2.4" rx=".5" fill="#eaf5f2" fill-opacity=".86"/><rect class="skyline-window" x="122.0" y="151.5" width="1.2" height="2.4" rx=".5" fill="#eaf5f2" fill-opacity=".86"/><rect class="skyline-window" x="128.0" y="151.5" width="1.2" height="2.4" rx=".5" fill="#eaf5f2" fill-opacity=".26"/></g><g class="skyline-highrise"><title>2026-06-26: 126.2M (highrise)</title><path class="by skyline-building skyline-highrise-3" style="animation-delay:0.28s" d="M130.6 172V115Q135.0 100 139.4 115V172Z" fill="#7c769b"/><path d="M135.0 100v7" stroke="#eaf5f2" stroke-opacity=".72"/><rect class="skyline-window" x="132.0" y="120.0" width="1.2" height="2.4" rx=".5" fill="#eaf5f2" fill-opacity=".86"/><rect class="skyline-window" x="138.0" y="120.0" width="1.2" height="2.4" rx=".5" fill="#eaf5f2" fill-opacity=".86"/><rect class="skyline-window" x="132.0" y="128.5" width="1.2" height="2.4" rx=".5" fill="#eaf5f2" fill-opacity=".86"/><rect class="skyline-window" x="138.0" y="128.5" width="1.2" height="2.4" rx=".5" fill="#eaf5f2" fill-opacity=".86"/><rect class="skyline-window" x="132.0" y="137.0" width="1.2" height="2.4" rx=".5" fill="#eaf5f2" fill-opacity=".86"/><rect class="skyline-window" x="138.0" y="137.0" width="1.2" height="2.4" rx=".5" fill="#eaf5f2" fill-opacity=".86"/><rect class="skyline-window" x="132.0" y="145.5" width="1.2" height="2.4" rx=".5" fill="#eaf5f2" fill-opacity=".86"/><rect class="skyline-window" x="138.0" y="145.5" width="1.2" height="2.4" rx=".5" fill="#eaf5f2" fill-opacity=".86"/><rect class="skyline-window" x="132.0" y="154.0" width="1.2" height="2.4" rx=".5" fill="#eaf5f2" fill-opacity=".86"/><rect class="skyline-window" x="138.0" y="154.0" width="1.2" height="2.4" rx=".5" fill="#eaf5f2" fill-opacity=".86"/></g><g class="skyline-field"><title>2026-06-27: no token activity</title><path d="M140.6 172V168.76q4.4 -3 8.8 0V172Z" fill="#5d9154"/><path d="M142.7 169.76l1.3 -4m2.6 4l-1.1 -3" stroke="#d6e891" stroke-width=".8" stroke-linecap="round"/></g><g class="skyline-house"><title>2026-06-28: 2.1M (house)</title><path class="by skyline-building skyline-house-4" style="animation-delay:0.33s" d="M150.6 172V168L155.0 161L159.4 168V172Z" fill="#c8775c"/><rect x="155.5" y="167.0" width="1.1" height="3.0" fill="#26384a"/><rect class="skyline-window" x="152.0" y="165.6" width="1.2" height="2.4" rx=".5" fill="#eaf5f2" fill-opacity=".86"/></g><g class="skyline-highrise"><title>2026-06-29: 209.9M (highrise)</title><path class="by skyline-building skyline-highrise-2" style="animation-delay:0.35s" d="M160.6 172V112.88H163.1V102.88H166.8V112.88H169.4V172Z" fill="#548f9c"/><path d="M165.0 95.88v7" stroke="#eaf5f2" stroke-opacity=".72"/><rect class="skyline-window" x="162.0" y="115.9" width="1.2" height="2.4" rx=".5" fill="#eaf5f2" fill-opacity=".86"/><rect class="skyline-window" x="168.0" y="115.9" width="1.2" height="2.4" rx=".5" fill="#eaf5f2" fill-opacity=".86"/><rect class="skyline-window" x="162.0" y="124.4" width="1.2" height="2.4" rx=".5" fill="#eaf5f2" fill-opacity=".86"/><rect class="skyline-window" x="168.0" y="124.4" width="1.2" height="2.4" rx=".5" fill="#eaf5f2" fill-opacity=".86"/><rect class="skyline-window" x="162.0" y="132.9" width="1.2" height="2.4" rx=".5" fill="#eaf5f2" fill-opacity=".86"/><rect class="skyline-window" x="168.0" y="132.9" width="1.2" height="2.4" rx=".5" fill="#eaf5f2" fill-opacity=".86"/><rect class="skyline-window" x="162.0" y="141.4" width="1.2" height="2.4" rx=".5" fill="#eaf5f2" fill-opacity=".86"/><rect class="skyline-window" x="168.0" y="141.4" width="1.2" height="2.4" rx=".5" fill="#eaf5f2" fill-opacity=".86"/><rect class="skyline-window" x="162.0" y="149.9" width="1.2" height="2.4" rx=".5" fill="#eaf5f2" fill-opacity=".86"/><rect class="skyline-window" x="168.0" y="149.9" width="1.2" height="2.4" rx=".5" fill="#eaf5f2" fill-opacity=".86"/><rect class="skyline-window" x="162.0" y="158.4" width="1.2" height="2.4" rx=".5" fill="#eaf5f2" fill-opacity=".86"/><rect class="skyline-window" x="168.0" y="158.4" width="1.2" height="2.4" rx=".5" fill="#eaf5f2" fill-opacity=".86"/><rect class="skyline-window" x="162.0" y="166.9" width="1.2" height="2.4" rx=".5" fill="#eaf5f2" fill-opacity=".86"/><rect class="skyline-window" x="168.0" y="166.9" width="1.2" height="2.4" rx=".5" fill="#eaf5f2" fill-opacity=".86"/></g><g class="skyline-house"><title>2026-06-30: 20.6M (house)</title><path class="by skyline-building skyline-house-2" style="animation-delay:0.38s" d="M170.6 172V164L175.0 157L179.4 164V172Z" fill="#bd6847"/><rect x="175.5" y="163.0" width="1.1" height="3.8" fill="#26384a"/><rect class="skyline-window" x="172.0" y="163.3" width="1.2" height="2.4" rx=".5" fill="#eaf5f2" fill-opacity=".86"/></g><g class="skyline-midrise"><title>2026-07-01: 101.7M (midrise)</title><path class="by skyline-building skyline-midrise-0" style="animation-delay:0.40s" d="M180.6 172V135H182.2V129H189.4V172Z" fill="#6f9294"/><rect class="skyline-window" x="182.0" y="142.0" width="1.2" height="2.4" rx=".5" fill="#eaf5f2" fill-opacity=".86"/><rect class="skyline-window" x="188.0" y="142.0" width="1.2" height="2.4" rx=".5" fill="#eaf5f2" fill-opacity=".86"/><rect class="skyline-window" x="182.0" y="150.5" width="1.2" height="2.4" rx=".5" fill="#eaf5f2" fill-opacity=".86"/><rect class="skyline-window" x="188.0" y="150.5" width="1.2" height="2.4" rx=".5" fill="#eaf5f2" fill-opacity=".26"/><rect class="skyline-window" x="182.0" y="159.0" width="1.2" height="2.4" rx=".5" fill="#eaf5f2" fill-opacity=".86"/><rect class="skyline-window" x="188.0" y="159.0" width="1.2" height="2.4" rx=".5" fill="#eaf5f2" fill-opacity=".86"/></g><g class="skyline-midrise"><title>2026-07-02: 92.6M (midrise)</title><path class="by skyline-building skyline-midrise-2" style="animation-delay:0.43s" d="M190.6 172V137Q195.0 127 199.4 137V172Z" fill="#6a9b8b"/><rect class="skyline-window" x="192.0" y="144.0" width="1.2" height="2.4" rx=".5" fill="#eaf5f2" fill-opacity=".86"/><rect class="skyline-window" x="198.0" y="144.0" width="1.2" height="2.4" rx=".5" fill="#eaf5f2" fill-opacity=".86"/><rect class="skyline-window" x="192.0" y="152.5" width="1.2" height="2.4" rx=".5" fill="#eaf5f2" fill-opacity=".86"/><rect class="skyline-window" x="198.0" y="152.5" width="1.2" height="2.4" rx=".5" fill="#eaf5f2" fill-opacity=".86"/></g><g class="skyline-midrise"><title>2026-07-03: 88.4M (midrise)</title><path class="by skyline-building skyline-midrise-4" style="animation-delay:0.45s" d="M200.6 172V132H209.4V172Z" fill="#668b96"/><rect class="skyline-window" x="202.0" y="145.0" width="1.2" height="2.4" rx=".5" fill="#eaf5f2" fill-opacity=".26"/><rect class="skyline-window" x="208.0" y="145.0" width="1.2" height="2.4" rx=".5" fill="#eaf5f2" fill-opacity=".86"/><rect class="skyline-window" x="202.0" y="153.5" width="1.2" height="2.4" rx=".5" fill="#eaf5f2" fill-opacity=".86"/><rect class="skyline-window" x="208.0" y="153.5" width="1.2" height="2.4" rx=".5" fill="#eaf5f2" fill-opacity=".86"/></g><g class="skyline-field"><title>2026-07-04: no token activity</title><path d="M210.6 172V168.76q4.4 -3 8.8 0V172Z" fill="#5d9154"/><path d="M212.7 169.76l1.3 -4m2.6 4l-1.1 -3" stroke="#d6e891" stroke-width=".8" stroke-linecap="round"/></g><g class="skyline-field"><title>2026-07-05: no token activity</title><path d="M220.6 172V168.76q4.4 -3 8.8 0V172Z" fill="#5d9154"/><path d="M222.7 169.76l1.3 -4m2.6 4l-1.1 -3" stroke="#d6e891" stroke-width=".8" stroke-linecap="round"/></g><g class="skyline-field"><title>2026-07-06: no token activity</title><path d="M230.6 172V168.76q4.4 -3 8.8 0V172Z" fill="#5d9154"/><path d="M232.7 169.76l1.3 -4m2.6 4l-1.1 -3" stroke="#d6e891" stroke-width=".8" stroke-linecap="round"/></g><g class="skyline-house"><title>2026-07-07: 7M (house)</title><path class="by skyline-building skyline-house-2" style="animation-delay:0.55s" d="M240.6 172V166L245.0 159L249.4 166V172Z" fill="#bd6847"/><rect x="245.5" y="165.0" width="1.1" height="3.3" fill="#26384a"/><rect class="skyline-window" x="242.0" y="164.5" width="1.2" height="2.4" rx=".5" fill="#eaf5f2" fill-opacity=".86"/></g><g class="skyline-midrise"><title>2026-07-08: 113.9M (midrise)</title><path class="by skyline-building skyline-midrise-2" style="animation-delay:0.58s" d="M250.6 172V133Q255.0 123 259.4 133V172Z" fill="#6a9b8b"/><rect class="skyline-window" x="252.0" y="140.0" width="1.2" height="2.4" rx=".5" fill="#eaf5f2" fill-opacity=".86"/><rect class="skyline-window" x="258.0" y="140.0" width="1.2" height="2.4" rx=".5" fill="#eaf5f2" fill-opacity=".86"/><rect class="skyline-window" x="252.0" y="148.5" width="1.2" height="2.4" rx=".5" fill="#eaf5f2" fill-opacity=".86"/><rect class="skyline-window" x="258.0" y="148.5" width="1.2" height="2.4" rx=".5" fill="#eaf5f2" fill-opacity=".86"/><rect class="skyline-window" x="252.0" y="157.0" width="1.2" height="2.4" rx=".5" fill="#eaf5f2" fill-opacity=".86"/><rect class="skyline-window" x="258.0" y="157.0" width="1.2" height="2.4" rx=".5" fill="#eaf5f2" fill-opacity=".86"/></g><g class="skyline-midrise"><title>2026-07-09: 53.2M (midrise)</title><path class="by skyline-building skyline-midrise-3" style="animation-delay:0.60s" d="M260.6 172V146L262.8 138H267.2L269.4 146V172Z" fill="#8792aa"/><rect class="skyline-window" x="262.0" y="151.0" width="1.2" height="2.4" rx=".5" fill="#eaf5f2" fill-opacity=".26"/><rect class="skyline-window" x="268.0" y="151.0" width="1.2" height="2.4" rx=".5" fill="#eaf5f2" fill-opacity=".86"/><rect class="skyline-window" x="262.0" y="159.5" width="1.2" height="2.4" rx=".5" fill="#eaf5f2" fill-opacity=".86"/><rect class="skyline-window" x="268.0" y="159.5" width="1.2" height="2.4" rx=".5" fill="#eaf5f2" fill-opacity=".86"/></g><g class="skyline-highrise"><title>2026-07-10: 144.9M (highrise)</title><path class="by skyline-building skyline-highrise-2" style="animation-delay:0.63s" d="M270.6 172V113H273.1V103H276.8V113H279.4V172Z" fill="#548f9c"/><path d="M275.0 96v7" stroke="#eaf5f2" stroke-opacity=".72"/><rect class="skyline-window" x="272.0" y="116.0" width="1.2" height="2.4" rx=".5" fill="#eaf5f2" fill-opacity=".86"/><rect class="skyline-window" x="278.0" y="116.0" width="1.2" height="2.4" rx=".5" fill="#eaf5f2" fill-opacity=".26"/><rect class="skyline-window" x="272.0" y="124.5" width="1.2" height="2.4" rx=".5" fill="#eaf5f2" fill-opacity=".86"/><rect class="skyline-window" x="278.0" y="124.5" width="1.2" height="2.4" rx=".5" fill="#eaf5f2" fill-opacity=".86"/><rect class="skyline-window" x="272.0" y="133.0" width="1.2" height="2.4" rx=".5" fill="#eaf5f2" fill-opacity=".86"/><rect class="skyline-window" x="278.0" y="133.0" width="1.2" height="2.4" rx=".5" fill="#eaf5f2" fill-opacity=".26"/><rect class="skyline-window" x="272.0" y="141.5" width="1.2" height="2.4" rx=".5" fill="#eaf5f2" fill-opacity=".86"/><rect class="skyline-window" x="278.0" y="141.5" width="1.2" height="2.4" rx=".5" fill="#eaf5f2" fill-opacity=".86"/><rect class="skyline-window" x="272.0" y="150.0" width="1.2" height="2.4" rx=".5" fill="#eaf5f2" fill-opacity=".86"/><rect class="skyline-window" x="278.0" y="150.0" width="1.2" height="2.4" rx=".5" fill="#eaf5f2" fill-opacity=".26"/></g><g class="skyline-house"><title>2026-07-11: 538.4k (house)</title><path class="by skyline-building skyline-house-3" style="animation-delay:0.65s" d="M280.6 172V166H282.5L285.0 161L287.5 166H289.4V172Z" fill="#d89362"/><rect x="285.5" y="167.0" width="1.1" height="3.0" fill="#26384a"/><rect class="skyline-window" x="282.0" y="165.6" width="1.2" height="2.4" rx=".5" fill="#eaf5f2" fill-opacity=".86"/></g><g class="skyline-house"><title>2026-07-12: 26.8M (house)</title><path class="by skyline-building skyline-house-4" style="animation-delay:0.68s" d="M290.6 172V162L295.0 155L299.4 162V172Z" fill="#c8775c"/><rect x="295.5" y="161.0" width="1.1" height="4.3" fill="#26384a"/><rect class="skyline-window" x="292.0" y="162.1" width="1.2" height="2.4" rx=".5" fill="#eaf5f2" fill-opacity=".86"/></g><g class="skyline-house"><title>2026-07-13: 50.1M (house)</title><path class="by skyline-building skyline-house-0" style="animation-delay:0.70s" d="M300.6 172V157L305.0 150L309.4 157V172Z" fill="#d9794d"/><rect x="305.5" y="156.0" width="1.1" height="5.5" fill="#26384a"/><rect class="skyline-window" x="302.0" y="159.2" width="1.2" height="2.4" rx=".5" fill="#eaf5f2" fill-opacity=".86"/></g><g class="skyline-house"><title>2026-07-14: 31.3M (house)</title><path class="by skyline-building skyline-house-1" style="animation-delay:0.73s" d="M310.6 172V159H312.5L315.0 154L317.5 159H319.4V172Z" fill="#bb9af7"/><rect x="315.5" y="160.0" width="1.1" height="4.5" fill="#26384a"/><rect class="skyline-window" x="312.0" y="161.6" width="1.2" height="2.4" rx=".5" fill="#eaf5f2" fill-opacity=".86"/></g><path class="skyline-street" d="M20 170H320V172H20Z" fill="#24333d" fill-opacity=".78"/><path d="M20 171H320" stroke="#eaf5f2" stroke-opacity=".5" stroke-dasharray="8 8" stroke-width=".7"/><path d="M48 169v-8m-2 0h4" stroke="#eaf5f2" stroke-opacity=".55" stroke-width=".8"/><circle cx="48" cy="161" r="1.2" fill="#eaf5f2" fill-opacity=".8"/><path d="M114 169v-8m-2 0h4" stroke="#eaf5f2" stroke-opacity=".55" stroke-width=".8"/><circle cx="114" cy="161" r="1.2" fill="#eaf5f2" fill-opacity=".8"/><path d="M180 169v-8m-2 0h4" stroke="#eaf5f2" stroke-opacity=".55" stroke-width=".8"/><circle cx="180" cy="161" r="1.2" fill="#eaf5f2" fill-opacity=".8"/><path d="M246 169v-8m-2 0h4" stroke="#eaf5f2" stroke-opacity=".55" stroke-width=".8"/><circle cx="246" cy="161" r="1.2" fill="#eaf5f2" fill-opacity=".8"/>
<text class="f" style="animation-delay:0.96s" x="20" y="190" font-size="9.5" fill="#9aa5ce">in 1.8M · out 11.8M · cache 3.91B</text>
</g>
</svg>